<svg version="1.0" xmlns="http://www.w3.org/2000/svg" width="5312" height="5301.333" viewBox="0 0 3984 3976"><path d="M1609.8 400.8c-3.7 1-7.3 2.3-8 3-.6.6-2 1.2-3 1.2s-2.7 1.4-3.7 3c-1 1.7-3.8 4.6-6.3 6.5-2.4 1.9-5.5 5.5-6.7 8.1-1.3 2.5-3.7 6-5.5 7.7-4.5 4.6-7.3 8.8-7.7 11.7-.3 1.6-1 2.4-2 2.2-2-.3-4.4 3.1-5.4 7.6-.4 1.8-1.3 3.6-2 3.8-.7.3-1.6 1.6-1.9 2.9-.3 1.3-1.9 3.3-3.6 4.5-2.4 1.7-3.1 3.1-3.6 7.2-.5 3.5-1.5 6-3.1 7.5-2.7 2.7-6.3 9.9-6.3 12.4 0 1-.4 2-.8 2.3-.4.3-1.4 2.8-2.2 5.6-.8 2.9-2.1 5.7-3 6.3-2.4 1.8-2.9 2.9-4.6 11.4-.9 4.3-2.2 8.5-2.8 9.3-4.7 5.7-9.6 21.9-9.6 31.6 0 5.3-1 8.4-2.6 8.4-.7 0-1.8.9-2.4 2-3.3 6.2-5.3 87.1-3 121.9.6 9.1 1.3 16.7 1.5 17.1.2.3.6 2.6 1 5 .3 2.5 1 6 1.5 7.9.7 2.4.5 3.9-.6 5.5-.8 1.3-2.1 4.7-3 7.6-.9 3-3.1 7.3-5 9.6-1.9 2.2-3.4 4.5-3.4 4.9 0 .5-.6 1.6-1.3 2.4-.8.9-2 3.2-2.7 5.1-.8 1.9-2.9 4.9-4.7 6.6-1.8 1.7-3.3 3.8-3.3 4.7 0 .9-1.1 2.8-2.5 4.3s-2.5 3.3-2.5 3.9c0 .7-.6 1.5-1.4 1.8-1.5.6-6.6 10.7-6.6 13.2 0 .8-1 1.9-2.3 2.4-1.5.6-2.8 2.4-3.7 5.3-1.8 5.9-7 16.8-8 16.8-1.1 0-2.7 4.6-4.5 13.5-1 4.4-2.8 9.6-4.1 11.5-3.3 5.1-4.1 7.6-5.9 19.6-.9 5.9-2 11.5-2.6 12.5-.5 1-1.1 3.2-1.3 5-.2 1.7-1.3 4.3-2.4 5.9-2.3 3.1-2.9 6.8-3.7 24-.3 6.3-1 13.3-1.5 15.5-3.2 14-4.9 18.1-9.9 22.8l-2.9 2.8-30.9.5c-16.9.2-32.6.6-34.8.8-6.6.6-16.8 2.7-20 4.1-1.6.7-4.6 1.8-6.6 2.4-8.8 2.8-16.9 18.1-15.5 29.6 1 8.5 3.7 17.2 6.1 19.7 1.2 1.3 2.7 3.4 3.4 4.6 3.2 6 23.3 9.1 56.6 8.7 13.4-.2 28.6.2 36.5 1 7.4.7 13.8 1.1 14.2.9.3-.2 1.6.8 2.7 2.2 2.1 2.7 3.7 7.4 4.3 12.9.2 1.6.9 3.9 1.5 5s1.4 3.8 1.8 6c.3 2.1 1.5 5.6 2.5 7.6 2.1 4.1 2.9 7.1 3.5 14.1.5 5.9 3.9 13.8 5.9 13.8 1.2 0 1.6 1 1.6 3.5 0 4.5 5.3 20.1 7.8 22.8 1.1 1.2 2.2 3.4 2.6 4.9 1.1 4.9 4.5 11.8 7 14.3 1.3 1.3 3.4 5 4.5 8.1 2.3 6 4.9 10 9.4 14.2 1.5 1.5 2.7 3.2 2.7 3.8 0 .6.7 1.7 1.5 2.4s1.3 1.6 1 2c-.3.4.2 1.3 1 2 1.6 1.3 7.5 9.7 7.5 10.6 0 .3 2 3.3 4.5 6.5 2.5 3.3 4.5 6.3 4.5 6.8 0 .4.9 1.6 2.1 2.7 1.1 1 4.1 5 6.6 8.8 2.6 3.8 6.7 9 9.2 11.5 7.6 7.7 14.1 15.5 14.7 17.8.7 2.4-1.9 6.8-5 8.6-1.5.8-12.8 1.2-37.6 1.4-19.5.2-37.7.7-40.5 1.2-4.8.9-16 2.1-25.5 2.6-2.5.2-18.2.6-35 .9-44.7 1-59.2 2.5-77 8.2-5.8 1.8-13.5 3.8-17.2 4.4-8 1.2-10.6 2.2-13.4 4.8-1.1 1.1-5.4 2.8-9.5 3.8s-7.8 2.5-8.2 3.1c-.4.7-1.4 1.3-2.1 1.3-.7 0-3.2 1.3-5.7 2.9-2.5 1.6-7.2 3.4-10.9 4.1-4.5.9-7.1 1.9-8.5 3.6-1.1 1.2-4.5 3.5-7.5 4.9-9.9 4.8-13 6.6-13 7.9 0 .7-1.9 1.8-4.2 2.5-7 2.1-9.3 3.5-9.2 5.9 0 1.6-.5 2.2-2.1 2.2-1.2 0-3.4.9-4.8 2s-3 2-3.6 2c-.5 0-3.3 2.2-6 5-2.8 2.7-5.7 5-6.6 5-.9 0-2.1 1.4-2.7 3-.6 1.8-1.9 3.2-3.3 3.6-1.3.3-2.5 1.4-2.8 2.5-.3 1-1.4 1.9-2.5 1.9-2.3 0-5.2 3-5.2 5.3 0 .9-.7 1.7-1.6 1.7-2.3 0-7.4 3.9-7.4 5.6 0 .8-.7 1.7-1.6 2.1-.8.3-2 1.7-2.5 3-.6 1.6-1.5 2.3-2.4 1.9-1.7-.6-3.9 2.4-4.9 6.7-.5 2.3-1.1 2.7-2.7 2.2-1.5-.5-2.2-.2-2.6 1.4-.3 1.2-1.1 2.1-1.8 2.1s-2 1.6-2.9 3.5c-.9 1.9-3.2 5.1-5.2 7.2-1.9 2-3.8 4.9-4.1 6.4-.3 1.5-1.3 2.9-2.4 3.2-1.3.3-1.9 1.4-1.9 3.2 0 2.2-.3 2.5-2 2-1.4-.4-2-.2-2 .8 0 .8-.9 2.2-2 3.2s-1.7 2.1-1.5 2.5c.9 1.4-1.2 5.5-4.6 9.1-5.5 5.8-7.9 9-7.9 10.4 0 .8-.8 2.2-1.8 3.2s-2.7 3.8-3.7 6.3-2.4 5.2-3.1 6c-1.5 1.9-10.4 20.7-10.4 22 0 2.1-3.5 8-5 8.5-1.8.6-3.5 4.8-4.5 11.2-.4 2.3-1.3 4.7-2.1 5.4-.8.6-1.4 1.8-1.4 2.6s-1.1 2.4-2.4 3.6c-1.6 1.6-2.7 4.2-3.6 9.2-2 11.4-2.1 11.5-8.8 15.1l-6.2 3.4h-31.9c-34.4.1-46.8.9-62.9 3.8-8.1 1.5-10.8 2.4-13 4.4-2 2-4.5 2.9-10.1 3.7-8.5 1.3-8.9 1.5-10.1 4.4-.4 1.2-3 3.3-5.7 4.7-5.8 3-6.4 3.5-11.4 8.2-2.1 2-4.7 3.9-5.8 4.3-1.1.3-2.3 1.5-2.6 2.6-.4 1-1.5 2.4-2.6 2.9-1 .6-1.9 1.6-1.9 2.3 0 .7-1.6 2.5-3.5 4-3.6 2.9-4.9 5.3-8.7 16.4-1.2 3.5-3.1 7.3-4.2 8.5-4.3 4.7-4.4 24 0 31.7 1.4 2.5 3.9 8.1 5.6 12.4 2.3 6.1 3.6 8.1 6 9.3 1.7.9 4.1 2.5 5.2 3.6 1.2 1.1 3.2 2.5 4.6 3.3 3.5 1.8 15.8 4.7 16.9 4 .5-.3 1.2-.1 1.6.5.3.5 2.5 1 4.8 1s6 .5 8.2 1c4.1 1 28.1 1.4 32.3.6 1.3-.3 9.1-.6 17.5-.7 8.3 0 16.1-.5 17.4-1 2.8-1.1 15.3.5 18.5 2.3 3.9 2.3 8.8 7.7 8.8 9.7 0 1.1-.6 2.5-1.2 3-11.9 9.7-21.6 18-24.3 20.7-1.9 1.9-3.8 3.4-4.3 3.4s-3.7 2.5-7.1 5.5c-3.4 3-6.7 5.5-7.4 5.5-1.2 0-4.7 5.3-4.7 7.2 0 .5-2 3-4.5 5.5s-5.2 5.7-6 7.2c-.7 1.5-2.9 4.5-4.7 6.5-1.8 2.1-4 5-4.8 6.5-3.3 6.1-5.5 8.8-7.4 9.7-1.2.5-2.3 2-2.4 3.3-.4 2.5-6.5 11.5-9.5 14-.9.7-2.4 4-3.3 7.3-1.3 4.6-2.3 6.2-4.5 7.3-2.3 1.2-2.9 2.4-3.4 6.2-.4 2.7-.8 5.8-1 7.1-.5 3.2-4.5 11.2-5.5 11.2-1.8 0-3.8 6.7-5.5 18-1 6.3-2.4 12.4-3.2 13.6-4.3 6.6-5.9 20.4-6.3 53.9-.3 33.2-.4 35.9-1.1 36.5-1.4 1.1-2 24.8-2 73.2 0 28 .3 51.3.6 51.9.4.5.7 6.7.7 13.7 0 7.9.3 11.8.8 10.2.5-1.5.8 2.7.8 11 0 8.2-.3 12.3-.8 10.5-.8-3-.8-3-.9.7 0 2.1.4 3.8.9 3.8.6 0 1 .8 1 1.7 0 1.5-.2 1.6-1 .3-.7-1-1 2.7-1 11.5-.1 29.3-1.5 61.8-2.9 67.8-.9 3.8-4.9 10.6-8.3 14-1.6 1.5-2.9 1.7-9.2 1.2-4-.4-48.9-.9-99.7-1.1-109.1-.5-107.1-.5-108.5.9-.4.4-1.8.7-3.1.7s-3.1.4-4.1.9c-.9.6-4.5 2.1-8 3.4-3.5 1.3-7.4 3.3-8.6 4.3-3.9 3.2-9.6 11.4-9.6 13.8 0 1.2-.4 2.6-.9 3.1-1.1 1.2-3.1 12.8-3.1 18.1 0 4.7 3.2 19.4 4.2 19.4.4 0 .5.7.2 1.5-.4.9 1.3 3.2 4.7 6.2 2.9 2.7 6.9 6.5 8.9 8.5 2.9 2.9 4.9 4 9.1 4.8 6 1.2 2572.9 1.6 2584.1.4 3.5-.3 7.7-1.4 9.5-2.3 6.7-3.5 15.5-10.4 17.7-13.9 1.3-2.1 3.1-4.3 3.9-5.1 3.1-2.5 4.9-7.7 5.6-16.1.8-9.2-.8-16-4.7-20.4-1-1.2-2.5-3.7-3.2-5.6-1.3-3.4-5.4-8-7.1-8-.5 0-2.3-1.6-4-3.4-1.7-1.9-4.5-3.8-6.3-4.2-1.7-.3-3.3-1-3.6-1.4-.3-.4-3.6-1.9-7.5-3.3l-7-2.5-119 .6c-65.4.4-121.7.6-125 .6-7 0-12.9-2.9-14.8-7.3-.8-1.9-1.1-42.8-1.2-147.6-.1-79.8-.5-150.2-.9-156.5-.9-14.1-2.4-24-3.8-25.7-.6-.7-1.2-2.1-1.3-3.1-.1-1.6-.6-2.9-2.6-7.9-.4-1.3-1.3-6.1-1.9-10.8-1.1-9.1-1.3-9.7-4.3-16.4-1-2.5-2.9-8.6-4.2-13.6-2.4-9.8-3.7-12.9-5.9-14.2-1.5-.9-7.6-13.4-7.6-15.7 0-2.6-3.3-8.6-4.7-8.6-.7 0-1.5-1.2-1.9-2.8-1.2-5.6-7-17.1-9.9-19.7-1.3-1.1-3-4-3.9-6.5-1-2.6-2.6-5-3.8-5.5-1.2-.6-3.1-2.7-4.2-4.7-2.9-5.1-5.3-7.8-7.1-7.8-1.5 0-4.5-4.8-4.5-7.3s-28.2-30.4-36-35.6c-11-7.3-14.2-10.9-14.6-16.6-.4-6.7 2.1-9 10.7-9.9 3.5-.4 8.7-.3 11.4.2 5.3 1 54.9.9 62.5-.1 2.5-.3 7.2-.9 10.5-1.1 18.1-1.7 28.5-4 28.5-6.4 0-.5 1.4-1.5 3-2.2 2.5-1 9-8.7 9-10.6 0-.3 1.1-1.5 2.5-2.7 3.8-3.3 5.6-11.2 5.6-25.3 0-13-2-23.8-5-27.1-.9-1-2-2.6-2.4-3.6-.3-.9-1.1-1.7-1.7-1.7-.5 0-1-.5-1-1.1 0-2.6-5.1-11.5-7.1-12.4-1.3-.6-3-2.4-3.9-4-1-1.8-2.4-2.9-3.4-2.7-.9.2-1.6-.4-1.6-1.3 0-.8-.4-1.5-.9-1.5s-2.7-1.7-4.8-3.8c-2.2-2-5.7-4.6-7.9-5.7-2.1-1.1-5-3.2-6.4-4.7-3.3-3.5-5.9-4.4-14.7-5.3-6-.6-7.4-1.1-8.7-3.1-2.4-3.5-4.4-4.2-16.8-6.1-8.9-1.3-20-1.7-52.5-1.8-45.3-.2-43.3.1-46.1-6.5-.7-1.9-2.2-4.4-3.1-5.5-2.7-3-5-9.7-6.1-17.5-1.4-9.7-5.3-21-8-23-.4-.3-1.9-4.2-3.4-8.8-1.6-4.6-3.5-8.6-4.5-9.2-1-.5-2.3-2.8-3-5.2-2.1-6.8-6.1-14-8.2-14.5-1-.3-2-1.2-2-1.9-.1-.8-.2-1.7-.3-2.2-1.8-6.8-3.3-9.8-7.1-14-2.5-2.7-4.5-5.5-4.5-6.2 0-2.6-3.5-7-5.6-7-1.8 0-2.4-.9-3.5-6.1-1-4.7-1.9-6.3-3.6-7-1.2-.4-2.8-2.1-3.5-3.6-.9-1.7-2-2.7-3.1-2.5-1 .2-1.7-.3-1.7-1.2 0-2.4-3.3-8.6-4.5-8.6-2.2 0-6.6-5.6-5.9-7.5.6-1.4.4-1.7-.9-1.2-1 .4-2.1-.1-2.9-1.2-.7-1-2.2-2-3.3-2.2-1.2-.3-2.1-1.4-2.3-2.7-.2-1.2-.8-2.2-1.3-2.2s-.9-.9-.9-2c0-1.2-.7-2-1.8-2-2.9 0-6.2-2.9-6.2-5.6 0-1.7-.6-2.4-1.8-2.4-1.1 0-2.7-.9-3.6-1.9-1-1.1-2.4-1.7-3.1-1.5-.9.4-1.5-.8-2-3.5-.6-3.5-1-4.1-3.1-4.1-1.4 0-2.7-.7-3-1.5-.4-.9-1.1-1.5-1.8-1.4-2.6.3-3.4-.2-4.6-3-.8-2-2.1-3.2-4-3.6-1.6-.3-3.4-1.3-4.1-2.1-.7-.8-2.7-2.1-4.6-2.9-1.8-.8-3.8-2.5-4.4-3.9-.9-1.9-2.4-2.8-6.5-3.7-3.8-.9-5.4-1.7-5.4-2.8 0-.9-1.6-2.5-3.6-3.6-1.9-1-4.5-2.7-5.6-3.7-1.2-1-3-1.8-4-1.8-2.6 0-7.4-2.6-8.1-4.3-.3-.8-3.4-2.2-6.9-3.1-3.6-1-7.3-2.8-8.6-4.2-1.3-1.3-2.8-2.4-3.5-2.4-.7 0-3.4-1.2-6.2-2.6-2.7-1.4-7-2.8-9.4-3.1-2.3-.3-5.1-1.4-6-2.4-2.3-2.5-9.4-4.9-16.6-5.5-3.3-.3-8.7-1.4-12-2.4-10.4-3.3-36.5-8.1-48.5-9.1-6.3-.5-17-.9-23.8-.9-6.7 0-22.4-.9-35-2-12.5-1.1-27.2-2.4-32.7-2.9-14.5-1.2-41.3-.7-45.1.9-2.7 1.2-3.6 1.1-8.1-1-9.2-4.1-12-11.6-5.9-15 1.7-.9 3.9-3.2 5-5.2 1.2-2 4.9-6.7 8.3-10.5 3.5-3.7 8.1-9.2 10.3-12.2 2.2-2.9 5.1-6.2 6.5-7.3 1.4-1.1 2.5-2.6 2.5-3.4 0-.8.5-1.4 1-1.4.6 0 1.4-1 1.9-2.3.5-1.2 1.5-3.6 2.2-5.3.7-1.7 2.2-3.5 3.3-4 1.2-.5 3.1-3.7 4.8-7.9 1.6-3.9 4-7.9 5.3-9.1 1.3-1.1 3.5-5.2 4.9-9 1.4-3.8 3-7 3.6-7.2.5-.2 1-1 1-1.7 0-.8.6-1.8 1.3-2.2 1.3-.8 4.7-7.3 4.7-9 0-.8 4.9-8.6 6.9-10.9.5-.6 1.9-4.5 3.1-8.5 1.2-4.1 4-11.8 6.2-17.3 2.2-5.4 4.4-12.8 4.9-16.3.8-5.8 3.1-12 4.8-13.3 1.8-1.4 4-8.2 4.5-14.5.6-6.2 1.2-9.4 3.2-14.5.7-2 7.7-6.4 12.9-8.1 3-1 12.4-1.4 37-1.4 24.5-.1 37.3-.6 49.6-2l16.7-1.8 2.3-4.1c1.3-2.2 3.9-6.3 5.8-9 4.6-6.4 5.9-11.9 5-20.6-.7-5.9-1.4-7.7-4.8-12.3-2.2-3-4.3-6.7-4.7-8.1-.4-1.6-1.5-2.8-2.8-3-1.1-.3-4-.8-6.4-1.3-2.4-.4-4.3-1.2-4.2-1.8.1-.5-1.2-1.3-2.7-1.7-1.5-.4-5.9-1.8-9.8-3.2l-7-2.6-36.8.5c-33.6.5-37 .4-39.5-1.2-3.9-2.5-4.2-3.1-4.2-10.4 0-3.6-.7-8.8-1.5-11.5-.8-2.7-1.5-6.1-1.5-7.6s-.4-2.9-.9-3.3c-.6-.3-1-1.3-1-2.3-.2-4.2-2.1-16.5-4-25.2-3.7-17.4-4.3-19.5-6.7-22.3-1.3-1.6-2.5-3.8-2.6-5 0-1.2-.2-2.7-.3-3.2-.1-.6-.5-4.6-1-9-.8-7.9-1.6-10.7-6-20-1.3-2.8-3.5-8.9-4.9-13.7-1.5-4.8-3.5-9.6-4.5-10.5-2-2-6.6-10.5-7.6-14.1-.3-1.2-1.2-2.2-1.9-2.2s-2.8-3-4.6-6.8c-1.9-3.7-3.9-7.2-4.6-7.7-2.1-1.8-8-10.9-8.7-13.5-.3-1.4-1.9-4-3.4-5.9-1.5-1.8-5.1-7.8-8-13.4-4.7-9.3-5.1-10.5-4.7-15.8.2-3.2 1.2-8.4 2.3-11.6 5.7-16.8 6.5-25.7 6.3-67.3-.2-33.5-.5-38.5-2.7-48.2-.7-3.1-1.1-5.9-.8-6.2.3-.2-.4-1.7-1.6-3.3-1.9-2.6-2.5-5.8-6.2-30.8-1.6-11.1-2.1-13.5-2.9-13.5-1.1 0-5-8.1-5-10.3 0-.9-.4-1.8-.9-2.1-.5-.3-1.2-1.8-1.5-3.3-1-4.1-4.6-11.3-5.7-11.3-.5 0-.9-.9-.9-1.9 0-1.1-.4-2.2-.9-2.5-.5-.4-1.2-2.5-1.6-4.9-1.3-8.3-3.7-14.7-7.2-19-1.3-1.6-2.8-4.9-3.4-7.3-.6-2.4-1.5-4.4-2-4.4s-1.4-1.1-1.9-2.5-1.6-2.5-2.5-2.5c-1 0-1.5-1-1.5-2.8 0-3.2-4.5-14.9-6.6-17.3-.8-.8-1.4-2.1-1.4-2.7 0-.7-.6-1.2-1.3-1.2-.6 0-2.3-2-3.5-4.4-1.5-2.7-3.3-4.7-4.7-5-2.4-.6-6.5-6.5-6.5-9.5 0-.9-1-2.7-2.2-3.8-1.3-1.1-4.2-4.1-6.5-6.7-6.6-7.3-10.1-9.8-15.1-10.9-6.6-1.3-23-1.1-24.7.3-.8.7-2.2 1-3 .6-2.2-.8-12.6 5.6-14.8 9.1-.4.7-1.7 1.3-2.8 1.3-2.9 0-8.9 3-8.9 4.4 0 1.4-4.6 5.7-5.3 5-.3-.3-3.3 1.7-6.8 4.3-8.6 6.4-10.9 7.9-14.1 8.7-1.6.3-2.8 1.2-2.8 1.9 0 1.3-3.5 4.7-4.8 4.7-.4 0-1.3.9-1.9 1.9-.7 1.1-2.3 2.1-3.5 2.3-1.3.2-2.7 1.2-3.2 2.4-.5 1.1-2.3 2.6-4 3.4-5.7 2.4-12.2 7-13.6 9.5-.8 1.4-3.2 3.4-5.4 4.4-2.3 1-5.7 3.5-7.5 5.5-1.9 2-3.9 3.6-4.3 3.6-.5 0-3.1 2.2-5.9 5-2.7 2.7-6.3 5.7-7.9 6.5-1.7.9-3 2.4-3 3.4 0 1.2-1 2.1-2.5 2.5-1.4.4-2.5 1.1-2.5 1.6 0 .6-.6 1-1.2 1-.7.1-2.2.8-3.3 1.8-2.7 2.3-11.5 13.2-11.5 14.2 0 .5-1.6 1.8-3.5 3s-3.5 2.8-3.5 3.6c0 .8-.6 1.4-1.4 1.4-.8 0-1.6.7-2 1.5-.3.8-1.2 1.5-2.1 1.5-.8 0-1.5.4-1.5.9 0 .4-2.4 1.3-5.2 1.8-7.4 1.5-18.2 0-22.2-3-3.6-2.7-13.2-5.8-26.5-8.7-5.2-1.1-9.8-2.4-10.1-3-1.7-2.8-8.3-4.1-27.5-5.5-4.9-.4-9.7-1.4-12.3-2.7-4.5-2.1-23.2-5-27.5-4.2-1.4.2-2.8 0-3.2-.6-.3-.5-1.9-.7-3.5-.3-1.7.3-3 .1-3-.4 0-1-12.7-1.6-34.5-1.6-16-.1-23.3.4-33.3 2.3-3.4.6-6.6.9-7 .6-1.1-.7-20.4 2.9-28.2 5.2-3.6 1-9.2 2-12.5 2.1-9.5.3-18.4 2-22.9 4.3-2.2 1.1-8.3 3.1-13.5 4.4-5.2 1.3-13.3 4.3-18 6.6-7.8 3.9-9.4 4.3-17.4 4.7-14.7.5-17.3-.2-23.7-6.7-4.6-4.7-11.5-11.4-18.8-18.5-3.3-3.1-5.1-4.5-7.9-6.2-1.7-1-3.8-3.1-4.7-4.6-1-1.6-2.1-2.9-2.6-2.9s-3-2.3-5.6-5c-2.6-2.8-5.3-5-5.9-5-.7 0-2-.9-3-2s-2.5-2-3.2-2c-.8 0-5.4-3.9-10.2-8.8-12.2-12.1-19.1-18.2-20.6-18.2-3.4 0-11.5-6.9-11.5-9.9 0-.6-1.1-1.1-2.3-1.1-2.7 0-8.3-2.6-9.4-4.3-.5-.7-4.5-3.6-9-6.6-4.6-2.9-8.3-5.9-8.3-6.6 0-.7-2.6-2-5.7-3-3.4-1.1-7-3.1-9-5.2-4.2-4.2-8.3-5.9-16.2-6.8-3.5-.4-7.5-1.3-8.9-2.1-1.5-.8-2.9-1.4-3.2-1.3-.3 0-3.5.8-7.2 1.7zm31.5 124.1c3 .9 6.6 3 9.6 5.7 2.7 2.4 5.2 4.4 5.6 4.4.3 0 1.3.6 2 1.2.7.7 3.4 3.1 6 5.3 2.6 2.2 6.3 5.6 8.3 7.5 2 1.9 5.3 4.3 7.2 5.3 1.9 1 5.8 4 8.5 6.7 2.8 2.6 6.1 5 7.5 5.4 1.4.3 3.9 2.4 5.5 4.5 1.7 2.1 4.7 5.1 6.8 6.7 2 1.5 4.7 4.3 6 6.1 1.2 1.8 2.8 3.3 3.5 3.3.6 0 1.2.6 1.2 1.3 0 .7 1.6 2.6 3.5 4.2 1.9 1.7 3.5 3.6 3.5 4.2 0 .7.7 1.3 1.5 1.3s1.9.9 2.5 2c.5 1 3.9 4.9 7.5 8.6 3.6 3.7 9.5 10.1 13.3 14.3 11.4 12.6 20 21.1 21.6 21.1.8 0 1.8.4 2.1 1 1.3 2.1 6.2 1 9.6-2.1 1.9-1.6 5.7-4.1 8.6-5.5 2.9-1.3 5.6-3 6-3.8 1.3-2.3 9.8-6.5 16.5-8.2 7.9-2 9.9-3.1 9.2-4.8-.5-1.3 3.1-2.5 11.6-4.1 1.4-.3 3.4-.9 4.5-1.4 1.1-.5 4.7-1.9 8-3.1 3.3-1.2 6.5-2.6 7.1-3.1 1.5-1.2 4.2-1.9 12.4-3.1 6.4-.9 23-4.5 26-5.5 2.9-1.1 4.6-1.3 18-2.1 20.6-1.3 72.5-1.4 91-.2 10.5.7 20.3 2 26.8 3.6 5.7 1.3 11.2 2.4 12.3 2.4 1.1 0 8.6 2.2 16.7 4.9s18.4 5.9 23 7.1c4.6 1.2 8.9 2.8 9.6 3.5 1.8 1.9 6.4 4 12.8 6 3.2 1 6.3 2.4 6.9 3.1.6.8 1.6 1.4 2.2 1.4.6 0 2.3 1.1 3.7 2.5 1.4 1.4 4.9 3.3 7.8 4.3 2.8 1 6.2 3 7.6 4.4 1.5 1.4 4.8 3 8 3.8 5.4 1.3 5.7 1.2 9.3-1.3 4.5-3.1 11.2-10 13.9-14.2 1-1.6 2.8-3.9 3.9-5.1 1.1-1.2 3.1-3.3 4.4-4.8 1.3-1.4 2.8-2.6 3.5-2.6.6 0 2.5-2.3 4.1-5 1.7-2.7 3.9-5.3 5-5.6 3-.9 5.5-3.5 5.5-5.5 0-1 1.2-2.6 2.8-3.6 4.2-2.6 8.2-6.5 9.8-9.6.8-1.5 2.1-2.7 3-2.7.8 0 2-1.3 2.5-2.9.6-1.7 2-3.2 3.2-3.5 1.2-.3 4.6-2.8 7.6-5.6s6.9-5.8 8.5-6.7c1.7-.8 4.9-3.4 7.2-5.7 6.2-6.3 10.3-9.6 11.9-9.6.8 0 1.9-.8 2.4-1.8.5-.9 3.1-2.8 5.8-4.2 2.6-1.3 6.5-4.1 8.5-6.2 2.1-2.1 5-4.1 6.5-4.4 1.5-.4 4-2 5.5-3.5s5.2-3.5 8.2-4.4c4.6-1.5 6-1.5 9.2-.5 6.3 2.1 8.2 5.7 10.4 19.5.6 3.8 2 9.7 3.1 13 7.2 21.6 8.7 32.3 9.5 66.5.8 33-1.2 62.7-5.1 77.5-1.5 5.5-3 10.6-3.4 11.5-4.3 8.4 1.1 27.1 11.1 38.1 2.1 2.4 4.6 5.7 5.4 7.4.8 1.6 2.5 4.8 3.9 7 1.3 2.2 2.7 4.7 3.1 5.5.4.8 1.3 1.9 2.1 2.3.7.4 1.3 1.8 1.3 3.1s1.2 4.1 2.8 6.3c1.5 2.1 3.3 4.8 4 5.9 2.3 3.6 5.4 10.9 5.9 14.2.4 2.1 1.6 4.1 3.3 5.4 2.1 1.5 2.9 3.2 3.4 6.8.5 3.6 1.7 6.3 4.7 10 4.9 6.2 7.5 11.8 8.4 18.3.4 2.6 1.9 6.4 3.2 8.4 1.4 2 3.1 6.8 3.9 10.6.8 3.9 2.6 9.5 3.9 12.4 1.4 2.9 2.5 5.9 2.5 6.7 0 .7 1.1 4.4 2.3 8.2 1.3 3.8 2.5 9.4 2.5 12.4.1 3 .7 8 1.3 11 2.3 10.9-.6 25.1-5.3 26.6-.9.3-25.5.5-54.5.6-74.3.2-79.1.7-89.1 10.6-5 4.8-6.1 6.5-7.2 11.3-1.1 5-1 6.6.5 13 2.6 10.3 4.6 13.3 11.2 16.4 10.7 4.9 42.8 8.5 75.6 8.5 8.2 0 20.1.4 26.5 1 6.4.5 16.9 1.1 23.3 1.4 7.2.2 12.8.9 14.5 1.8 2.8 1.3 2.9 1.6 2.6 7.6-.2 3.5-.8 7.5-1.4 9-.6 1.5-1.2 3.4-1.4 4.2-.2.8-.7 2.3-1.2 3.5-.5 1.1-1.5 4-2.1 6.5-3.4 12.7-4.4 15.6-5.7 17.1-2.3 2.6-15 3.9-18.8 2-1.1-.5-5.2-1.7-9.1-2.5-3.8-.8-10.5-2.4-14.9-3.6-4.3-1.2-11.5-2.5-16-2.9-7-.7-25-5.4-31.1-8.1-5.7-2.5-11-3.3-22.9-3.4-17.9-.1-21.9.7-26.5 5.2-2 2.1-4.9 4.7-6.5 5.8-2.8 2.1-3 2.6-3.4 11.2-.5 10.7.7 15.1 4.8 17.5 1.7 1 3 2.1 3 2.5 0 1.4 6.7 8.2 8.1 8.2.8 0 3.4 1.1 5.9 2.4 2.5 1.3 7.7 3.3 11.5 4.5 3.9 1.3 8.4 2.9 10.2 3.7 1.7.8 5 1.4 7.3 1.4s6.6 1.1 9.8 2.6c7.3 3.4 10 4.2 19.2 5.8 14.3 2.6 31 10.3 32.3 14.9.5 1.8-8.5 14.8-12.9 18.9-1.1.9-4 3.8-6.6 6.5-2.7 2.6-7 7-9.8 9.7-2.7 2.7-5 5.2-5 5.6 0 .4-1.6 1.8-3.5 3.1s-3.5 2.7-3.5 3.1c0 2.4-32.3 31.8-34.9 31.8-.5 0-2.1 1.3-3.4 3-1.4 1.6-2.8 3-3.2 3-.3 0-3.1 1.9-6.3 4.2-8.3 6.2-15.4 10.8-16.9 10.8-.7 0-2.7 1.3-4.5 2.9-1.8 1.6-6.2 4.1-9.8 5.5-10.3 4.3-13.4 5.8-15.1 7.2-.8.7-5.1 2.5-9.5 3.9-4.3 1.5-9.2 3.2-10.9 4-8.6 3.8-12.6 5.3-17.5 6.5-5.9 1.4-10 3.2-12.2 5.3-.7.8-4.6 2.1-8.5 3-9.2 2.1-14.3 4.2-14.3 6 0 1.9 11.2 5.5 20.9 6.8 10.6 1.4 10.5 1.4 20.6 4.3 12.1 3.5 22.8 6.9 24 7.7.6.3 5 2.1 9.9 3.9 5.2 1.9 11.2 5 14.5 7.5 3.1 2.3 7.2 5 9.1 6 1.9 1 5.4 3.4 7.6 5.4 2.3 2 7.6 6.5 11.8 10 4.2 3.6 7.6 6.8 7.6 7.3 0 .4.7.8 1.5.8s1.5.3 1.5.7c0 1.4 11.7 14.3 12.9 14.3.4 0 2.4 2.7 4.4 5.9 2.1 3.2 4.7 6.7 5.8 7.6 1 1 1.9 2.3 1.9 2.9 0 .6 1.2 2.6 2.8 4.3 6.6 7.5 9 11.1 10.7 15.8 1 2.7 2.8 6 4.1 7.2 1.3 1.2 2.4 2.9 2.4 3.7 0 2.4 3.1 9.6 4.1 9.6.5 0 .9.5.9 1.2s1.1 2.4 2.6 3.9c1.4 1.4 3.7 5.9 5.1 10 1.4 4 3.6 8.5 5 10 1.4 1.4 3.6 5.7 4.9 9.5 1.4 3.8 3.9 9.3 5.7 12.4 1.9 3.3 3.8 8.3 4.6 12.5.8 3.8 1.8 7.6 2.4 8.2.5.7.6 1.3.2 1.3-.4 0-.3.6.3 1.3.6.7 1.8 3.8 2.6 6.8s2.3 8.3 3.4 11.9c2.6 8.1 6.6 21.7 8.7 29.1.8 3 2.2 9.4 2.9 14.1 1 5.7 2.4 10.2 4.5 14 3.6 6.3 6.1 17.1 9.6 41.3.1 1.1 1.2 6.3 2.4 11.6 2.2 10.5 3.8 28.9 4.4 52.3.3 11.1.8 15 1.8 15.6 2.2 1.4 1.9 88.7-.4 108-1 8-2.3 21.2-2.8 29.5-.7 9.3-1.8 17.1-2.9 20.5-1 3-2.5 9.5-3.4 14.5-2.9 16-6.9 30.8-8.8 32.7-2.6 2.6-3.4 5-4.8 15.3-.7 4.9-1.5 9.2-1.9 9.5-3.1 2.5-5.8 10-9.5 26.3-.8 3.2-2.3 6.8-3.5 8.1-2.1 2.3-6.3 12.9-6 15.6.3 3.1-.2 4.1-2.7 6.3-1.4 1.2-3.5 4.2-4.7 6.6-1.1 2.4-3.6 6-5.6 7.9-1.9 2-4.3 5.8-5.2 8.4-1.6 4.8-4.3 8.8-7.2 10.4-1.4.9-6.7 11.1-6.7 13.1 0 .6-1.1 1.8-2.5 2.7-1.4.9-2.5 2.3-2.5 3 0 .7-1 2.6-2.2 4.1-2.4 3.1-5 7.5-7 11.7-.7 1.6-1.8 2.8-2.4 2.8-.6 0-2 1.2-2.9 2.7-1 1.6-2.7 3.7-3.7 4.8-1 1.1-3.4 3.7-5.3 5.7-1.9 2.1-3.5 4.2-3.5 4.8 0 .5-.7 1-1.5 1-1.4 0-6.5 4.8-6.5 6.3 0 2.2-39.4 38.7-41.8 38.7-.8 0-3.9 2.2-12.8 9-3.6 2.7-14.6 12-18 15.1-3.3 2.9-12 5.5-13.7 4-2.9-2.3-2.5-19.3.4-21.1 1.4-.9 5.8-13.8 6.4-18.9 1.1-8.1 2.7-14.5 4.4-17.1 2.4-3.6 3.9-8.5 5.1-16.5 1.1-7.6 1.6-10.7 2.4-13.3.3-.9.8-2.8 1-4.2.3-1.4 1.9-6.6 3.6-11.5 2.2-6.2 3.4-12.4 4.1-20 .7-7.6 1.5-11.9 2.9-14.2 1.1-1.8 2.1-4.3 2.2-5.5.2-1.3.7-2.9 1.2-3.7.5-.7 1-3.5 1.2-6.1.5-7.2 5-24.9 7.9-30.8 1.7-3.6 3.1-9.1 4.1-16.5 1.5-10.8 2.4-13.2 7-20.3 1.1-1.8 2.6-6.1 3.3-9.6 2.5-12.6 3.4-16.3 4.6-18.8.7-1.4 2.2-6.6 3.4-11.5 1.1-5 2.8-12.2 3.7-16 1.7-7.2 3.6-16.7 5.4-26.5.5-3 1-8.4 1-12 0-5.4-.4-7-2.2-9-1.3-1.4-3.5-4.4-5-6.6-2.2-3.5-3.5-4.4-7.7-5.4-5.6-1.3-16.6-.5-21.6 1.6-5.9 2.4-10 9-16.3 26-3.3 8.8-6.5 18.8-7.1 22.3-.7 3.5-2.7 10.1-4.6 14.6-1.8 4.5-3.6 10.2-3.9 12.6-1.4 8.8-3 14.5-5.4 18.8-3.2 5.8-4 8.6-5.8 21.6-.8 6-2.2 11.7-2.9 12.5-.8.9-3.2 9-5.5 18-2.2 9.1-4.4 17.8-4.9 19.5-.5 1.6-1.3 4.8-1.7 7-.4 2.2-1.3 5.2-2 6.6-.7 1.4-2 7-2.9 12.4-.8 5.3-3.1 14.3-4.9 19.9-1.9 5.5-3.7 11.7-4 13.6-.3 1.9-1.2 5.3-1.9 7.6-.8 2.2-2 6.7-2.7 10-.6 3.2-2.2 7.5-3.5 9.4-1.8 2.7-2.6 5.9-3.5 13.5-.6 5.5-1.7 10.9-2.4 12-2.3 3.5-4.6 11.7-5.6 20.3-1.1 8.2-5.7 27.9-8 33.7-.6 1.6-1.1 3.2-1.1 3.5 0 .3-.4 2.1-.9 4-.6 1.9-1 5.3-1 7.5s-.4 5.6-.9 7.5c-.6 1.9-1.2 6.5-1.4 10.1-.3 3.7-.8 7.2-1.2 7.9-1 1.7-14.1 9.9-19.2 12.1-2.4 1-6.7 2.1-9.6 2.5-2.8.4-10.4 2.4-16.8 4.6-12.8 4.2-14.1 4.6-21.4 5.3-8.2.9-11.9 1.6-13.1 2.6-.6.5-2.5.4-4.5-.1-2.8-.8-3.8-1.9-5.7-6-2.3-5-2.3-5.7-1.7-23.8 1.2-34.2 1.6-394.3.4-398.7-3.5-13.2-10.5-28.1-13.8-29.2-2.4-.9-6.1-4-5.5-4.6.7-.6-3.8-3.7-9.6-6.5-4.5-2.1-19.1-4.2-30.2-4.2-6.3 0-22.3 4.8-24.9 7.4-1.1 1.2-3.3 3.4-5 5.1-1.7 1.6-4 4-5.1 5.2-3.8 4.1-8.8 20.6-9.7 32.3-.9 10.5-.7 125.6.5 299 .7 112 .8 113.5 2.5 115.7 1.1 1.2 1.1 1.7.2 2-.7.3-2.7 1.5-4.5 2.8-6.4 4.7-7.3 4.9-15.1 3.6-4-.6-12.7-2-19.5-3.1-6.8-1-12.9-2.3-13.5-2.8-.7-.5-5.7-1.9-11.2-3.1-19.7-4.3-29.4-8-33.9-12.7-2.3-2.5-3.1-4.7-5.4-15.4-.6-2.5-1.8-7-2.7-10-3.7-12.1-4.6-15.9-6-25.2-.8-5.4-1.5-10-1.5-10.2 0-.3-.6-1.1-1.3-1.8-1.5-1.6-5.4-16.1-6.3-23.8-.4-3-1.2-6.6-1.9-8-.7-1.4-1.6-4.8-2-7.5-.5-2.8-2.5-10.4-4.7-17-2.1-6.6-4.4-14.3-5-17-.6-2.8-2.3-7.7-3.9-11.1-1.6-3.4-2.9-7.3-2.9-8.8 0-2.8-4.3-20.4-5.9-24.1-3.1-7.3-4.2-10.8-5.1-16.9-1.8-11.4-3.8-19.8-6.3-26.6-1.4-3.6-3-10.3-3.5-15-1.1-8.8-5.7-25-7.1-25-.8 0-2-4.9-4.1-16.2-.6-3.1-1.8-6.2-2.6-6.9-1.8-1.5-5.7-8.9-5.1-9.5.2-.3-.4-3.7-1.5-7.7s-2.3-8.6-2.7-10.2c-.5-1.7-2-5.9-3.4-9.5-1.4-3.6-3.3-10.8-4.2-16-2.4-13.8-8.1-30.2-12.7-36.2-1.6-2.2-11.7-4.9-18.3-4.9-6.1 0-12.2 1.3-15.2 3.2-3.5 2.1-6.6 10.4-6.8 17.9-.3 13.1 5.6 46.1 10.5 58.5.4 1.1 1.3 5.1 1.9 9 1.4 8.2 4.2 18.7 8.3 30.5 1.6 4.7 3.1 9.6 3.3 11 .8 5.1 4.6 18.6 7 24.6 1.4 3.4 2.5 7.8 2.5 9.7 0 1.9.9 5.2 1.9 7.4 1 2.1 2.4 5.6 2.9 7.8.6 2.2 1.8 6.2 2.7 9 .9 2.7 2.5 8.6 3.5 13s2.5 10.5 3.4 13.5c.8 3 2.7 9.8 4.1 15 1.4 5.2 2.8 10.4 3 11.5.1 1.1 1.5 5.6 2.9 10 3.5 10.5 5.3 17.8 6.1 24.5.8 6.2 2.9 12.2 5.7 16.2 1 1.5 2.6 5.7 3.4 9.5 2.8 11.9 4.7 17.7 6.4 19.8 1 1.1 2.1 4.4 2.4 7.4.6 4.8.5 5.5-1.5 6.9-1.1.8-4.7 1.6-7.8 1.9-5.6.4-5.8.3-10.7-4.1-2.7-2.5-5.4-4.6-6.1-4.6-.7 0-3.8-2.2-7-4.8-3.2-2.6-7.4-5.8-9.3-7-1.9-1.2-5-3.7-6.9-5.7-1.9-2-4.9-4.2-6.6-5.1-1.7-.8-4.5-2.7-6.3-4.3-1.7-1.6-3.9-3.1-4.9-3.3-1-.2-2.3-1.4-2.9-2.7-1.6-3.1-8.5-10.1-10.1-10.1-.7 0-2.3-1.6-3.5-3.4-1.3-1.9-3.1-3.7-4-4-1-.2-1.8-1.2-1.8-2.3-.1-2.2-5.5-8.2-9.2-10.2-1.5-.7-3.2-2.6-3.8-4.1-.7-1.6-2.2-3.1-3.5-3.4-1.3-.3-3.2-2.2-4.4-4.1-1.1-1.9-2.5-3.5-3.1-3.5-.5 0-1-.9-1-2s-.5-2-1-2c-.6 0-1.3-.8-1.7-1.8-.3-.9-2.1-3.6-4-5.9-1.8-2.3-3.3-4.6-3.3-5.1 0-.8-2.4-3.9-6.5-8.3-.8-.9-1.5-2.1-1.5-2.7 0-.7-.4-1.2-.9-1.2s-1.4-1.4-2.1-3c-.7-1.7-1.6-3-2-3-.5 0-2.2-2.8-3.8-6.2-1.7-3.5-3.7-7.2-4.6-8.3-3.1-3.9-6.4-9.3-7.1-11.6-.4-1.3-1.6-3.6-2.6-5.1-1.1-1.4-1.9-3-1.9-3.5 0-.4-.9-1.4-2-2.1-1.2-.7-2-2.3-2-4 0-1.5-.7-3.7-1.5-4.9-.8-1.1-1.7-3.9-2.1-6.2-.4-2.2-1-3.8-1.4-3.6-.9.6-4-5-4-7 0-1.5-4.1-14.2-7-21.5-1.2-3-2.4-6.4-2.7-7.5-.3-1.1-1.6-4.4-2.9-7.3-1.3-2.9-2.4-6.4-2.4-7.8 0-1.3-.7-2.7-1.5-3-.8-.4-1.5-1.9-1.5-3.4 0-1.6-.4-3.1-.9-3.4-.4-.3-1.3-3.4-2-6.8-1.1-5.6-2-10.2-3.7-17.7-.2-1.3-1.4-4.1-2.4-6.2-1.1-2.1-2.7-8.7-3.5-14.6-3.9-28.1-4.8-33.3-6.6-40.3-1-4.2-2.1-11.2-2.3-15.5-.3-4.4-.9-12.5-1.3-18-1.5-19.1-.7-85.2 1.2-101 .2-1.7.9-8.4 1.5-15s1.6-14 2.1-16.5c1-4.5 1.3-6.2 2.4-13.4.3-2.1.7-4.1.9-4.5.3-.4.7-3.4 1.1-6.6 1.1-10.6 4.9-29.6 6.6-32.6.5-1 1.6-6.1 2.4-11.4 1.4-9.4 3.1-16.7 6.1-25.5 2.7-7.7 6.4-22.4 6.4-25.1 0-1.4.4-2.9.8-3.5.5-.5 1.4-3.4 2.1-6.4.7-3 1.9-6.4 2.6-7.5.7-1.1 1.6-3.6 1.9-5.5 1.3-6.1 5.5-18.7 7.5-22.2 1-1.8 2.9-6.7 4.1-10.8 1.3-4.1 2.6-7.7 2.9-8 1-.8 5.7-11 8.2-17.5 1.3-3.3 3.6-8 5.1-10.5 1.6-2.5 3.4-6.4 4-8.8.6-2.3 1.4-4.2 1.9-4.2.4 0 1-.9 1.4-1.9.3-1.1 1.6-3.5 2.9-5.4 1.3-1.9 3.1-5.7 4.1-8.6.9-2.9 2.6-5.7 3.7-6.4 1.8-1.1 5.8-8.4 5.8-10.6 0-.5.6-1.4 1.3-1.8 2-1.2 7.2-8.4 9.6-13 1.1-2.3 3-4.7 4.1-5.3 1.1-.6 3.4-4.1 5.2-7.8 1.8-3.7 5.2-8.6 7.5-10.8 2.4-2.3 4.3-4.5 4.3-4.9 0-.3 1.8-2.8 4-5.4 2.2-2.6 4-5.3 4-5.9 0-.7.4-1.2.8-1.2.5 0 1.8-1.7 3-3.8 1.2-2 4.4-5.8 7.1-8.4 2.7-2.7 5.9-6 7.1-7.5 1.2-1.6 3.8-4.6 5.8-6.8 2.1-2.2 5.7-6.3 8-9.2 2.4-2.9 5.1-5.4 6.1-5.8.9-.3 3-2.5 4.5-5 1.6-2.5 3.2-4.5 3.6-4.5 1.4 0 9-7.2 8.4-8.1-.3-.5 0-.9.6-.9.7 0 1-.6.7-1.4-.3-.7.4-2.1 1.5-3 2.2-1.9 2.1-4.5-.2-5.7-3.7-2-10.5-4.9-11.6-4.9-.6 0-1.5-.7-1.8-1.6-.3-.8-2.7-2.4-5.3-3.6-5-2.2-11.1-6-20.3-12.7-3-2.2-8-5.7-11-7.7-3-2.1-6.8-5.1-8.5-6.7-1.6-1.6-4.8-4.1-7-5.5-2.2-1.3-6.2-4.7-8.9-7.3-2.7-2.7-5.6-4.9-6.6-4.9-.9 0-3-1.6-4.7-3.5-1.7-1.9-3.5-3.5-4-3.5-.4-.1-2.8-2.7-5.3-6s-5.3-5.9-6.3-6c-1 0-2.6-1.5-3.5-3.3-2-3.8-12.7-14.7-14.4-14.7-.6 0-.9-.3-.6-.6.4-.3-1.1-2.2-3.3-4.2-2.1-2-3.9-4.3-3.9-4.9 0-.7-1.7-2.4-3.8-3.8-2.2-1.4-4.5-3.8-5.3-5.2-.8-1.5-2.6-4-4.1-5.7-1.6-1.7-2.8-3.4-2.8-3.9 0-.4 1.6-2.4 3.5-4.5 2-2 4.3-4.5 5.2-5.4 2-2.2 11.9-5.2 25.8-7.9 6.1-1.2 11.6-2.6 12.3-3.1.6-.6 1.2-.8 1.2-.5 0 .3 2.6-.1 5.8-.8 3.2-.8 10-2.3 15.2-3.4 5.2-1 12.4-3.1 16-4.6 3.6-1.5 7.4-3.1 8.5-3.5 6.9-2.8 9.6-4.4 11.4-6.9 1.2-1.6 2.1-3.1 2.1-3.4 0-.2 2-2.4 4.3-4.8 3.6-3.6 4.5-5.3 5.1-9.4.5-4.1.3-5.5-1.4-7.7-1.1-1.5-2-3.3-2-4 0-.8-1.3-2.9-3-4.8-1.6-1.9-4.2-5-5.7-6.8-6.6-7.7-29-6.8-59.8 2.3-4.9 1.5-9.9 2.9-11 3-1.1.2-5.6.9-10 1.5-8.9 1.3-15 2.4-24 4.5-3.3.8-8.9 2.1-12.5 2.9-14.2 3.3-24.3 1.4-26.8-5.2-1.2-2.9-6.9-24.2-8.3-30.7-.8-4.2.2-9.9 2.4-12.5 2.9-3.5 5.1-3.7 35.1-3.9 16.4-.1 30.1-.3 30.5-.5.3-.2 7.4-.7 15.6-1.1 30-1.4 59.9-4.8 66.2-7.5 1.3-.5 3.7-3.9 5.9-8.2 3.4-6.7 3.6-7.7 3.1-13.8-.2-3.6-1.2-7.9-2.1-9.5-.9-1.7-1.6-3.5-1.6-4.2 0-1.7-8.9-9.2-13.5-11.3-2.2-1-5.8-2.1-8-2.4-2.2-.4-32.1-.9-66.4-1.1-69.6-.6-66-.2-70.9-7.6-2.1-3-2.3-4.3-1.9-10.9.5-10 4.6-30.6 9.8-49.4.6-2.2 1.2-4.7 1.4-5.8.5-2.6 6.5-20 7.6-22 .5-1 .9-2.7.9-3.8 0-2.2 3.9-10.2 5.3-10.8.4-.2.7-1 .7-1.8s.3-1.4.8-1.4c.4 0 2-3.7 3.6-8.3 1.6-4.6 3.9-9.1 5.1-10.2 1.3-1.1 3.2-4.5 4.2-7.5s3.1-7.1 4.6-9.1c1.5-2 3.4-5.7 4.3-8.2.8-2.4 3-6 4.9-7.8 1.8-1.9 4.5-6.3 5.9-9.9 1.5-3.6 3.2-7 3.9-7.5.8-.6 2.6-3.1 4.1-5.8 1.5-2.6 3.2-4.7 3.7-4.7s.9-1 .9-2.3c0-2.9 1.1-4.4 3.4-4.8 1.9-.4 4.1-3.9 7.6-12.2 2.3-5.2 2.4-3.9-2-26.7-.5-2.5-.9-7-1-10 0-3-1-9.1-2.1-13.5-5.3-20.2-5.9-24.4-5.9-42.5.1-12.8.6-20.5 2-28.5 2.7-15.1 4.7-27.5 5.9-37.2 1-7.6 2.1-11.5 7.6-26.8 7.5-20.9 7.6-21 14.1-21 2.7.1 7.1.7 9.7 1.4zm-111.8 805.7c3.4 1.6 5.3 4.3 3.7 5.3-.5.3-1.7 3.1-2.7 6.1-1.1 3-2.9 6.4-4.1 7.5-2.6 2.3-8.4 13.2-8.4 15.6 0 .9-1.6 2.9-3.5 4.3-2 1.6-3.5 3.6-3.5 4.8 0 1.1-1.1 4.1-2.5 6.7-2.5 4.7-7.1 14.9-9.5 21.1-.8 1.9-2.2 4.6-3.1 6-1 1.4-2.6 5.4-3.7 9-5.8 18.9-7.8 24.6-9.2 26-2.5 2.6-3.8 6.2-5 13.7-.8 5-1.6 7.3-2.6 7.3-1.9 0-3.3 3-3.8 8.6-.2 2.7-1.2 7.6-2.1 10.9-1 3.3-2.5 9.1-3.5 13-1 3.8-3 11-4.3 16-1.3 4.9-3 13.7-3.6 19.5-.6 5.8-1.8 13-2.7 16-3.2 11.4-4.3 17.4-3.3 18.7 1.5 1.7-.6 5-4.4 6.9-1.8.9-3.5 2.1-3.8 2.5-.6 1-39.1 1.2-69.9.4-10.7-.3-29.8-.5-42.5-.5-12.6.1-28.8.1-36 .1-14.7 0-39.1 1.5-51 3-4.4.6-12.5 1.4-18 1.9-9.5.9-19.5 2.2-38.5 5.4-4.7.8-11.6 2.4-15.5 3.6-3.8 1.2-8.6 2.4-10.5 2.6-1.9.3-6.1 1-9.3 1.6-6.3 1.2-16.2-.3-17.1-2.7-.2-.7.7-3.4 2-6.1 1.3-2.7 3-8.2 3.8-12.1.7-4 2.1-8.5 3.1-9.9.9-1.4 2.2-4.7 3-7.2.7-2.6 1.8-6.3 2.5-8.2.7-1.9 1.5-4 1.7-4.5.2-.6 2.1-4.4 4.4-8.5 4.2-7.9 6.9-14.4 6.9-17.1 0-.9.7-2.2 1.6-3 2-1.6 7.2-11.8 9.5-18.4 1-2.7 2.4-5.4 3.1-6 1.5-1.1 5.8-12.1 5.8-14.8 0-.8.6-2.2 1.3-2.9 1.7-2 3.2-4.4 6.8-11.8 1.8-3.6 4.8-8.6 6.6-11.2 1.8-2.6 3.3-5.1 3.3-5.6 0-1.1 5.7-7.2 6.7-7.2s2.9-3 6-9.2c1.2-2.6 3.1-5.2 4.1-5.7 1.1-.6 2.6-2.5 3.5-4.3 2.1-4.4 7.6-10.8 9.4-10.8.7 0 1.7-.8 2-1.8 1.1-2.8 15.2-16.2 17.2-16.2 2.1 0 3.7-1.7 4.2-4.4.2-1 1.3-2.4 2.3-3 2.4-1.4 6.1-4.3 10-7.9 1.7-1.6 4.7-3.5 6.6-4.3 1.9-.8 4.9-2.8 6.5-4.3 1.7-1.6 4.5-3.4 6.3-4.2 1.7-.8 3.2-1.7 3.2-2.1 0-.3 1.5-.9 3.3-1.3 1.7-.3 5.5-1.7 8.2-2.9 6.7-3.1 9.8-4.2 17.5-6.1 3.6-.9 9.2-2.9 12.5-4.5 3.3-1.6 7.5-3.2 9.4-3.5 1.9-.3 3.7-.8 4.1-1 .7-.4 13.7-2.2 23-3.2 3-.3 8-1.3 10.9-2.3 3-.9 7.2-1.6 9.3-1.4 2.1.2 3.8 0 3.8-.4 0-1 3-1.1 42-1.7 19-.4 35.2-.8 36-.9.8-.2 14-.4 29.3-.5 23.5-.1 28.4.1 31.2 1.5zm957-.1c2.8.3 9.3.7 14.5 1 6.5.4 11.6 1.3 16 2.9 3.6 1.3 12.1 3.2 19 4.1 13.4 1.8 20.3 3.1 23.5 4.6 1.1.5 9.2 3.3 18 6.3 23.4 7.9 26.3 9.1 31.5 13.5 2.6 2.2 7.9 5.6 11.9 7.7 4.4 2.2 7.8 4.8 8.8 6.5 1 1.6 2.2 2.9 2.9 2.9 1.3 0 5.1 3.5 7.9 7.3 1.1 1.5 2.5 2.7 3 2.7 1.3 0 7.5 5.9 7.5 7.1 0 .5.6.9 1.3.9.6 0 2.8 1.9 4.7 4.1 1.9 2.3 5.9 6.6 8.8 9.6 2.8 3 5.2 6.1 5.2 6.8 0 .8 1.2 2.3 2.8 3.2 4.5 2.9 8.1 8.6 10.6 16.6.3.9 1.5 2.1 2.6 2.5 1.4.5 3.6 4 6.4 10.2 3 6.9 4.9 9.8 6.8 10.8 1.8.8 2.8 2.3 3.2 4.7.4 1.9 1.6 3.9 2.6 4.5 1.2.6 2 2.1 2 3.5 0 1.3.4 2.6.9 2.9.5.3 1.2 1.8 1.6 3.3.3 1.6 1.7 3.9 3 5.3 1.2 1.4 2.6 3.6 3 5 .4 1.4 1.8 4.1 3.1 6 1.2 1.9 2.5 5.5 2.9 7.9.4 2.4 1.8 5.9 3 7.7 1.3 1.9 3.3 5.6 4.5 8.2 1.2 2.6 2.6 5.5 3.1 6.5.5.9 1.9 4.3 3.1 7.5 1.1 3.1 2.6 6.4 3.3 7.2.7.8 1.9 4 2.6 7 .7 3 2.6 7.5 4.1 9.9 1.5 2.5 2.8 5.5 2.8 6.6 0 1.2.8 4.6 1.8 7.6 2.2 6.4 3.4 15 2.3 16.8-1.3 2.1-8.4 2.5-13.7.8-7.6-2.4-19.1-4.6-27.4-5.2-18.1-1.3-21.9-1.7-29.5-3-4.4-.7-12.7-1.4-18.5-1.5-5.8-.1-12.1-.3-14-.5-1.9-.1-10.9-.5-20-.9s-20.1-.9-24.5-1.2c-4.4-.3-34.3-.7-66.5-.9-41.9-.2-59.4-.6-61.5-1.5-1.6-.6-4.2-1.4-5.7-1.7-5-1-5.5-2.6-6.1-19.8-.7-17.2-2.1-25.4-6.7-39.8-2.4-7.6-5-21.8-5-27.4 0-.7-.5-1.2-1.2-1-.6.1-1.3-.7-1.5-1.8-.2-1.1-.8-2.9-1.3-4-1.7-3.7-8-23.5-8-25.1 0-.9-1.2-3.9-2.6-6.8-1.4-2.8-3.4-7.8-4.4-11.1-2.6-8.5-4.6-13.9-7.7-19.8-1.4-2.9-3.4-8-4.4-11.5-1-3.5-2.4-7.1-3-7.9-.7-.8-2.9-6.3-4.9-12.2-2.1-6.2-5-12.5-6.7-14.7-1.7-2.1-4.1-6.6-5.3-10-1.2-3.4-3.8-7.9-5.9-10.2-3-3.2-4-5.3-4.9-10.5-1.4-7.3-.9-9.5 2.2-10.7 2.2-.9 83.5-.5 92.1.5zm-1077 339c17 .3 24.1.8 25.4 1.7 3.7 2.7 4 6.4 4.2 60.1.2 51.8.5 61.1 1.8 60.3.4-.3.7 1 .8 2.8.1 3.3 2.4 18.6 4.8 31.6.8 4.1 1.7 10.6 2 14.4.3 3.8.8 7.3 1 7.6.2.4.7 2.9 1 5.6 1.2 9.8 1.8 13 4.1 20.6 1.2 4.3 2.8 11.4 3.5 15.8.6 4.4 1.5 8.3 2 8.6.5.3.9 1.3.9 2.2 0 .9.6 2.8 1.3 4.3 2 3.7 6.7 17.6 6.7 19.7 0 .9 2 5.8 4.5 10.7 2.5 5 4.5 9.8 4.5 10.7 0 3.3 4 12.3 7.7 17.3 2.1 2.8 3.8 6.5 4 8.4.4 3.8 2.1 7.6 6.2 14.2 1.6 2.5 3.2 5.7 3.6 7 .4 1.3 1.9 4.6 3.2 7.4 1.4 2.7 2.6 5.9 2.7 7 .2 2.1-2.6 5.2-5.9 6.5-1.1.4-36 .8-77.5.8h-75.5l-8.5 2.6c-4.7 1.4-12.3 3.7-17 5-16 4.4-20.5 6-24.2 8.3-2.1 1.3-4.8 2.3-6 2.3-2.7 0-13.8 3.8-15.8 5.5-1.8 1.4-5.5 2.8-13.5 5-3.3.9-7.1 2.5-8.5 3.5-1.4 1-6.3 3.7-11 6-11.1 5.6-11 5.5-9.9 9.2.7 2.5.5 3.4-.9 4.4-.9.7-1.4 1.6-1 2 2.8 2.7 16.9 3 158.7 3.2 99.5.1 146.3.4 148.5 1.2 3.6 1.2 21.3 19 18.9 19-.4 0 .8 1.5 2.5 3.3l3.2 3.3-2.1 2.5c-1.1 1.3-2.5 3.1-2.9 3.9-.8 1.3-19.7 1.5-159.7 1.7-87.3.1-208.4.4-269.1.7-72.3.3-111.6.1-114-.6-2.1-.6-5.3-2.7-7.4-5-3.2-3.3-3.8-4.7-3.9-8.6-.1-2.6-.1-5.1 0-5.5.1-.5.4-33.3.7-73 .3-39.7.7-82.8.9-95.7.2-12.9.4-29 .5-35.8 0-6.7.5-13.3 1-14.7.5-1.3 1.2-5 1.5-8.2.3-3.2.7-6.7.9-7.8.3-1.7.7-4.3 2.2-15 .3-2.2 5.2-14.4 6.4-16 .8-1.1 2.1-5.8 2.6-9.3.3-2.6 4.2-9.5 7.3-13.1 1.2-1.3 2.6-4.1 3.1-6.1s2.4-4.9 4-6.4c1.7-1.5 3.5-3.7 4.1-4.9 2.1-4.6 3.8-7.1 7.1-10.1 1.8-1.7 4.3-4.9 5.4-7.1 1.2-2.2 3.3-4.6 4.7-5.3 1.4-.6 3.9-3.4 5.7-6.2 1.7-2.7 3.9-5.2 4.8-5.5 2.4-.7 7.2-5 7.2-6.4 0-.6.6-1.1 1.3-1.1.6 0 3.5-2 6.2-4.5 2.8-2.4 5.3-4.5 5.7-4.5.3 0 3.3-2.7 6.7-5.9 3.6-3.7 7.4-6.4 9.5-7 2-.5 5.4-2.3 7.5-4 2.1-1.7 4.3-3.1 4.9-3.1.5 0 2-.8 3.3-1.9 1.3-1 5-2.4 8.3-3.1 3.9-.8 6.8-2.1 8.8-4 1.6-1.6 4.4-3.2 6.1-3.6 1.7-.3 3.8-1 4.7-1.4.8-.5 4-1.8 7-3s7.8-3.3 10.5-4.6c2.8-1.3 8.4-3 12.5-3.9 8-1.7 9.5-2.1 20.6-5.9 8.8-3 16.6-4.5 26.9-5.2 4.4-.2 17-1.1 28-1.9 26.3-1.8 55.1-2.7 92.5-2.6 16.8 0 32.3-.4 34.5-.8 2.2-.5 4.8-.7 5.7-.4 1 .2 12.4.6 25.3.8zm1147.5 2c47.7.5 63.7 1 85 2.5 7.4.5 18.4 1.2 24.5 1.6 6 .3 11.2.7 11.5.9.3.2 4.6.9 9.6 1.6 4.9.6 12.7 2.4 17.4 3.9 4.7 1.5 12 3.7 16.2 4.9 4.2 1.1 12.4 4.3 18.3 7.1 5.8 2.7 10.9 5 11.4 5 1.3 0 7 3.1 7.7 4.2.4.6 3 2.1 5.8 3.4 2.8 1.4 7.1 3.5 9.6 4.9 2.5 1.3 5.1 2.5 5.8 2.5.6 0 1.2.6 1.2 1.4 0 .8 1.4 1.7 3.1 2.1 2 .5 3.8 1.8 5.1 4.1 1.4 2.3 2.7 3.4 4.3 3.4 1.3 0 2.7.4 3 1 .3.5 1.5 1 2.6 1 1 0 1.9.4 1.9.9 0 1.3 6 7 10.3 9.8 4.4 2.8 28 26.3 34 33.8 2.1 2.7 4.5 5.4 5.3 5.8.8.4 2.1 2.2 3 3.8.8 1.7 3.1 5.1 5 7.6 1.9 2.4 3.4 5.1 3.4 5.8 0 1.7 3.2 8.8 4.3 9.6.8.6 2 2.7 5.5 9.3.8 1.6 2 6.6 2.6 11.1.6 4.5 1.6 8.8 2.2 9.6 1.9 2.4 5.2 18 5.9 28.4 1.5 20.1 2.1 51.8 1 53.5-.3.5-.1 1.9.6 3.1.6 1.3.7 2.4.2 2.8-1.1.7-1.1 9.1 0 10.8.5.8.4 1.3-.2 1.3-1.6 0-1.4 17.3.1 18.8.9.9.9 1.2 0 1.2-1.7 0-1.7 29.1.1 30.9.9 1.1.9 1.2 0 .7-1-.6-1.2 10.9-1 55.6.2 53.1.1 56.5-1.7 60-1.4 2.9-2.6 3.9-5.5 4.5-2 .5-103.5.7-225.6.6-258.3-.3-289.1-.4-290.3-1.2-.5-.3-1.7-2.1-2.6-3.8l-1.6-3.3 4.2-2.7c5.1-3.3 5.7-4 6.5-7.6.3-1.5.9-2.7 1.4-2.7.5 0 .8-.3.8-.8-.4-2.5.4-4.5 2.7-6.5 6-5.3-.6-5 147.9-5.3 141.2-.3 151.5-.5 155.1-4.1 1.6-1.7 1.8-3.3.4-3.3-.5 0-1-1.5-1-3.4 0-4-1.2-5.2-6.9-6.5-2.4-.5-5.3-1.8-6.4-2.9-3.2-2.8-18.1-10.2-20.7-10.2-.6 0-3.7-1.2-6.8-2.6-10.6-4.9-11.7-5.3-19.7-7.5-4.4-1.1-10.5-3.6-13.5-5.4-3.4-2-8.5-3.9-13.4-4.9-4.3-.9-8-1.6-8.2-1.6-.2 0-.4-.6-.4-1.4 0-1.6-.9-2-8.4-3.6-5.1-1.1-144.8-1.6-146.6-.5-1.1.7-8-5.8-8-7.6 0-1.5 2.9-7 7.3-14.3 1.6-2.5 3.6-7.2 4.4-10.3.8-3.2 2.7-7.8 4.3-10.3 1.6-2.5 4-7.8 5.4-11.9 1.4-4.1 3.4-8.4 4.4-9.5 2.1-2.3 3.7-6.4 4.8-11.6.3-1.9 1.8-5.6 3.1-8.2 1.4-2.6 2.6-5.3 2.7-6 .2-.7.9-2.7 1.5-4.3.7-1.7 1.9-6.1 2.7-9.9 1.6-7.5 4.6-17.2 6.9-22.2 1.3-2.8 2.1-6.9 4.1-21.4.4-2.5 1-5.2 1.5-6 .4-.9 1-3.6 1.4-6 .4-2.5 1-5 1.5-5.5 1.1-1.4 4.2-14.3 4.5-19 .2-2.2.8-8.7 1.4-14.5.6-5.8 1.1-12.8 1.2-15.5.1-2.8 1-6.6 2-8.7 1-2 2.1-5.3 2.3-7.5 1-7.3 1.7-39 1.5-68.8-.1-41.1-.4-38.7 5-43.2 2.4-2.1 3.3-2.2 13.1-1.7 5.8.2 30.5.7 55 .9zM908.7 2049.2c-.3.7-.5.2-.5-1.2s.2-1.9.5-1.3c.2.7.2 1.9 0 2.5zm0 42.5c-.3 1-.5.4-.5-1.2 0-1.7.2-2.4.5-1.8.2.7.2 2.1 0 3z"/><path d="M2124 796.2c-18.9 3.9-28.9 7.3-32.1 10.9-.8 1-2.8 2.1-4.5 2.5-4.4 1.1-6.9 3-9 7-1 2-3.3 5.2-5 7.1-6.9 7.6-8.3 9.6-11.4 16.3-4.1 8.7-6.3 34.1-3.9 44.7 3.5 15.5 8 25.7 12.6 28.6.8.5 1.8 1.4 2.3 2 4.7 5.5 6 7.3 6 8.2 0 2.4 5.9 7.4 11 9.4 3.1 1.2 6.8 3.3 8.4 4.6 4.9 4.2 9.6 5 29.6 5 16.8 0 19.2-.2 25.8-2.4 3.9-1.3 7.2-2.7 7.2-3.1 0-.4 1.5-1.4 3.3-2.1 3.7-1.5 10.7-6.3 14.7-9.9 1.5-1.4 4.3-3.6 6.2-4.9 3.3-2.3 5.3-4.9 8.6-11.6.8-1.7 2.8-4.4 4.2-6.1 1.9-2.2 3.1-5.1 3.8-9.5 1.1-6.3 2.7-23.8 2.4-25.1-.1-.3-.3-2.8-.6-5.5-1.5-15.7-3.6-22.2-10.2-31.6-1.9-2.6-3.4-5.1-3.4-5.7 0-.5-1.8-2.4-4-4.1-2.2-1.8-4-3.8-4-4.4 0-1.5-4.2-5.5-5.8-5.5-.6 0-2.7-1.4-4.7-3.1-3.4-3-16.8-8.7-27-11.5-5.6-1.5-13.8-1.6-20.5-.2zM1784.5 797.1c-16.7 3-21.6 4.6-27.1 9.2-1.6 1.3-4.5 2.9-6.5 3.6-4.2 1.4-7.3 4-9.4 8.1-.8 1.6-3.1 3.7-5 4.6-1.9.9-3.5 2-3.5 2.4 0 .5-1.2 2.2-2.7 3.8-4.5 4.8-4.8 5.3-7.2 13.1-1.9 6-2.5 10.8-3.1 26-.6 14.1-.5 19.2.5 21.1.6 1.4 2 5.6 2.9 9.5 1.8 7.4 4.4 11.6 10.8 17.3 2.1 1.9 3.8 3.9 3.8 4.6.1 2.4 8.9 9.6 15 12 3.5 1.5 7.3 3.5 8.4 4.5 5.6 5.1 7.8 5.5 29.6 5.4 21.5-.1 27-1 31.1-5.3.9-.9 3.1-2.2 4.8-2.8 1.7-.7 4.6-1.7 6.4-2.4 5-1.9 20.3-18.2 22.3-23.9 1-2.6 2.5-5 3.4-5.2 1-.3 2.6-3.2 4.1-7.8 2.2-6.7 2.4-9 2.4-25.9v-18.5l-4.8-9.8c-2.7-5.3-5.2-9.7-5.6-9.7-.4 0-1.5-1.8-2.5-4s-2.4-4-3.1-4c-.7 0-3.1-2.6-5.2-5.7-2.1-3.2-4.7-6-5.8-6.3-1.1-.3-4.7-2.1-8-4.1-8.8-5.2-18.1-8.6-25.5-9.3-13.6-1.4-15.6-1.4-20.5-.5zM1943.8 923c-9.9 1.2-21.8 5.5-30.1 10.7-2.7 1.7-4.7 4.1-6.5 8.1-2.3 5-2.6 7-2.6 15.7 0 7.6.4 10.8 1.7 13.2 1 1.8 2.2 3.3 2.8 3.3.5 0 2.6 1.8 4.7 4.1 4.1 4.5 10.6 8.3 12.8 7.5 1.7-.6 8.1 5.5 9.5 9.2.6 1.5 1.1 5.5 1.1 8.9 0 5.1-.4 6.7-2.6 9.5-1.4 1.9-2.6 3.8-2.6 4.2 0 1.4-8.1 11.6-10 12.6-1.1.6-4.1 1.4-6.6 1.9-4 .8-5.3.6-8.8-1.4-3.5-1.9-5-2.1-9.7-1.6-6.8.8-8.5 2.1-9.9 7.2-1.3 4.7-.2 16.5 1.6 18.4.8.7 1.4 1.7 1.4 2 0 .4 1 1.8 2.3 3.2 11.3 12.7 14 13.8 33.7 13.8 16.1-.1 19.3-.8 20.5-4.4.3-1 2.1-2.6 4-3.6 1.9-.9 3.5-2 3.5-2.5 0-.6.7-1 1.5-1s2.3-1.3 3.3-2.8c1.9-3.1 4.8-3.2 5.7-.2.3 1 1.9 2.2 3.6 2.5 1.7.4 3.3 1.3 3.5 2 .3.8 1.9 1.8 3.5 2.4 1.6.5 2.9 1.4 2.9 2 0 .5 1 1.3 2.3 1.7 1.2.4 2.4 1 2.7 1.5.8 1.2 12.5 2.9 19.8 2.9 5.8 0 18-3.1 19.2-4.9.3-.4 2-1.6 3.8-2.6 1.7-1.1 3.2-2.2 3.2-2.6 0-.3 1.1-1.7 2.4-3.1 4.3-4.7 6.5-9.3 7.5-15.7 1-6.2.9-6.6-1.9-11.6-3-5.2-3-5.2-9.1-5.9-3.4-.3-6.5-.4-6.9-.1-.5.3-4.8.7-9.7 1-10.4.5-12.1-.3-15.4-7.2-1.3-2.6-3.4-6.1-4.7-7.7-2.1-2.7-2.3-3.6-1.9-11.3.5-8.1.7-8.7 4.4-13 2.6-3.1 5.6-5.2 9.7-6.9 3.2-1.3 6.9-3.5 8.2-4.9 1.3-1.4 2.7-2.5 3.3-2.5.5 0 1.9-1.7 3.1-3.7 1.7-2.8 2.2-5.6 2.4-11.3.1-4.1-.2-8.6-.6-9.9-.5-1.3-1.1-4.2-1.4-6.4-.8-6.8-3.1-9.5-12-13.7-12.8-6.2-17.6-7.1-37.9-7.5-9.9-.2-21 0-24.7.5zM1207 1752.1c-4.7.3-12.1 1.5-16.5 2.7-4.4 1.1-11.8 2.6-16.5 3.3-5.3.7-11.1 2.4-15.5 4.4-12.4 5.7-13.9 6.3-17.3 7-1.8.4-5.5 2.2-8.3 4.1-2.8 1.9-5.5 3.4-6.1 3.4-1.9 0-6.9 3.2-12.3 7.9-3.1 2.8-6.9 5.3-8.5 5.6-1.9.4-3 1.4-3.4 3.1-.4 1.3-2.5 4.4-4.9 6.8-2.3 2.5-5.3 6.6-6.6 9.3-1.4 2.6-3.3 5.8-4.3 6.9-4.1 4.6-11 30.3-8.9 32.8.6.7 2 4.6 3 8.7 2.3 8.7 3.1 10.9 4 10.9 1 0 4.2 3.1 7.1 7 1.4 1.8 4.8 5 7.7 7.1 5 3.7 13.6 6.7 32.9 11.3 2.7.7 5.5 1.5 6 1.9.6.3 9.3.9 19.5 1.2 15.2.4 21.2.2 34.4-1.5 8.8-1.1 16.6-2.2 17.3-2.5.7-.2 1.4-.5 1.7-.5.3 0 2.2-.7 4.2-1.4 2.1-.8 5.6-1.7 7.8-2.1 2.2-.3 6.7-1.9 10-3.4 3.3-1.6 8.1-3.6 10.7-4.5 6-2 14.3-6.3 15.9-8.2.6-.8 2.8-2.1 4.8-3 6.7-3 8.1-3.7 8.1-4.5 0-2.4 12.5-12.9 15.4-12.9 1.6 0 5.1-4.8 6-8.3.4-1.6 2.2-4.3 4-6 3.8-3.6 4.8-5.4 7.1-12.2 1.3-3.7 1.6-7.5 1.2-18.8-.3-7.8-.9-15.1-1.3-16.2-1.2-3.2-8.5-13.5-9.5-13.5-.5 0-.9-.5-.9-1.2 0-1.6-4.9-5.8-6.6-5.8-1.8 0-8.1-3.5-12.4-7-3.8-2.9-10.2-5.1-21-7-3.6-.7-6.9-1.5-7.5-1.9-3.7-2.8-23.9-4.3-40.5-3zM2661 1752.1c-6.2.6-27 4.7-35.5 7-2.2.6-5.1 1.9-6.5 2.9-3.1 2.1-13.3 7-14.8 7-1.3 0-6.2 5.7-6.2 7.2 0 .6-1.5 2.6-3.3 4.3-4.9 4.8-7 13.1-7 27.5 0 12.4 2.6 25 6.2 30 1 1.4 2.8 4.5 4 6.9 2.6 5.1 5.5 7.7 13.1 12.2 3 1.7 6.4 4.6 7.5 6.2 1.4 2.1 4.4 4 10 6.4 4.4 1.9 8.8 4.3 9.9 5.5 1.5 1.6 13.3 7.6 27.1 13.8 1.1.5 4.5 1.2 7.5 1.6 3 .3 7 1.2 8.8 2 1.8.7 6.8 1.8 11 2.3 4.3.5 9.7 1.4 12.2 2 5.7 1.3 18.6 1.5 37 .6 12.4-.6 15.2-1.1 19.4-3.1 2.7-1.4 7.2-2.7 10-3 10.2-1.2 18.8-3.2 20.9-5.1 1.2-1 3.4-2.5 4.9-3.3 1.6-.7 3.4-2.3 4.2-3.4.7-1.2 3.6-4.6 6.5-7.6 2.8-3 5.4-6.6 5.6-8 .3-1.4 1.1-4.8 1.7-7.5 2.4-10.6-.1-30-4.9-38.3-1.4-2.4-2.3-4.6-2-4.8.6-.6-5.2-6.4-6.4-6.4-.5 0-.9-.7-.9-1.5 0-.9-.8-1.8-1.7-2.2-2.2-.8-8.3-6.8-8.3-8.2 0-1.1-5.7-6.1-7-6.1-.5 0-3-2.2-5.6-5-3.5-3.7-6-5.4-10-6.7-3-.9-5.4-2.3-5.4-3 0-1.4-2.4-2.6-12.5-6.4-3.3-1.2-8.7-3.7-12-5.5-5.1-2.7-7.9-3.5-18.8-4.8-7.1-.8-13.4-1.9-14-2.4-4-3.1-27.9-4.8-44.7-3.1zM907.2 2063.5c0 1.6.2 2.2.5 1.2.2-.9.2-2.3 0-3-.3-.6-.5.1-.5 1.8zM907.1 2071.6c0 1.1.3 1.4.6.6.3-.7.2-1.6-.1-1.9-.3-.4-.6.2-.5 1.3zM2202.5 2288c-18.3.5-20.4.7-25 2.8-2.7 1.3-6.1 2.9-7.5 3.5-1.4.7-3.1 1.8-3.8 2.4-.7.7-2.8 1.3-4.6 1.3-1.8 0-5.9.5-9 1.2-4.4.8-6 1.6-6.6 3.3-.6 1.5-2.3 2.6-5.7 3.5-7.1 2-17.1 7-17.6 8.9-.3 1.2-2.6 2.4-6.5 3.5-4.2 1.2-6.3 2.3-6.7 3.6-.4 1.1-1.2 2-1.8 2-.7 0-2.7 1.3-4.5 3-1.8 1.6-4.2 3.5-5.3 4-1 .6-1.9 1.6-1.9 2.3 0 .7-2.3 2.6-5 4.3-2.7 1.7-6 4.6-7.3 6.5-1.2 1.9-4.5 4.5-7.2 5.9-3.3 1.8-5.1 3.4-5.5 5-.4 1.6-1.7 2.9-3.6 3.5-3.5 1.1-8.4 6.4-8.4 8.9 0 .9-1.5 2.4-3.4 3.3-3.2 1.5-5.6 4.8-5.6 7.6 0 .7-.9 2-2 3-1.1.9-2 2.3-2 3.2 0 .8-1.3 2.4-2.9 3.6-1.6 1.2-3.7 3.7-4.7 5.5-1 1.9-2.4 3.4-3 3.4-2.1 0-19.4 26.3-19.4 29.4 0 .8-.9 1.6-2 1.9-2.1.5-2.2.8-6.7 12.9-1.5 4.3-3.3 7.8-3.9 7.8-.6 0-2.3 2.9-3.8 6.5-1.6 3.5-3.4 6.9-4.1 7.5-.8.6-1.7 2.6-2 4.3-.4 1.8-2 5.2-3.5 7.7s-3.3 6.2-4 8.3c-.6 2.1-2.2 5-3.4 6.5-1.3 1.5-2.6 4-3 5.6-1.1 4.6-6.9 16-8.8 17.4-1 .7-1.8 2.6-1.8 4.3 0 4.8-4.2 17.8-5.9 18.4-2.2.7-3.8 4.8-5 12.2-.6 3.6-2.3 8.5-4 11.5-4.2 7.2-4.7 8.5-6.1 14.8-1.8 8.7-4.2 16-5.1 16-1.7 0-3.6 6.7-4.9 16.8-.7 5.6-1.7 10.2-2.1 10.2-.4 0-1.3 1.6-1.9 3.5-.7 2-2 4.4-2.9 5.3-1.2 1.1-2.6 5.9-4.1 13.2-1.2 6.3-2.9 12.2-3.7 13.2-1.6 1.8-4.6 13-5.9 21.8-1 7-.7 6-5.7 17-3.1 6.8-4.1 10.9-5.8 23-1 7.7-1.7 9.8-3.6 11.6-2.9 2.7-3.8 5.6-5.8 19.4-1.9 13.3-3.5 20.1-5.2 22.1-1.8 2.2-3.1 9.7-5.3 29.7-1 9.5-2.3 17.8-2.8 18.5-2.7 3.4-5.3 19.9-6.2 39.7-.5 11.3-1.4 23.4-2 27-1.3 8.2-2.9 40.1-3.5 68-.5 22.7.5 40.3 2.9 56 .8 5.2 1.7 14.2 2 20 .6 12.9 3.5 28.2 7.1 37.5 1.6 4 3.1 10.6 3.6 15.4.8 7 1.3 8.8 3.6 11.5 1.6 1.8 4.2 7.4 6.2 13.1 1.8 5.5 4.3 11.1 5.6 12.5 1.2 1.4 3.1 4.7 4.1 7.5 2 5.4 5.1 10.6 8.4 14.2 1.1 1.2 2 2.6 2 3 0 .5.8 1.6 1.8 2.5 4.3 4.2 6.1 6.6 8 10.3 2.2 4.5 4.4 6.6 8.7 8.6 1.7.8 3.4 2.3 3.9 3.4 1.3 2.8 13.3 12.6 17 13.9 4.5 1.6 12.9 6.7 14.3 8.7 1.2 1.6 9.8 4.1 19.3 5.5 2.5.4 8.2 2.1 12.7 4 11.1 4.4 26.3 5.9 45.4 4.4 19.4-1.4 22.8-2 24.7-4 1.8-1.8 3-2.2 13.5-4.5 5.3-1.2 7.9-2.4 11.6-5.5 2.6-2.2 5.2-4 5.7-4 2.2 0 8.4-5.2 8.4-7 0-1.3.7-2 1.9-2 1 0 2.4-.7 3.1-1.5.7-.8 1.8-1.5 2.4-1.5 1.4 0 8.6-7.1 8.6-8.5 0-.6 1.8-2.9 4-5.2 2.3-2.3 5.4-7.1 7.1-10.7 1.7-3.5 3.7-7 4.5-7.7.8-.6 1.4-1.7 1.4-2.3 0-.6 1.1-2.8 2.5-4.8s3.2-7 4-11c1.9-9.5 4.2-15.6 7.2-19.1l2.3-2.9v-32.3c0-30.3.1-32.4 1.9-34.6l1.9-2.4h47.6c44.6 0 47.6.1 48.8 1.8 1 1.3 1.4 7 1.6 21 .1 10.5.5 20 .9 21.2.4 1.1.7 2.4.8 3 .1 1.2 2.5 6.7 6.2 14.3 1.4 3 2.7 7.8 2.9 10.8.5 6.3 2.8 12.9 5.8 16.4 1.2 1.4 3 4.2 3.9 6.4 2 4.4 12.4 16.3 14.9 17.2.9.2 2.8 2.5 4.2 4.9 1.4 2.4 3.5 4.7 4.6 5 1.1.3 2 1 2 1.5 0 2.1 8.5 7.4 13.1 8.1 2.7.4 5.5 1.4 6.3 2.1 5.1 4.8 11 7.6 16.6 7.7 1.9.1 6.7.8 10.5 1.6 3.9.9 9.5 2 12.5 2.5s8.4 1.5 12 2.3c8.1 1.6 22.8 1.2 31.7-.8 3.7-.9 9.7-2.1 13.3-2.6 14.8-2.4 21.6-4 22.6-5.3.5-.8 2.2-1.8 3.7-2.1 2.9-.8 3.4-1.9 1.5-3.1-.7-.5 1.7-1.3 5.6-2.1 7.2-1.3 9.8-2.6 9-4.7-.3-.8 1-2 3.2-3.1 2.1-1 4.7-2.6 5.8-3.7 1.1-1 3-2.1 4.3-2.4 1.2-.3 2.9-2.1 3.8-4 .9-2 2.7-4 4.1-4.6 1.3-.6 2.4-1.4 2.4-1.8 0-.3 1-1.7 2.3-3 1.2-1.4 2.1-2.8 2-3.1-.1-.4.4-1.3 1.2-1.9.8-.7 1.5-1.9 1.5-2.6 0-.8 1.8-3.2 4-5.4s4-4.9 4-5.9c0-1.1.7-2.6 1.5-3.4.8-.8 2.2-3.4 3.1-5.7.9-2.3 2.7-5.2 4-6.5 1.2-1.2 2.6-4 3-6.1.3-2.2 2.1-7.1 3.9-11 1.9-3.8 3.9-9.9 4.5-13.5.7-3.5 1.6-7.3 2.1-8.4.4-1.1 1.3-3.8 2-6 .6-2.2 2-5 3-6.3 2.3-3 3.6-10 4.4-23.7.6-10.3 1.9-17.7 3.6-20 1.4-2.1 3.5-21.7 4.5-42.8.4-7.5 1.1-13.7 1.6-13.7.4 0 .8-.5.8-1.1 0-.5-.4-.8-.8-.5-.7.4-.8-10.2-.1-11.4.5-.9.4-73-.1-73-.4 0-.6-1.7-.6-3.8.1-7.2-1.5-38.8-2.3-46.2-.5-4.1-1.8-11.1-3-15.5-1.7-6.1-2.4-12.7-3.1-27.5-.5-10.7-1.2-22.9-1.6-27-.7-7.7-3.6-18.7-5.9-22.4-2.5-4.1-3.4-9.4-4.5-27.6-1-18-3.3-32-7.3-44.5-.9-2.8-2.1-8.8-2.6-13.5-2.2-19.2-4.3-32.6-5.5-34-2.6-3.1-3.6-7.9-4.6-22.5-1.4-20.1-2.8-29.8-4.3-31-1.6-1.3-4-7.4-3.9-10.2 0-1.4-.4-2-1.1-1.6-.5.3-.8.2-.5-.3.3-.5 0-5.3-.8-10.6-1.2-8.7-4.9-20.2-7.7-23.6-.5-.7-1.4-4.3-1.8-8-1.2-10.8-3.1-17.5-5.5-19.9-1.3-1.3-2.8-4.2-3.4-6.6-.5-2.3-2-7-3.1-10.4-1.2-3.5-1.8-7-1.5-7.9.7-1.9-1-5.4-2.7-5.4-1.6 0-4.7-5.2-4.7-7.7 0-2.8-3.1-11.6-4.5-12.8-.6-.6-3.2-5.4-5.6-10.8-2.6-5.8-5.1-9.9-6.2-10.3-1-.3-2-1.9-2.4-3.5-.3-1.6-.9-2.9-1.4-2.9-.4 0-1.1-1-1.5-2.2-.7-2.4-2.9-5-3.6-4.3-.2.3-1.2-1.3-2.2-3.5-1-2.2-2.2-4-2.7-4s-.9-.5-.9-1.2c0-1.9-4.3-7.6-6.1-8.1-.9-.2-2.9-3-4.4-6.2-2-4-3.8-6.1-6.1-7.2-1.9-1-3.5-2.6-3.9-4-.4-1.7-1.9-3-4.5-4-2.5-1-4-2.2-4-3.3 0-1-1.1-2.5-2.5-3.4-1.4-.9-2.5-2.3-2.5-3.1 0-1-1-1.5-2.8-1.5-1.9 0-4.1-1.4-7.7-5-2.8-2.7-5.9-5-7-5-1.1 0-2.6-.9-3.3-2-.7-1.2-1.7-1.8-2.1-1.5-.5.2-2-1-3.4-2.8-1.7-2.2-3.9-3.6-7.1-4.5-3.3-.8-5-1.9-5.8-3.6-1.2-2.7-5.9-5-12.8-6.1-5.3-.9-10.8-3.5-13.2-6.4-2.2-2.5-7-3.8-18.3-4.6-6.4-.5-9.6-1.2-11-2.5-2.9-2.6-13.6-5.9-20.8-6.5-9.1-.8-59-1.1-82.2-.5zm29.8 226.7c3.4 4.8 4 5.6 7 7.6 2.4 1.7 3.5 15.2 4.1 49.2.2 13.7.5 25.9.7 27 .2 2.4 1.5 13.2 3.1 26.5 1 8.3 2 40.1 2.2 70.5 0 8.9-1.1 24.5-4.5 60.5-.6 6.3-1.4 19.4-1.9 29-.8 18.5-1.2 20.6-3.8 21.4-1 .3-13.7.4-28.3.2-23.3-.3-26.9-.6-29.2-2.1-3.3-2.1-5.6-6.8-5.8-11.5-.2-6 1.1-22.3 2.1-27 1.9-9.3 2.7-21.2 2.8-43.9.1-26.6.6-32.4 3.2-39.8 2.7-7.2 4.8-20.7 5.6-35.3.3-6.9 1.3-15.4 2.2-19 .8-3.6 1.7-9 1.9-12 .3-3 .9-5.9 1.4-6.5.5-.5.9-2.1.9-3.5s.4-3 .9-3.5c.9-1 2.5-14 3.7-28.5.6-8.5 3.5-23.3 5.9-29.9 1.9-5.4 2.5-8.2 3.4-14.7.9-6.9 3-9.9 11.5-16.4 5.3-4.1 7.1-3.8 10.9 1.7zM1122.6 2323.1c-2.7.4-6.1 1.2-7.5 1.8-4.8 1.9-15.5 4.1-20.5 4.1-10.8 0-24.6 3.9-24.6 7 0 .4-3 1.3-6.7 2-5.6 1.1-7.4 1.9-9.9 4.7-1.7 1.8-3.6 3.3-4.2 3.3-.7 0-1.2.4-1.2.9s-1.2 1.2-2.7 1.6c-5.3 1.3-12.3 4.8-12.3 6 0 .8-1.7 1.9-3.7 2.6-2.1.6-5.8 3.3-8.3 5.9-2.5 2.5-6.2 5.9-8.2 7.4-2.1 1.6-3.8 3.3-3.8 4 0 .6-1.6 2.2-3.5 3.5-2 1.3-5 4.3-6.8 6.5-1.7 2.3-4.2 4.9-5.4 5.9-1.3 1-2.3 2.6-2.3 3.6 0 1.8-3.5 6.1-5 6.1-.8 0-6.2 8.7-9.5 15.1-.5 1-1.5 1.9-2.2 1.9-2 0-4.3 5.5-4.3 10.4 0 2.6-.6 5.1-1.5 6-.8.8-1.5 1.9-1.5 2.4 0 .6-.6 1.2-1.4 1.5-1.7.7-4.4 5.9-5.2 10.3-.3 1.9-1 3.4-1.5 3.4s-.9 1.2-.9 2.7c0 5-1.1 7.4-3 6.8-1.4-.4-2 .5-3.3 5.2-.8 3.2-1.9 8.7-2.2 12.3-.4 3.6-1.3 7.2-2 8-.7.8-1.5 2.4-1.8 3.5-.3 1.1-1.5 4.5-2.7 7.5-1.2 3-3 11.4-4.1 18.6-1 7.2-3 16.6-4.4 20.9-3.6 10.5-4.6 21.4-4.7 50.8l-.2 24.9-2.8 4.4c-1.5 2.4-3.1 4.4-3.5 4.4-.5 0-2.1-1.8-3.7-4-1.7-2.2-3.5-4-4.2-4-.7 0-1.6-1-2-2.2-.3-1.2-1.5-3-2.5-4.1-1-1.1-2.6-4.3-3.5-7.1-2.8-8.2-5.4-13.7-6.5-13.1-.5.4-.9.5-.9.3 0-2.1-6.8-19.4-8.9-22.8-1.6-2.5-3.7-6.2-4.6-8.3-1-2.1-3.2-5.2-4.8-6.9-1.7-1.6-4-5.8-5.3-9.5-1.3-3.6-3.2-7.4-4.3-8.5-1.2-1-2.1-2.8-2.1-4 0-1.7-.3-1.8-1.4-.9-1.2 1-1.6.5-2.1-3.3-.8-4.9-3.7-9.6-6-9.6-1.8 0-3.5-3.1-3.5-6.2 0-2.8-5.3-8.4-6.9-7.4-.6.4-1.1.1-1.1-.7 0-.8-.9-2.2-2-3.2-1.2-1.1-2-3.1-2-5.1 0-2.6-.6-3.6-2.7-4.6-1.6-.7-3.5-2.8-4.4-4.6-3.1-6.2-7.1-11.1-9.2-11.4-1.5-.2-2.6-1.4-3.3-3.6-.7-2.2-2.2-3.9-4.2-4.9-1.8-.9-3.2-2-3.2-2.5 0-1.3-2.6-3.8-3.9-3.8-.6 0-1.1-.8-1.1-1.9 0-2.3-2.3-4.3-4.1-3.6-1.4.5-3.9-3.5-3.9-6.3 0-.7-1.3-1.8-2.9-2.3-1.6-.6-3.2-1.7-3.5-2.5-.3-.8-1.4-1.4-2.5-1.4-1.2 0-2.5-1.1-3.3-2.7-.7-1.5-2.5-3-4.1-3.4-1.6-.4-4.2-2.4-5.9-4.3-1.7-2.1-4-3.6-5.2-3.6-1.2 0-3.6-1.4-5.4-3-1.8-1.7-3.9-3-4.7-3-.7 0-1.5-1-1.7-2.3-.4-2.6-5.1-4.6-11.6-4.6-3.4-.1-4.9-.7-7-2.9-5.8-6-8.5-7-24.2-8.3-5.8-.6-12.7-1.4-15.4-1.8-6.2-1.1-10.4-.9-28.1 1.3-13.8 1.7-21.5 3.6-24.6 6.3-.8.7-2.5 1.3-3.6 1.3s-3.1.9-4.5 1.9c-1.3 1.1-4.1 2.3-6.2 2.7-2.4.4-5.6 2.3-8.7 5-2.8 2.4-5.6 4.4-6.4 4.4-3.6 0-24.5 17.2-24.5 20.1 0 .5-.6.9-1.3.9-1.9 0-5.7 4.3-5.7 6.3 0 .9-.6 1.7-1.4 1.7-1.7 0-10.6 9.5-10.6 11.4 0 .8-.4 1.6-.9 1.8-1.2.4-11.1 12.8-11.1 13.8 0 .5-1.8 2.7-3.9 5-2.2 2.4-3.7 4.8-3.5 5.5.3.7-1.1 3.3-3 5.7-3.1 4.2-8.4 14.3-10 19.5-.4 1.1-1.4 2.3-2.4 2.5-1.7.5-4.1 9.4-5.8 21.2-.4 2.7-1.5 5.7-2.5 6.7-1.1 1.1-1.9 2.9-1.9 4.1 0 1.3-.6 3.5-1.4 5-1.4 2.7-2.2 7.5-3.2 19.3-.3 3.8-.7 8.1-.9 9.5-3.8 23.1-4.7 70.3-1.9 101.5 1.5 16.8 1.8 32.7.9 46.6-.9 12.8.4 65.2 1.6 62.4.7-1.7.8-1.6.8.8.1 1.6-.3 2.6-.9 2.2-.6-.4-1 1.3-1 4.4 0 2.7.4 5.2.8 5.5.5.3 1 9.6 1.1 20.7.1 11.1.3 20.4.5 20.8.2.3.7 5.5 1 11.6 1.1 20 2.2 30 3.3 31.8.3.5.8 2 .9 3.1.2 1.2.8 4.1 1.4 6.6.5 2.5 1.4 16.8 2 31.8 1 27.3 1.4 30.1 6.5 51.2 3.1 12.4 3.1 12.6 3.9 25.5 1.1 18.2 3.6 30.6 7.1 36.1 1.5 2.3 2 5.6 3.1 20.1.3 5.1 1 9.3 1.5 9.3s.8.3.7.7c0 .5.6 2.5 1.5 4.5 1 2.1 1.7 4.7 1.7 5.8 0 1.1 1 4.2 2.3 6.8 1.3 2.6 2.9 7.8 3.6 11.7 1.3 7.2 2.7 11.4 6.1 17.6 1 2 2.2 5.8 2.5 8.4.6 5.6 6.6 18.3 10.1 21.6 1.3 1.2 2.4 3.1 2.4 4.1 0 1 1.4 4.5 3 7.8s3 6.5 3 7.2c.1 2.5 6.9 12.1 10 13.9 2.1 1.3 3 2.6 3 4.5 0 3.5 1.7 6.4 3.8 6.4 2.2 0 4.2 1.9 4.2 4 0 2 8.3 10 10.4 10 .9 0 1.6.8 1.6 2 0 1.3 1.4 2.7 4 4 2.2 1.1 4 2.6 4 3.3 0 1.8 6.6 6.7 8.9 6.7 1.2 0 2.1.4 2.1 1 0 .5.8 1 1.8 1s2.9 1.1 4.2 2.5c3.8 4.1 7.8 5.5 18.5 6.6 6.8.7 10.2 1.5 10.8 2.5 2 3.6 7.8 4.8 23.2 5 18.8.2 29.5-1 36-4.1 3.7-1.8 7.9-2.7 16.5-3.5 13.4-1.2 20.1-2.7 19.4-4.4-.3-.8 1.4-1.7 4.6-2.6 2.7-.7 5-1.7 5-2.1 0-.5 1.9-1.3 4.3-1.9 7.1-1.8 9.7-3.2 9.7-5 0-.9 1.6-2.5 3.5-3.6 1.9-1 3.5-2.2 3.5-2.5 0-.4 2.5-3.2 5.5-6.2s5.5-6.1 5.5-6.9c0-1.8 5.6-12.5 7.5-14.5.8-.8 1.8-2.6 2.1-4.1.3-1.5 1.1-4.3 1.7-6.2.7-2.3 1-14.5.9-34.5-.2-36.2-.2-36-3.3-49-.5-2.2-1.1-5.6-1.3-7.5-.2-1.9-.6-4.2-.9-5-.3-.8-.8-2.7-1.1-4.3-.4-1.5-1.2-2.7-2-2.7-1 0-1.5-3.5-2-14.8-.6-15.1-1.5-21.4-6-42.5-2.8-13.5-4-26.7-5-59-.1-1.5-.4-2.7-.7-2.7-.4 0-.9-2.1-1.2-4.8-.3-2.6-.8-5.8-1.1-7.2-.4-1.4-.8-14.3-1.1-28.6-.2-14.4-.5-26.6-.7-27-.3-1.4 2.5-8.4 3.4-8.4.4 0 .8.4.8 1 0 1.6 2.7 1.2 3.4-.5.3-.8 1.4-1.5 2.4-1.5 2.3 0 3.8 3.4 4.8 10.5.8 6.4 3.2 15.2 5.2 19 .9 1.6 1.5 3.3 1.4 3.7-.1.4.7 1.2 1.8 1.8 1.1.6 2 1.9 2 3 0 1 .5 2.2 1 2.5.6.4 1 1.2.8 1.8-.1.7.2 4.6.6 8.8.6 6.4 1.2 8.1 3.7 10.8 1.6 1.8 2.9 3.6 2.9 4 0 1.6 4.3 14.6 5.1 15.6.5.5.9 1.6.9 2.6 0 .9 1.1 3.2 2.4 5.1 1.3 1.9 3.3 6.6 4.5 10.3 1.2 3.8 3.2 8.6 4.4 10.8 1.2 2.2 3 5.4 3.9 7.1.9 1.7 2.6 5.9 3.8 9.3 1.3 3.7 3 6.7 4.4 7.7 1.5.9 2.6 3 3.1 5.3.4 2.1 1.3 4.5 2.1 5.3 3.9 4.2 7.4 8.9 7.4 9.8 0 1.7 3.4 8.6 5.5 11 1.1 1.3 2.8 3.3 3.8 4.4.9 1.2 1.7 2.5 1.7 3 0 .8 3.2 5.7 5.5 8.4.6.7 2.4 2.8 4 4.9 1.7 2 4.7 5.2 6.8 7.2 2 2 3.7 4.4 3.7 5.4 0 2.2 4 5.4 8.5 6.9 1.9.6 3.7 2 4 3.1.6 1.9 4.8 4.6 8.2 5.2 1 .2 2.5.7 3.3 1 .8.3 4.8 1.3 8.8 2.2 4 1 7.4 2.1 7.7 2.5.9 1.5 10.8.9 16.4-.9 6.8-2.2 15.6-4.7 19.4-5.6 1.5-.3 3.1-1.4 3.5-2.5.4-1 2.6-3.2 4.9-4.9 2.3-1.7 5.7-5.3 7.5-8.1 1.8-2.7 3.8-5 4.4-5 1 0 7-9.1 8.3-12.5.2-.6 1.4-2.1 2.6-3.5 1.3-1.4 3.1-5 4.1-8 .9-3 2.3-6.2 3.1-7 3.7-4.1 6.3-9.6 8.4-17.9 1.3-5 2.8-9.1 3.5-9.1 2.4 0 3.7-3.2 4.5-11.2.8-7.8 1.5-10.5 4.5-17.5.8-1.7 1.4-3.8 1.4-4.7 0-.9.4-1.6 1-1.6 1.2 0 3-6.5 4.5-17 .7-4.7 3.1-14 5.4-20.7 2.8-8.3 4.1-13.8 4.1-17.5 0-6.3 1.8-16.8 3.1-18.4.5-.6.6-1.4.2-1.7-.3-.4-.1-.7.5-.7.7 0 1.2-.8 1.2-1.8s.4-2.2.8-2.7c2.5-3.1 4.9-15.4 6.1-31.5 1-13.3 1.6-16 3.5-16 2.1 0 5.4 4.3 6.8 8.7.7 2.4 1.6 4.3 2 4.3.5 0 .8.6.8 1.2 0 .7 1.5 4 3.3 7.3l3.2 6v62.5c0 34.4-.1 74.6-.3 89.5-.1 14.8 0 29.5.2 32.5.3 3 .8 12.8 1.1 21.8l.6 16.2 4.5 9c2.4 5 4.4 9.5 4.4 10 0 2 7.7 17.5 9.3 18.9 1 .7 1.7 1.9 1.7 2.6 0 .6 1.2 3 2.8 5.2 3.9 5.7 5.1 7.5 6.1 9.8.5 1.1 2.9 3.9 5.3 6.1 2.4 2.3 6.4 6.4 8.8 9.2 2.4 2.9 4.7 5.2 5.2 5.2.8 0 6.1 3.8 20.9 15.1 1.9 1.5 6.9 3.7 11 4.8 4.1 1.2 9.2 3 11.4 4 9.9 4.6 10.4 4.7 30 5.7 14.6.6 29.7-1.1 35.5-4.2 2.9-1.5 14.5-5.4 16.1-5.4 2.3 0 15.8-7.1 18.7-9.8 7.6-7.1 12.1-10.2 14.8-10.2 1.5 0 8.4-6.6 8.4-8 0-.4 1.3-1.3 3-2 2-.8 3.4-2.5 4.6-5.6.9-2.4 2.8-5.1 4.1-5.9 1.4-.9 3.1-3.2 3.9-5.1.8-1.9 1.8-3.4 2.2-3.4.4 0 1.6-1.4 2.6-3.1 1-1.7 2.9-4.1 4.2-5.2 1.4-1.2 2.7-3.7 3-5.8.4-2.1 1.7-4.8 3-6 1.3-1.2 2.4-2.8 2.4-3.5 0-.7.6-1.4 1.2-1.6 1.2-.4 3.3-8.4 4.3-16 .2-2.1 1.3-5.7 2.3-8 3-6.9 3.3-7.9 4.6-16.6 2.1-13.6 1-38.6-2.1-50.2-1.8-6.7-2.1-8.9-2.8-16.5-.4-3.3-.8-7.6-1.1-9.5-.3-1.9-.7-10.3-.9-18.5-.4-16.5-1.1-25.1-2.5-30.5-.5-1.9-1.4-8.2-2.1-14-.6-5.8-1.9-12.5-2.9-15s-1.8-5.2-1.8-6c0-.8-.5-11-1.1-22.5-1.2-23.1-2.9-40.2-5.1-52-.6-2.8-1.2-6.5-1.5-8.4-.3-1.8-1-4.1-1.5-5.1-.5-.9-.7-2-.3-2.3.3-.4.1-1.2-.5-1.9-.5-.7-1.1-6.5-1.1-12.8-.1-6.3-.6-15.3-1.2-20-.6-4.7-1.2-10.3-1.4-12.5-1.5-18.3-3.1-28.1-4.7-29.1-1.3-.8-.9-5.4.4-5.4.7 0 .5-.5-.4-1.3-1.2-.9-1.8-3.7-2.3-10.7-.3-5.2-.8-10.2-1-11-.3-.8-1.4-8.9-2.5-17.9-1.9-15.6-3.6-23.1-5.1-23.1-1.3 0-2.9-9-2.9-16.7 0-4.3-.5-13.2-1-19.8-.5-6.6-1.2-15.2-1.5-19-.7-10.2-1.4-14.2-3.7-21.5-2.2-7.2-3.4-17.5-4.3-35.5-.9-18.3-4.9-39.7-7.7-41.6-.5-.3-1.5-5.7-2.3-12-2.1-17.8-3.2-22-6.7-26.9-1-1.4-2.5-6.6-3.4-11.5-1.6-8.9-4.2-18.1-7-24.1-.7-1.8-2.3-7.1-3.5-12-1.1-4.8-2.9-9.9-4-11.2-1-1.4-1.9-3-1.9-3.7 0-.6-.8-2-1.9-2.9-1-.9-2.1-3.1-2.5-4.7-.8-4.3-3.7-10.2-5.7-11.6-.9-.7-2.9-4.4-4.5-8.3-1.6-3.8-3.4-7-4-7-.6 0-2.2-2.1-3.5-4.7-2.5-4.9-6.6-9.5-11.2-12.7-1.5-1-2.7-2.8-2.7-4 0-4.1-3.7-8.3-9.9-11.2-3.3-1.6-6.1-3.5-6.1-4.2 0-1.6-5.9-5.2-8.6-5.2-1.2 0-3.5-1.7-5.5-4-3.6-4.2-9.6-8-12.9-8-1 0-2.3-.6-2.7-1.3-2.3-3.7-8-5.4-26.7-8.2-6-.9-13.5-2.5-16.9-3.6-6.2-2-11.8-2.2-20.1-.8zm-589.9 477.1c-.2 1.3-.4.5-.4-1.7-.1-2.2.1-3.2.4-2.3.2 1 .2 2.8 0 4zM1639.1 2327.9c-1.6 1-15.6 1.6-30.4 1.3-13.8-.4-24.2 1.6-32.5 6-1.8 1-4 1.8-5 1.8-3.4.1-24.5 8-27.7 10.4-1.9 1.5-3.8 2.6-4.4 2.6-.6 0-2.9.7-5.1 1.6-2.7 1.1-4 2.2-4 3.5 0 1.1-.7 1.9-1.7 1.9-3.1 0-8.3 3.9-10 7.5-.9 1.9-2.2 3.5-2.8 3.5-2 0-12.5 13.8-14.8 19.2-.7 1.8-2 6.2-2.7 9.7-.9 4.3-1.9 6.5-3 6.8-2.8.8-4.1 6.4-5 22.5-.6 10.8-1.4 16.6-2.4 18.7-.9 1.6-1.6 4.1-1.6 5.5 0 1.3-.9 4.6-2.1 7.3-2.2 5.2-3.5 11.4-4.4 20.7-2 21.6-3.4 29.5-7.4 42.6-.6 1.9-1.6 12.7-2.2 24-.7 15.2-1.5 22.1-3 26.8-1 3.4-1.9 7.3-1.9 8.5 0 1.3-.5 2.8-1 3.3-2.5 2.5-5 19.8-5 34.9-.1 26-1.6 46.2-4 55-3.5 12.7-3.8 14.5-4.4 23.5-2 29.6-3.6 121.5-2.2 123.8.3.6 0 1.2-.6 1.5-1.1.3-1.1 1.1 0 3.9.8 2.4 1.2 11.3 1.2 29.9 0 22.9.7 39.4 2.5 60.9.5 5.6 2.8 18.5 4.6 25.4.6 2.1 1.3 7 1.5 11 1 14.5 2.4 26.9 3.3 28 .8.9 3.5 9.7 3.2 10.3 0 .2 1 2.7 2.3 5.6 1.5 3.6 2.6 8.3 3 14.3 1 11.7 2.3 16.5 5.2 18.9 2 1.6 2.6 3.4 3.4 10.2 1.1 8.7 2.9 14 6.4 18.8 2.6 3.6 5 8.7 4.7 9.9-.1.4.2 1.3.7 2 .5.6 1.5 2.9 2.2 5.1 2 6.4 11 22.8 14 25.6 1.5 1.5 3.1 4 3.4 5.6.4 1.6 2.5 5.1 4.6 7.7 2.2 2.7 4 5.1 4 5.5 0 .6 1.3 2.3 9.3 11.6 5.8 6.8 17 17.5 18.3 17.5 1.1 0 3.5 1.8 8.8 6.7 1.6 1.5 5.8 4.2 9.4 6.1 3.6 1.8 7.8 4.2 9.3 5.3 3.6 2.5 9.7 4.6 17.3 6 7.8 1.3 7.7 1.3 10.1 2.6 5.9 3.2 15 4.5 28.4 4 12.2-.5 13.9-.8 19.5-3.6 3.3-1.6 7.7-3.3 9.6-3.6 4.5-.9 10.8-4.6 14.4-8.4 1.6-1.7 4.1-3.3 5.5-3.6 1.4-.3 4.9-2.7 7.6-5.4 9.1-8.8 16.5-16.7 16.5-17.8 0-.5 1.6-2.8 3.6-4.9 3.4-3.5 9.4-15 9.4-17.8 0-.7 1.6-2.7 3.5-4.6 2.3-2.3 3.4-4.5 3.5-6.3 0-2 .6-3 2-3.4 1.1-.3 2-1.4 2-2.4 0-3.2.1-3.3 2.1-5.6 2.1-2.2 2.8-4.3 5.7-18 1.1-4.7 2.5-8.8 3.4-9.5 1.8-1.4 4.1-9.3 5.8-20 .5-3.6 2.3-10.6 4-15.5 3.5-10.6 6-23.5 6-31.2 0-6.7 1.4-15.7 4-26.6 4.1-17.3 4.2-18.6 6-72 .6-18.2 1.2-34.8 1.5-37 .2-2.2.4-11.2.4-20s.1-24.6.1-35c.3-54.1.1-62.1-1.5-81-.2-2.8-.6-14-.9-25-1.4-47.4-1.8-61-2.1-61.5-.2-.3-.6-4.3-1-8.8-.3-4.5-1.2-9.9-1.9-11.9-3-8.4-4.4-34.8-5.2-95.3-.5-39.9-.9-51.7-1.9-54.9-.2-.9-1-6.8-1.6-13.1-.6-6.3-1.2-12.4-1.3-13.6-.1-1.1-.6-2.5-1-3.2-.4-.7-.4-1.7-.1-2.2.3-.6.1-1-.4-1-.6 0-1.1-1.1-1.1-2.4 0-1.4-.4-2.8-1-3.1-.5-.3-1-4.5-1-9.3 0-16.4-1.8-32.1-4.2-37.1-1.2-2.5-2.8-5.3-3.4-6.1-.7-.8-2-4.8-2.8-8.9-.9-4.1-2.1-8.2-2.8-9.1-10.1-13.6-18.6-23-20.8-23-.5 0-2.9-1.7-5.1-3.8-4-3.6-4.5-3.7-13.8-4.4-5.3-.4-11.4-1-13.6-1.3-7.9-1-36-1.5-37.4-.6zM2870.5 2340.1c-2.2.4-6 1.3-8.5 1.9-2.5.6-6.7 1.6-9.5 2.1-2.7.6-6.1 1.9-7.5 2.9-1.4 1-5.5 2.3-9 3-9.4 1.6-12.7 2.8-13.3 4.9-.3 1.2-2.1 2.2-5.2 3-2.6.6-5.9 2-7.3 3-5.9 4-14 9.1-16.4 10.2-1.4.6-3.1 2.2-3.8 3.5-.7 1.3-3 3.5-5.2 4.9-2.1 1.4-3.8 3-3.8 3.5 0 .6-.7 1-1.5 1s-1.5.4-1.5.9-2.6 2.6-5.7 4.7c-5.9 3.9-10.3 8-10.3 9.5 0 .5-.8 1.7-1.7 2.7-3.8 3.8-10.3 12.5-10.3 13.8 0 .8-.9 1.9-2 2.6-1 .7-3.3 4.6-5.1 8.8-4.4 10.5-5 11.7-7 13.9-1 1.1-2.3 4.1-2.9 6.8-2 9.6-4.4 16.4-6.1 17.4-2.3 1.2-3.6 5.5-4.8 15.4-1 8.2-4.1 18.1-7.2 22.5-1.7 2.5-2.7 6.5-5.4 21.9-.9 5.3-2.4 9.8-3.9 12.1-1.9 2.9-2.7 6.1-3.6 14.1-1.2 10.3-5.5 26.9-7 26.9-1.4 0-2.8 5.7-3.5 13.2-1.1 13.8-2.8 22.3-5.8 28.3-2.8 5.5-3 7-3.8 23-.7 11.7-1.5 19-2.9 23.5-1.6 5.5-3 10.8-3.2 13-.1.3-1.1 2.1-2.3 4-1.7 2.8-2.2 5.3-2.4 12.5-.4 15.8-2 32.8-3 33.4-1.5 1-5 14.8-5.5 22.1-.3 3.6-.8 17.7-1.2 31.5-.9 32.2-.8 31.8-1.6 33-.4.6-.7 3.8-.7 7 0 3.3-.3 9.8-.7 14.5-1.4 16.8-.7 80 .9 81.9.7.8 1.2 7.2 1.4 17.5.3 26.6 3 43.5 7.5 47.9 1.1 1.1 1.8 3.2 1.8 5.4 0 9.1 4.4 25.3 6.8 25.3.9 0 3.2 7.3 3.2 9.9 0 1.9.6 3.8 3.6 10.8.8 1.7 1.4 3.5 1.4 4.1 0 .5.6 1.5 1.4 2.1.8.7 3.1 5.1 5.1 9.9 2 4.8 4.2 9.3 5 10.2.7.8 3.4 5.5 6 10.5 8 15.6 11.4 20.9 16 25.1 2.5 2.2 4.5 4.3 4.5 4.7 0 1.8 7.2 10.9 14.8 18.5 2.8 2.9 5.2 5.7 5.2 6.2 0 .4 2.2 2.2 5 4 3.3 2.1 5.3 4.3 6.1 6.5.8 2.1 2.4 3.8 4.6 4.9 1.8.9 3.8 2.6 4.4 3.8.6 1.3 2.8 3.1 4.9 4.1 2.2 1 6.8 3.9 10.4 6.5 3.6 2.6 8.4 5.8 10.6 7.1 2.2 1.4 4.2 3.2 4.5 4.1.3.9 2.4 2.4 4.8 3.4 6.2 2.6 10.1 4.7 11.3 6.3.7.7 3.4 2.1 6 3.1 2.7.9 8.4 3.6 12.6 6 4.2 2.3 8.3 4.2 9 4.2.6 0 5.7 2.2 11.3 4.9 6 2.9 13.2 5.5 18 6.5 11 2.3 15.7 3.7 17.6 5.3 3 2.5 12.7 5.1 23.5 6.3 6 .6 12.2 1.7 13.9 2.5 6 2.6 10.3 3.5 26.5 5.4 13.7 1.6 21.4 1.8 45.5 1.5 32.8-.6 45.8-2 51.5-5.9 1.9-1.3 5.8-2.6 8.5-3 8.5-1.1 14.9-2.7 17.5-4.3 3.5-2.3 14.5-6.7 20.9-8.3 3.4-.8 5.9-2.2 6.8-3.5.8-1.3 4.2-3.2 8-4.6 3.9-1.3 8.2-3.7 10.2-5.7 2-1.8 6.5-4.9 10.1-6.8 3.6-1.9 7.3-4.3 8.2-5.3.9-1 4-2.8 6.7-4.1 2.8-1.2 5.1-2.8 5.1-3.5 0-1.3 5.1-6 12.4-11.4 2.6-1.9 5.7-4.6 6.9-5.8 7.8-8.5 17.5-17.9 19.2-18.7 1.1-.6 2.9-2.7 4-4.8 1.1-2.1 3.5-4.6 5.3-5.7 1.7-1.1 3.2-2.6 3.2-3.5 0-1.8 6.1-8.5 7.8-8.5.7 0 2.2-2 3.3-4.4 1.1-2.5 2.9-5.3 4.2-6.3 2.6-2.2 9.7-12.4 9.7-14.1 0-.7 1.1-1.7 2.4-2.3 1.5-.7 3.1-2.9 4.1-5.5.9-2.4 2.9-5.4 4.5-6.8 1.6-1.3 3.5-3.9 4.3-5.7.8-1.9 3.8-6.5 6.6-10.3 2.8-3.8 5.1-7.5 5.1-8.2 0-.8 1.7-3.6 3.8-6.4 2.1-2.8 5.2-8.2 6.8-12.1 1.9-4.7 3.6-7.4 5.1-8 1.5-.5 2.6-2.2 3.3-5.1.6-2.4 1.8-5.4 2.6-6.8.7-1.4 1.9-3.7 2.5-5.3.6-1.5 1.4-2.7 1.8-2.7 1.1 0 3.7-6.3 5.7-13.5.9-3.3 2.2-6.7 2.9-7.5 1.8-2.2 6.5-12 6.5-13.6 0-1.5.2-2 3.9-8.9 3.8-7.4 5.3-11 6.8-16.4.7-3 2.7-7.8 4.3-10.5 1.6-2.9 3.2-7.5 3.6-10.6.4-3.2 2.2-8.6 4.5-13 3.9-7.8 6.9-16.7 6.9-20.7 0-2.6 3.2-12.5 6.5-19.8 1.2-2.8 2.5-7.3 2.8-10 .7-6.3 5.1-21.7 7.8-27.3 1.2-2.3 2.5-7.7 3-12 1.6-13.6 2.9-21.2 3.8-23 4.1-7.6 6.2-17 8.2-35.7.6-6.1 1.7-12.4 2.5-14 2.3-5.3 4.4-16.3 4.9-26.8.3-5.6.7-14.5 1-19.7.3-5.2.5-16.7.6-25.5 0-13.7 1.5-33.3 3.4-44 .2-1.7.7-5.7 1-9 .3-3.3.8-7.4 1-9 2.4-17 2.9-106 .7-115.5-.7-3-1.6-6.7-1.9-8.3-.3-1.5-.8-2.7-1.2-2.7-.4 0-.7-.8-.8-1.8-.1-.9-.6-3.5-1.1-5.7-.6-2.2-1.3-8.3-1.6-13.5-1.1-16-1.8-21.1-3.1-21.7-.7-.2-2.7-3.9-4.5-8.1-5.9-13.9-6.9-16.1-8.4-16.9-.8-.4-2.6-3.7-4-7.3-1.6-4.1-4.1-8-6.6-10.4-2.2-2.1-4-4.4-4-5.1 0-.7-1.9-2.8-4.3-4.6-2.4-1.9-6.5-5.9-9.1-8.9-2.6-3-7.1-6.7-9.9-8.3-2.7-1.5-6.2-3.9-7.6-5.3-3.2-3.2-8.2-5.8-14.1-7.4-2.5-.6-7.4-2.6-11-4.3l-6.5-3.2-20.8-.4c-23-.3-27.1.3-34.8 5-2.5 1.6-5 2.9-5.6 2.9-4.9 0-18.8 7-20.1 10.2-.2.4-2.4 1.7-4.8 2.7-2.5 1.1-5.1 2.6-5.8 3.3-7.7 7.3-19 18.8-22.6 22.9-2.5 2.8-6.8 7.5-9.7 10.4-2.9 3-5.6 6.8-6.1 8.7-.5 2.1-1.8 3.8-3.5 4.6-1.5.7-3 2.5-3.4 4-1.1 4.7-5.4 13.6-7.6 16-2.4 2.6-4.7 8.5-4.7 12.4 0 3.3-1.9 7.7-4.1 9.8-2 1.8-4.4 9.3-5.8 17.9-1.4 8.4-5 20.1-6.2 20.1-1.9 0-3.8 6.9-4.5 16.1-.4 6.5-1.1 10.2-2.3 11.9-1 1.4-2 3.6-2.4 5-.3 1.4-1.2 5.2-2 8.5s-1.8 10.3-2.2 15.5c-.3 5.2-1.2 11.7-2 14.5-.7 2.7-1.6 6.7-2 8.9-.3 2.1-1 4.6-1.5 5.5-3.6 7.1-5.1 15.4-6 32.9-.6 12.4-1.6 20.9-2.9 26-4.7 18-6 25.4-6.6 38.7-.3 7.7-1.1 16.9-1.7 20.5-.5 3.6-1.2 7.8-1.4 9.5-.7 5-2.4 10.8-4.5 15.1-1.7 3.5-2.1 7.4-2.9 31.1-1 29.4-1.6 36.3-3.6 40.2-.8 1.4-1.4 4-1.4 5.6 0 1.7-.4 3.5-.8 4-1.2 1.4-2.8 6.7-5.3 17.5-1.8 7.9-6.6 20.6-9.7 25.7-4 6.6-13.1 19.1-13.6 18.6-.3-.4-.6-.1-.6.5 0 .7-1.2 2.2-2.6 3.5-1.4 1.2-3.4 3.9-4.5 5.9-1 2-2.9 4-4.1 4.4-3.2 1-12.1 6.4-13.8 8.5-2.3 2.7-8.5 3.9-20.5 3.9-20 0-21.2-.5-33-11.9-9.6-9.3-11.2-11.7-12-17.8-.8-6.4-2-9.3-3.8-9.3-2.8 0-3.8-4.1-3.8-15.5 0-8.7-.5-12.3-1.7-14.8-1.3-2.6-1.6-6-1.6-17.7.2-15.3.5-20 1.5-19.4.3.2.6-3.4.7-7.9.1-10.8.7-18.5 1.5-19.3.3-.3.3-1.2 0-2-.5-1.4 1.8-8.8 4.2-13.4.7-1.4 1.6-4.1 2.1-6 .4-1.9.9-4.2 1.1-5 .2-.8.6-7.6.9-15 .5-13 1.9-21.4 3.4-20.5.4.3 1.1-1.7 1.5-4.3.4-2.6 1.1-5.2 1.7-5.9 1.5-1.8 3.1-8.5 4.2-17.3 1.3-10.8 2.9-16.5 6.6-23.2.5-.9 1.6-8.1 2.5-16 .9-7.8 2.2-15 2.9-15.8 2.8-3.4 7.5-19.9 9-31.5.6-4.8 2.4-10.1 4.4-13.3 1.5-2.4 3.8-13 4.8-22.7.4-3.3 1.5-8.3 2.6-11 4.4-10.9 6.7-19.8 7.3-27.7.7-10.2 2.3-19.8 4.2-26.1.8-2.6 2.1-8.4 2.8-13 1.7-10.1 1.5-36.1-.3-37.9-.7-.7-1.2-1.8-1.2-2.4 0-.7-.5-2.5-1.2-4.1-.6-1.5-1.2-3.1-1.2-3.5-.1-.3-.4-1-.8-1.4-.5-.4-.8-3-.8-5.8-.1-5.8-1.4-12.6-2.8-13.5-.4-.3-1.7-2.2-2.8-4.1-1-1.9-2.4-4.2-3-5-.6-.8-1.5-2.6-1.9-4-1.4-4.7-3.7-9-4.9-9-.7 0-2-1.5-2.9-3.3-3.5-6.7-5.5-9.1-11.2-13-1.4-1.1-3-2.9-3.5-4.2-1-2.7-5.6-5.4-10-6-3.5-.4-7-2.2-7-3.6 0-.6-.6-1.6-1.3-2.3-1.2-1.2-2.7-1.6-15.2-3.7-5.9-1-15-4.1-19-6.6-4.6-2.8-21.2-4-30-2.2z"/><path d="M531.1 2806.6c0 1.1.3 1.4.6.6.3-.7.2-1.6-.1-1.9-.3-.4-.6.2-.5 1.3zM1447.2 2836.5c0 1.6.2 2.2.5 1.2.2-.9.2-2.3 0-3-.3-.6-.5.1-.5 1.8zM1680.8 3326.3c-1.5.7-5.1 3.8-8.1 7-2.9 3.1-5.8 5.7-6.4 5.7-.5 0-2.2 1.8-3.7 4-1.4 2.2-3 4-3.4 4-.7 0-2.1 2.7-4.1 8.2-1.5 4-.2 9.8 2.4 11 1.2.5 2.9 2.3 3.9 3.9.9 1.6 3 3.6 4.5 4.3 2.5 1.3 3.1 1.3 5.8-.4 1.7-1 3.3-1.7 3.5-1.4.3.2 2.2-1.1 4.4-3 2.1-1.8 5.4-4.1 7.2-5 1.8-.9 3.2-2.4 3.2-3.5 0-1 2.1-3.8 4.8-6.3 5.9-5.5 7.2-8.4 7.1-15.6-.1-7.8-1-10.5-3.9-11.9-3.9-1.8-14.1-2.4-17.2-1zM551.9 3340.5c-.3.3-16.3.6-35.4.6-19.2 0-35.8.5-37 .9-1.2.5-4.6 1.1-7.6 1.5-3 .3-6.1.8-7.1 1.1-2.3.7-3.8 5.6-3.8 12.6 0 5.1.4 6.2 2.6 8.3 1.5 1.4 3.7 2.5 4.8 2.5 1.2 0 2.6.4 3.2.9 1.6 1.5 11.2 3.1 18.7 3.1 7.3 0 7.3 0 11.6 4.4l4.3 4.4-.7 7.3c-.4 4.1-.8 29.5-1 56.5l-.4 49.1 3.5 3.8c1.9 2.1 3.4 4.5 3.4 5.2 0 2.2 5.7 5 10.9 5.2 4.4.1 5.1-.2 7.5-3.3 1.4-1.9 2.6-3.8 2.6-4.1 0-.4 1-1.9 2.3-3.4 2.2-2.7 2.3-2.8 1.9-30.7-.3-28.1-.2-69.5.2-76.9.1-2.2.3-5.2.4-6.6.2-2.9 5.1-8.5 8.5-9.8 1.2-.5 6.4-1.2 11.5-1.5 5.1-.4 10.7-1 12.5-1.2 1.8-.3 3.9-.6 4.7-.7 3.5-.4 8.3-5.4 8.9-9.3 1.4-8-1.8-16.4-6.1-16.4-1 0-1.8-.4-1.8-.9 0-.6-1.9-1.2-4.2-1.5-9-1.1-18.4-1.7-18.9-1.1zM811.1 3340.9c-.1.9-.8 1.1-2.2.8-1.7-.5-2-.2-1.6 1.3.5 1.9-1.6 3-5.9 3-1.5 0-2.4.9-3 2.7-.9 3.1-.6 144.4.3 151.1.9 6.6 4.6 8.7 14.9 8.6 8.7 0 10.4-.8 11.8-5.4 1.4-4.3 1.7-147.8.4-153.2-1.2-4.7-3.3-6.7-5.1-4.9-1.2 1.2-3.7.3-3.7-1.4 0-.7-.7-1.8-1.6-2.6-1.3-1-1.7-1-2.4 0-.6 1.1-.9 1.1-1.3 0-.5-1.2-.6-1.2-.6 0zM1887.1 3343c-1.3 1.8-3.3 3-4.6 3-3.5 0-4.8 2.5-5.2 10-.4 7.3.9 10 4.8 10 1.1 0 3.4.7 5.1 1.6 2.9 1.5 5.3 1.5 12.2 0 7-1.6 8.1-3.8 7.4-13.8-.4-5.5-.8-6.3-3.9-8.9-2.4-2-4.1-2.6-6-2.2-1.6.3-3-.1-3.8-1.1-1.9-2.3-3.3-2-6 1.4zM3272 3341c0 .5-1.1 1-2.5 1-8.1 0-12.4 17.3-6 24 1.4 1.5 3.1 2.7 3.8 2.8.6 0 3.2.6 5.6 1.3 4 1.1 4.6 1.1 6-.8.9-1.1 2.9-2.8 4.4-3.8 3.5-2.3 5.9-6.6 4.7-8.6-.5-.7-.7-2.4-.3-3.7.4-1.8-.6-3.3-5.3-7.7-5.4-4.9-10.4-7.1-10.4-4.5zM756.5 3342c-.3.5-1 .8-1.5.5-.5-.3-1.2-.1-1.5.5-.5.8-1.2.7-2.2-.2-1.3-1-2-.7-4.3 2.1-1.5 1.9-3.2 3.1-3.8 2.7-.7-.4-1.8.8-2.9 3.1-1.5 3.5-1.7 9.8-1.6 75.7v71.9l2.2 1.8c1.1.9 2.1 2.2 2.1 2.8 0 .5 1.1 2.1 2.4 3.5 2.1 2.3 3.1 2.6 9.4 2.6 6.4 0 7.2-.2 9.1-2.7 1.2-1.4 2.4-3.8 2.8-5.2.3-1.4 1-3.1 1.5-3.8.9-1.1 2.1-81.4 1.5-100.8-.4-14.5-.1-31 .6-33.8.6-2.1.4-2.7-.8-2.7-1 0-1.5-1-1.5-2.8 0-4.3-6.1-15.6-8.7-16-1.1-.2-2.4.2-2.8.8zM1167 3344c-1.4 1.1-3 1.8-3.7 1.5-.7-.2-1.5 0-1.8.5-.4.6-1.7 1-2.9 1-1.3 0-2.8.6-3.4 1.3-.7.8-1 24.8-.9 74.7l.2 73.5 3.2 1.5c1.7.8 3.4 2.5 3.8 3.8 1.2 4.6 4 6.2 10.9 6.2 7.3 0 7.9-.5 10.3-8.1 1.7-5.5 2.1-14.1 2.6-62.9.2-11.3.7-21.6 1.1-23 1.6-4.6 5.1-5.4 6.6-1.5.6 1.5 2.1 2.7 4.2 3.3 3.3.8 4.4 2.1 15.3 17.9 3.1 4.5 7.3 9.4 9.3 10.9 2.1 1.6 3.9 3.1 4.2 3.4 1.3 1.5 6.6 4.4 7.6 4.2.7-.1 1.4.4 1.8 1.3.9 2.4 5.5 1.8 9.1-1.3 1.8-1.5 4.5-3.5 5.9-4.5 1.5-1 3.3-3.3 4-5.2.8-1.8 2.6-4.1 4.1-5.1 1.5-1 3.5-3.6 4.5-5.9 1-2.3 3.4-5.9 5.5-8.1 2-2.1 5.3-6.4 7.4-9.6 4.1-6.3 5.3-6.3 8.6.2 1.8 3.4 2.1 12.9 2.5 74.8 0 8.1.1 8.3 2.8 9.3 1.5.5 3.7 2.6 5 4.9 2.6 4.5 4.8 5.4 11.2 4.2 6.5-1.1 9.6-6 10.9-17.3.8-6.8.8-38.5 0-68.4-.1-2.2-.1-12.3-.1-22.5.2-41.5 0-45.2-2.8-49.4-2-2.9-3.1-3.6-5.2-3.4-1.8.2-3.3-.4-4.3-1.7-1.5-2-1.5-2-3 0-1.1 1.3-2.5 1.9-4.4 1.7-1.6-.2-3.2.1-3.6.7-.3.6-1.7 1.1-3.1 1.1-1.3 0-2.4.6-2.4 1.3 0 3.3-3.9 8.8-11.9 16.7-4.7 4.7-10.2 11.2-12.1 14.3-1.9 3.1-3.8 5.7-4.2 5.7-1.6 0-4.6 3.9-5.9 7.4-.7 2-1.9 3.6-2.6 3.6-.7 0-2.4 1.7-3.8 3.7-5.3 8.1-6.8 9.4-10.4 8.7-1.8-.4-3.5-1.3-3.8-2-.3-.8-1.4-1.4-2.4-1.4-1.7 0-3.9-2.6-9.3-11.4-1.1-1.7-2.6-3.5-3.3-3.9-2.5-1.5-5.5-5.2-6.5-7.9-.5-1.4-2.6-3.8-4.7-5.2-3.7-2.6-6.1-6.2-6.1-9.2 0-.8-1.6-2.2-3.5-3.1-2.5-1.2-3.5-2.3-3.5-4 0-1.6-.8-2.7-2.5-3.3-1.4-.5-2.5-1.7-2.5-2.6 0-.8-2.3-3.8-5.2-6.5-4.3-4.1-5.7-4.9-7.9-4.4-1.7.4-3 .1-3.9-1-1.6-1.9-2-1.9-5 .5zM2316 3345.2c-1.9 1-4.7 1.8-6.2 1.8-3.2 0-3.6.5-4.3 5.6-1.1 7.1-3.5 13-6.7 16.3-2.6 2.7-3.3 4.4-4 9.8-.4 3.6-1.6 8.2-2.6 10.2-1.1 2-2.5 5.4-3.2 7.6-.7 2.2-2.3 5.8-3.5 8-1.2 2.2-2.8 6.6-3.4 9.8-.8 3.6-2.1 6.6-3.6 8-2.1 2-7.1 15.7-5.7 15.7.3 0-.1.6-1 1.2-.9.7-1.9 3-2.3 5.2-.3 2.1-1.5 5.1-2.6 6.6s-2.9 6-4 10.1-2.5 8.7-3.3 10.4c-5.2 11.3-5.6 12.6-5.6 19 0 7.7.7 9.3 6.3 14.6 6.3 5.9 9.4 5.5 16.7-1.9 4.3-4.3 5.9-6.7 6.4-9.7 1-5.1 3.2-10.1 6.7-14.6 1.5-1.9 3.1-4.7 3.4-6.2 1.1-4.2 3.7-5 15.4-4.7 5.8.1 16.2.2 23.1.3 13.3.2 19 1.8 19 5.5 0 .9.7 2.5 1.5 3.6.8 1 1.7 3.8 2.1 6.2.3 2.5 1 4.7 1.5 5 .5.3.9 1.4.9 2.4 0 1.1 1.4 3.6 3.2 5.6 1.8 2 4.1 5.5 5.3 7.8l2.1 4.1 7.3-.4c7.2-.3 11.1-2 11.1-4.7 0-.7 1.4-2.4 3-3.7 3.8-3.2 3.9-7 .5-13.8-1.4-2.7-3.7-9.4-5.1-14.7-1.3-5.3-3.4-10.9-4.4-12.4-1.1-1.5-2-3.4-2-4.3 0-.9-.6-2.3-1.4-3-.8-.8-2.1-4.8-3.1-9-.9-4.2-2.6-8.7-3.9-10.3-2.6-3.2-5.2-9.3-6.1-14.2-1.2-6.3-2.9-10.4-5.7-13.2-1.9-2.1-2.9-4.6-3.9-10-1.2-7.3-3-10.8-5.6-10.8-1.6 0-3.3-4.1-3.1-7.3.3-4.4-4.7-17.2-8.1-20.4-1-1-2.1-3.1-2.5-4.8-1.1-4.4-2.4-5.5-6.5-5.5-2 0-4.7-.6-6.2-1.3-2.2-1.2-3-1.1-5.9.5zm4.5 62.7c-.2.5.4 1.6 1.5 2.6s2 2.3 2 2.9c0 .6 1.6 2.2 3.5 3.5 2.3 1.5 3.8 3.6 4.5 6 1 4.1.7 11.8-.6 13.1-.5.4-3.8 1.1-7.4 1.5-5.7.6-6.9.4-9-1.3-2.2-1.8-2.4-2.6-2.2-9.2.4-10.6 1.9-17.2 4.3-19.2 2-1.7 4.5-1.6 3.4.1zM2559 3355.1c-7.1.9-8.8 1.6-9.5 4.2-.4 1.2-2.2 7.1-4.1 13.2-3.1 9.8-3.8 11.2-6.9 13.2-1.9 1.3-4 2.3-4.6 2.3-.6 0-2.3.7-3.8 1.6-2.1 1.2-2.7 2.2-2.3 3.9.2 1.3 0 3.1-.6 4.1-2.1 3.8 1.8 10.1 8 12.8 1.8.7 5.1 3.2 7.3 5.5l3.9 4.1.2 26.8c.1 14.7.4 27.6.7 28.7.2 1.1.8 3.9 1.2 6.2.9 5.7 10 15.4 16.2 17.3 2.5.8 4.5 2.1 4.9 3.2 1.1 3.5 5 5.1 13.4 5.2 6.4.1 8.3-.3 10.6-1.9 3.5-2.7 5.8-9.8 4.4-13.9-.6-1.6-1-3.8-1-4.8 0-2.4-2.5-5-7.1-7.6-11.1-6.2-12.2-7.4-12.9-13.7-1.1-10.3-.6-45.1.7-46.7.7-.8 4.5-2.5 8.5-3.8 4-1.4 8.1-3.3 9.1-4.4 2.6-3 4.8-11.3 4.1-16-.9-5.9-2.6-7.3-9.8-8.1-4.7-.5-6.9-1.2-8.5-2.9-3-3.2-4.9-10.6-4.6-17.5l.3-6-3.6-1.6c-2.1-.9-4.8-2.2-6.2-2.9-1.7-.8-4.3-1-8-.5zM3098.1 3356.4c-1.4 1.4-3 2.6-3.7 2.6-2 0-5.2 8-5.9 15-.8 8.7-1.5 11-2.9 11-2.6 0-10.5 6.2-12 9.5-.9 1.9-2.1 3.7-2.6 4-.6.3-1 1.7-1 3 0 1.8.9 2.9 3.5 4.1 1.9.9 3.5 2 3.5 2.4 0 .4.8 1 1.8 1.2.9.3 3.7 3 6.1 6.2l4.4 5.7.3 25.7c.4 34.3.6 35.5 5.4 40.2 2.2 2.1 4.2 5 4.6 6.4.4 1.8 1.5 2.7 3.7 3.2 5.2 1.1 10 3.6 14.4 7.6 3.7 3.3 4.9 3.8 9 3.8 5.7 0 11.6-2.7 12.2-5.5.2-1.1 1.2-3.3 2.3-4.8 1.4-2 1.8-3.6 1.3-5.5-.3-1.5-.9-3.9-1.2-5.4-.6-2.9-4.8-6.6-10-8.7-1.8-.8-3.3-1.7-3.3-2.1 0-.5-1.3-2.2-2.9-3.8-6.7-6.6-7.1-8.8-6.9-30.4.3-22.1.4-22.2 8.5-25.9 2.3-1 4.5-2.3 4.8-2.9.3-.5 1.4-1 2.3-1 .9-.1 3.3-1.4 5.2-3 1.9-1.7 3.8-3 4.3-3s1.5-.7 2.4-1.5c1.4-1.4 1.4-2-.2-6.1-.9-2.5-1.4-4.8-1.1-5.1.9-.9-1.4-3.3-3.2-3.3-.8 0-2.3-.6-3.1-1.3-.9-.8-3.7-2-6.2-2.6-7.2-2-12.3-9.7-13.4-20.5-.7-6.5-.9-6.7-4.5-8.6-2-1-5.9-2.2-8.6-2.5-4.4-.6-5.1-.4-7.3 1.9zM2657 3386.5c-4.1.6-9.1 1.9-11 2.9-4.2 2.2-11.6 8.8-14.7 13.1-1.3 1.6-4 5-6 7.4-4.3 4.9-4.7 6.1-6.9 18-.8 4.6-2.3 9.6-3.4 11.1-1.4 2-2.1 4.7-2.2 9.4-.2 5.5.1 6.9 2 8.8 1.5 1.7 2.5 4.9 3.5 10.8 1.7 9.8 2 11.3 2.8 12 1.6 1.5 7.9 10.5 7.9 11.4.1 2 4.4 6.2 7.7 7.5 1.7.7 4 2.2 5 3.3.9 1.1 4.1 3.1 7 4.4 4.3 2.1 7.2 2.6 16.7 3 6.4.2 15.4 0 20.1-.5 8.1-1 8.8-1.3 14.3-5.7 3.1-2.6 6.3-4.9 7-5.1.7-.3 1.9-1.8 2.7-3.3.8-1.6 2.9-4.3 4.6-6.2 4-4.4 6.4-9.1 7.8-15.7.6-3 1.7-6.1 2.4-6.9 1.3-1.6 2.3-8.7 3.3-23 .7-10.1-.4-15.8-3.8-18.8-1-1-1.8-2.4-1.8-3.3 0-.9-1.1-4.7-2.5-8.4-1.8-5-3.7-8-7-11.3-2.5-2.4-5.1-4.4-5.7-4.4-.6 0-2-.7-3-1.7-4.1-3.7-9.8-6.2-15.5-6.8-2.4-.2-4.7-.7-5.2-.9-.4-.3-4.5-.8-9.2-1.1-4.6-.4-8.6-.8-8.9-.9-.3-.2-3.9.2-8 .9zm29.8 32.6c1.2.8 2.7 3 3.3 4.9.7 1.9 2 5.1 3 7 1.1 1.9 1.9 4 1.9 4.6 0 .6.7 2.5 1.6 4.2.8 1.8 1.3 4 .9 5.1-.3 1-.6 4-.7 6.5 0 3.2-.6 4.9-1.7 5.5-.9.5-2.2 3.1-3 5.8-.7 2.6-1.8 6.5-2.4 8.5-1.2 4.5-3.2 6.5-7.2 7.3-4.6 1-19.1.6-22-.5-1.5-.6-3.1-.8-3.6-.4-.5.3-2.2-.7-3.7-2.3-2.4-2.4-3.1-4.5-4.6-13.5-3.8-21.9-.9-35.9 8.7-42.2 4.1-2.7 4.5-2.8 15.7-2.3 7.4.2 12.3.9 13.8 1.8zM2993.5 3386.6c-12.1 2.2-12.9 2.6-17 6.3-2.2 2.1-5.2 4.5-6.7 5.4-1.6 1-2.8 2.6-2.8 3.7 0 2.6-1.9 5.9-4.7 8.2-3.7 3.1-7.4 10.5-7.9 16.1-.8 7.7-1.2 9.4-3 11.1-2.3 2.3-2.4 5.6-.3 15.7 1 5 1.5 9.8 1.2 10.6-.4 1-.2 1.4.5.9.7-.4 1.3 1 1.7 4.1.4 2.7 1.6 6.3 2.6 8.1 1 1.8 1.9 3.7 1.9 4.2s2.3 4.4 5.1 8.5c3.9 5.9 6 8 9.5 9.6 2.4 1.2 4.4 2.5 4.4 2.9 0 1.4 8.7 5.8 12.7 6.4 6.3 1.1 32.5.9 37.1-.2 2.4-.6 5.1-1.7 6.1-2.6 1-.9 2-1.6 2.3-1.6 1 0 10.3-9.8 14.1-14.9 2.1-2.8 4.9-8.4 6.3-12.4 1.5-3.9 3.3-8.4 4-9.9 1.4-2.7 2.3-6.5 2.8-11.9.2-1.4.5-3 .8-3.5.3-.5.4-5.5.2-11.1-.3-10.1-1.6-14.4-5-16.6-.7-.4-1.5-2.6-1.9-4.9-.4-2.2-1.3-5.4-2-7.1-1.5-3.5-11.3-14.7-13-14.7-.7 0-2.4-1.1-3.8-2.4-5.5-5.1-12.4-7.3-24.2-7.9-6.1-.3-11.7-.8-12.5-1-.8-.2-4.6.2-8.5.9zm23.9 31.6c5.4 1.5 6.2 2.2 8.8 7.4 1.2 2.4 2.5 4.4 2.8 4.4 1.5 0 2.9 5.1 3.5 12.8.6 6.9.5 8.7-1.2 12.4-2.5 5.2-3.7 8.8-5.3 15-.7 2.6-1.8 5.2-2.4 5.7-.6.5-4.5 1.6-8.8 2.5-8.5 1.8-14.5 1.1-22.4-2.3-5-2.3-7.3-6.2-8.2-14.1-.2-2.5-.9-5.1-1.5-5.8-1.5-1.9-1-9.3 1.3-18 1.1-4.2 2-8.6 2-9.9 0-1.3.7-2.6 1.5-2.9.8-.3 1.7-1.4 2-2.5.4-1.1 2.3-2.8 4.3-3.9 4.4-2.3 17-2.7 23.6-.8zM899.5 3387.6c-8.9 1.1-13.5 2.6-13.5 4.4 0 .5-1.6 1.7-3.6 2.6-5.6 2.7-22.6 20.9-23.7 25.4-.3 1.4-1.1 6.5-1.7 11.5-.6 4.9-1.6 9.3-2.2 9.6-1.5 1-2.2 19.9-.8 19.9.6 0 .8.5.5 1-.4.6-.2 1.6.3 2.3.6.7 1.3 3.4 1.7 6.2 1.1 7.2 2 9.2 7 14.7 2.5 2.8 4.5 5.8 4.5 6.7 0 2.5 4.1 5.7 8.1 6.5 2 .3 4.6 1.7 5.9 3.1 1.3 1.4 2.8 2.5 3.3 2.5s2.2.9 3.7 2c3.3 2.3 12.4 3.3 29.5 3 13.5-.1 16.4-.9 24-5.9 3.3-2.2 6.6-4.1 7.3-4.1.8 0 2.9-.7 4.8-1.6 2.8-1.3 3.4-2.2 3.4-4.8 0-1.7.6-4 1.4-5.1 2.1-3.2.6-13.3-2.5-16.1-1.4-1.3-3.2-1.5-8.5-1.2-5.9.4-6.9.7-9.3 3.5-1.4 1.7-5.2 4.5-8.5 6.3-5.3 2.9-6.6 3.2-15.5 3.3-8.1.1-10.2-.3-13.6-2.1-2.2-1.2-5.4-2.5-7.1-2.8-5.5-1-7.4-3.7-7.4-10.3 0-4.7.4-6.1 2.3-7.8 2.1-2.1 3.3-2.2 34.7-2.5 35.9-.3 34.7-.1 41.3-7.2l3.9-4.1-.7-10c-.4-5.5-.8-11.1-1-12.5-.2-1.4-.4-2.8-.4-3.2-.1-.4-1.7-2.4-3.6-4.5-1.9-2.1-5.1-6.6-7.1-9.9-2.5-4.3-5.3-7.3-9.2-10.1-5.9-4.1-13.2-7.8-17.3-8.8-4.6-1.1-21.5-1-30.4.1zm24.7 26.9c6.7 1.8 11.8 4.1 13 5.9 1.3 1.9.9 14.3-.4 15.3-2.3 1.8-8.5 2.4-26.9 2.4-21.8-.1-22.9-.5-22.9-7.9.1-2.6.9-6.3 1.8-8.2 1.6-3.2 2.4-3.7 10.2-5.9 4.7-1.3 8.6-2.7 8.8-3.1.4-1.1 9.3-.3 16.4 1.5zM1000.1 3388.3c-10.2 4.2-9.6.4-9.4 58.4l.3 50.6 5 4.8c5.7 5.5 8 6.4 14.1 5.5 6.6-.9 9.2-4.2 10.3-13.1.9-7 1.1-42.5.2-51.4-.5-5-.3-8.4.5-10.3 1.2-3 5.7-6.1 10.1-7.2 1.4-.3 4-2 5.7-3.6 2.2-2.2 4.9-3.5 9.8-4.6 7.2-1.7 14.3-4.3 14.3-5.3 0-.3 1.2-2 2.6-3.6 4.9-5.6 5.6-7.2 4.5-9.4-.6-1.1-1.1-3-1.1-4.3 0-3.8-6.2-7.1-14.1-7.6-7.4-.5-11.1.8-16.9 5.8-1.9 1.6-4.3 3-5.3 3s-2.8.5-3.9 1.1c-1.8 1-2.5.8-3.9-1-.9-1.1-2.2-2.1-2.8-2.1-.6 0-1.5-.9-2.1-2.1-1.1-2-5-4.1-10-5.2-1.5-.4-4.7.3-7.9 1.6zM1393.9 3387c-5.9.7-15.9 5.5-15.9 7.5 0 .7-1.5 1.6-3.4 1.9-4.3.8-8 3.7-9.5 7.5-.7 1.6-2.1 3.1-3.2 3.4-1 .3-2.8 2.5-3.9 4.9-1.2 2.3-3.4 6.5-5 9.3-4.9 8.4-6.2 14.6-6.3 28.5-.1 16.8 3 27 10.2 33.4 1.1 1.1 2.1 2.6 2.1 3.4 0 3.6 9.1 12.2 13.3 12.6.4.1 2.6 1.9 4.8 4.1 3.5 3.5 4.6 4 10.7 4.6 3.7.5 13.7.8 22.2.8l15.6.1 6.9-3.5c9.7-4.9 15.9-8.7 16.4-9.9.2-.6 2.2-2.8 4.3-4.9 3.2-3.2 3.8-4.4 3.8-8-.1-2.8-.8-5.1-2.3-6.9-2.2-2.6-9.1-5.8-12.8-5.8-2.8 0-6.9 2.2-6.9 3.6 0 1.2-13.6 8.4-15.8 8.4-.5 0-1.7.8-2.6 1.9-2 2.2-8.5 1.8-15.7-1-2.6-1-4.9-1.6-5.1-1.4-.2.2-2.6-.8-5.3-2.3-3.9-2.1-5.1-3.3-5.3-5.4-.2-1.8-1.5-3.4-3.8-4.8-2.8-1.8-3.4-2.8-3.4-5.5 0-2.3.6-3.7 1.8-4.3.9-.5 17.8-1.2 37.4-1.4 39.2-.5 38.7-.5 40.3-6.5.3-1.5 1.5-3.8 2.6-5.1 2.3-3 2.4-5 .3-7.4-1.6-1.7-1.7-3-1.2-15.1.2-5.5-2.9-13.1-6.9-16.7-2.1-1.9-4.7-4.7-5.6-6.1-.9-1.5-2.8-3-4.3-3.3-1.6-.4-4.2-2-6-3.6-5.4-4.7-12.5-6.7-25.4-7.3-6.3-.2-14-.1-17.1.3zm23 25.9c1.4.9 4.1 2.3 5.9 3.1 5.2 2 7.2 5.4 7.2 12.1 0 5.2-.3 6-2.9 7.8-2.7 1.9-4.3 2.1-22.1 2.1-15.6 0-19.8-.3-22.6-1.6-3.5-1.7-4.2-2.8-2.4-3.9.6-.3 1-1.7 1-3 0-3.6 3.7-10 6.4-11.3 1.3-.6 4.4-1.6 6.7-2.2 2.4-.7 5.3-2 6.5-2.9 3.2-2.5 12.8-2.6 16.3-.2zM1527.3 3387c-5.8 1.2-11.1 4.2-15.8 8.9-2.2 2.2-4.3 4-4.7 4.1-.4 0-3.6 2.8-7.1 6.2-6.8 6.6-10.7 12.1-10.7 15.1 0 .9-.4 2.5-.9 3.5-1.9 3.4-5.1 13.3-5.1 15.8 0 1.4-.9 4.3-2 6.4-2.6 5-2.1 8.7 1.9 16.5 1.7 3.3 3.1 6.6 3.1 7.2 0 2.8 7 16.3 8.4 16.3.8 0 2.8 2.3 4.5 5 1.7 2.8 3.9 5.3 4.9 5.6.9.2 6.4 2.8 12 5.7l10.4 5.2 14.1.3c13.6.3 21.7-.8 21.7-3 0-.4 1.6-1.6 3.5-2.5 1.9-.9 3.5-2.2 3.5-2.9 0-.7 1.8-1.5 4-1.9 4.3-.7 7.2-3.7 8.4-8.9.4-1.7 2.1-4.5 3.7-6.4 4.1-4.7 4.9-7.1 4.9-15.7 0-6.9-.2-7.7-3.1-11-1.7-1.9-3.6-3.5-4.3-3.4-.6.1-1.9-.1-2.9-.6-2.6-1.1-8.2.3-10.2 2.5-1 1.1-2.6 2-3.6 2-1.9 0-4.1 3.5-5.2 8.1-.4 1.4-3.3 5.1-6.6 8.2-5.8 5.5-6.1 5.7-11.5 5.7-10.8 0-15.6-1.6-20.8-7.1-6.6-7-10.8-16-10.8-23.3 0-5.1.4-6.1 3-8.8 1.7-1.6 3-4 3-5.2 0-2.9 3-6.8 7.3-9.5 1.8-1.1 3.9-3.1 4.6-4.5 1.2-2.1 2.4-2.6 7.6-3.1 6.9-.8 14.5.1 14.5 1.7 0 1.6 4 4.7 9.5 7.3 9.4 4.6 18.7 2.9 22.4-4.2 2.6-5 .5-13.9-4-17.1-1.1-.8-2.3-2.2-2.7-3.2-1-2.4-10.8-10.2-16.4-12.8-3.8-1.9-6.8-2.4-16.5-2.7-6.5-.2-13.7 0-16 .5zM1659 3387.1c-6.3.8-9.1 2.2-13.6 6.4-2.1 2.1-5.5 4.3-7.4 5-3.2 1.1-4.3 2.4-8.5 9.7-.8 1.5-2.4 3.2-3.4 3.7-1.1.6-2.6 3.6-3.7 7.1-1 3.3-2.1 6-2.5 6-.4 0-1.1 1-1.5 2.2-.4 1.3-1.7 3.7-3 5.3-1.3 1.7-2.7 5.1-3.3 7.6-1.3 5.8-1.6 20.3-.6 29.3.8 6.9 4.5 16.3 6.9 17.2.6.2 2.3 2.4 3.6 4.9 1.7 3.1 3.6 4.9 6.4 6.1 5.2 2.3 11.7 6.3 13.3 8.3.9 1 4.5 1.7 12.5 2.2 14.2.9 20.8-.2 20.8-3.5 0-.7 3.1-2.5 6.9-4.1l6.9-2.7 6.6 4.6c8.6 6 13.1 6.3 18.2 1.2 1.9-1.9 4.4-3.8 5.4-4.1 1.1-.4 2.3-1.8 2.7-3.2.3-1.5.3-19.3 0-39.7-1-55.3-2.1-58.2-24.8-66.1-9.4-3.3-11.6-3.6-21.9-3.8-6.3-.1-13.5 0-16 .4zm23.6 32c5.1 2.4 6.5 5.6 7 16.8.5 10.4 1.1 15.8 1.8 16.9.9 1.4-2 4.8-5.4 6.2-1.8.7-3 2-3 3.1 0 3.5-2.3 6.8-5.1 7.4-2.8.6-7.9 4.7-7.9 6.3 0 1.4-3.7 2.2-9.6 2.2-5.4 0-9.7-2.3-10.8-5.8-.3-.9-2-2.3-3.7-3.1-4.1-1.8-5-4.7-4.6-15.3.4-7.9.7-9.2 2.8-11.3 3.9-3.9 4.5-4.9 5.3-8.5.6-3.3 7.5-11 9.7-11 .5 0 1.4-1.1 2.1-2.5 1.3-2.9 2.4-3.2 10.7-3.4 4.7-.1 7.7.5 10.7 2zM1889.8 3387c-2.4.4-5.1 2-7.4 4.4-5.2 5.4-5.2 5.2-4.6 83.4l.2 22.2 2.8 2.9c1.5 1.6 3.9 4.3 5.4 6 2.6 2.9 3 3 9 2.6 3.5-.2 6.5-.5 6.8-.5.7 0 2.7-4.8 4-9.7.6-2.5 1.2-17 1.4-34.8.2-25.1.5-30.8 1.7-31.6 1.1-.7 1.1-.9.1-.9-.7 0-1.1-.4-.8-.8.3-.5.8-6.3 1.2-13 .5-9.3.3-12.6-.7-13.8-.7-.8-1.4-3-1.5-4.7-.5-5.7-1.6-9.6-2.9-10.7-1.7-1.4-10-2-14.7-1zM1983.8 3387.5c-3.7.5-7.3 1.6-8 2.2-.6.7-2 1.3-2.9 1.3-.9 0-2.2.7-2.9 1.5-.7.9-3.7 2.7-6.6 4-3.5 1.6-5.6 3.2-6 4.7-.3 1.3-2.9 4.1-5.8 6.4-2.8 2.2-5.2 4.9-5.4 6-.2 1-1.7 3-3.4 4.4-2.7 2.3-3.1 3.5-4.3 12-1.7 12.4-1.9 29.1-.5 37.4.8 4.2 2.3 8.2 4.3 11.2 1.8 2.6 4 6 4.9 7.6 1 1.5 3.6 4.4 5.9 6.5 2.3 2.1 4.7 4.3 5.3 4.8.6.6 3.9 3 7.4 5.3 5.8 3.9 7.2 4.4 15.5 5.3 12.8 1.5 28.4.8 32.2-1.3 1.7-.9 4.4-2.3 6-3.1 2.9-1.4 9.1-7.1 14.6-13.3 1.4-1.6 3.1-4.9 3.8-7.4.7-2.4 2.2-5.5 3.2-6.9 2.9-3.6 2.6-11.5-.5-15.6-1.4-1.8-2.8-4.4-3.1-5.8-.7-2.8-1.9-3.4-7.3-3.6-4.3-.2-10.5 4.8-12.6 10.1-.9 2.1-2.3 4.1-3.2 4.5-.8.3-2.6 2.7-3.9 5.2-1.3 2.6-3.1 5.3-3.9 6-1 .8-5.7 1.5-12.4 1.9-8.8.4-11.4.2-14-1.2-1.8-.9-3.2-2.4-3.2-3.2 0-.9-1.8-3.3-4-5.3-5-4.5-7-10.3-7-19.7 0-8.6 3.1-16.9 7.8-20.8 1.5-1.4 3.6-4 4.7-5.9 2.3-4.3 6.7-5.7 17.9-5.7 7.2 0 7.6.1 9 2.8 2.1 4.1 4.7 6 9.8 7.1 2.6.6 5.8 1.6 7.3 2.3 1.8.8 2.9.9 3.3.2.4-.6 2.3-1.4 4.1-1.8 6.6-1.2 7.8-2.7 8-9.9.1-6.3 0-6.7-3.9-10.8-2.2-2.4-4-4.8-4-5.5 0-1.1-7.9-5.4-10-5.4-.5 0-1.2-1.1-1.6-2.4-.7-3.1-3.4-4.3-12.4-5.5-12.2-1.7-15.2-1.8-22.2-.6zM2117.9 3387.1c-8.9.7-16.2 3.4-19.5 7-.9 1-2.3 1.9-3 1.9-.7 0-2.8 1.3-4.6 2.9-1.8 1.6-5.3 4.6-7.7 6.7-2.4 2.2-5 5.4-5.8 7.1-.7 1.8-2 3.3-2.8 3.3-2.1 0-4.2 3.8-5 9.2-.3 2.7-.9 4.8-1.3 4.8-3.3 0-7.1 17.8-6.7 30.7.3 8 .8 10.1 4 17 5.6 12.1 5.7 12.2 7.7 12.9 1 .3 1.8 1 1.8 1.5 0 1.2 5.1 6.9 6.2 6.9.5 0 4.5 2.1 9 4.7 7 4 9 4.7 15 5.1 10.3.6 17.9-.5 18.5-2.9.3-1 1.3-1.9 2.2-1.9 1 0 3.1-1.6 4.8-3.5 2.9-3.2 7.3-4.8 7.3-2.5 0 .5 1.7 1.2 3.8 1.6 5.2.9 7 2 8.7 5.4 1.3 2.4 2.2 3 4.9 3 1.9 0 4-.8 5-1.9 1-1.1 2.5-1.6 3.9-1.4 1.8.3 2.6-.4 4.2-3.9 1.9-4.1 2-6.1 1.7-49.3-.2-33-.6-45.7-1.5-47.8-.7-1.7-2.9-3.7-5.5-5-2.4-1.2-4.8-2.9-5.2-3.8-.5-.9-3.1-2.2-5.7-2.8-2.6-.7-6-1.9-7.5-2.7-2.4-1.3-6-1.9-15.3-2.7-1.6-.2-6.8 0-11.6.4zm18.5 32.2c3.6 2.4 4.8 8 5 23.2.1 12.3 0 13.2-2.4 16.5-3.1 4.4-12.1 13-13.6 13-.6 0-1.7.7-2.4 1.5-.7.9-2.8 2.3-4.6 3.1-2.8 1.4-4.4 1.4-9.6.5-5.6-1-6.8-1.6-11-6.1-2.7-2.7-4.8-5.4-4.8-5.9s-.4-1.1-1-1.3c-.5-.2-1.4-2.4-1.8-4.9-.9-4.9.1-8.4 4.6-14.7 1.2-1.6 2.7-5 3.4-7.6 1.1-4.3 2.6-6.3 9.8-13.1l3.7-3.7c2.1-2.3 4.4-2.7 13.9-2.4 5.7.2 9 .8 10.8 1.9zM2417.1 3388.6c-1.1 1.4-1.8 3.1-1.5 3.9.3.7.1 1.6-.5 2-.6.3-1.1 1.7-1.1 2.9 0 1.3-.7 2.9-1.5 3.6-.8.7-1.5 2-1.5 3s-.9 3.9-2.1 6.5c-1.9 4.3-2.1 6.7-2.2 28.3l-.2 23.7 3.3 6.4c1.8 3.4 4.2 9.1 5.4 12.4 1.2 3.4 2.9 7.4 3.8 8.9 1.7 2.8 9.2 8.8 10.9 8.8.6 0 2.9 2 5.3 4.4l4.3 4.3 11.6.6 11.7.7 4.3-3.4c2.4-1.8 5.5-3.7 6.9-4.1 1.4-.4 3.6-1.6 5.1-2.6 3-2.1 4.4-1.4 6.7 3.1 1.8 3.6 5.4 5.3 13.6 6.5 4 .6 4.8.4 6.9-1.9 1.4-1.5 3.7-6.5 5.1-11.1 2.7-8.6 2.8-13.2 1.5-43-.1-.6.5-2.4 1.2-4.2 1-2.5 1-4.1-.1-8.6-.8-3.4-1-7.6-.6-10.9.3-2.9.7-5.8.7-6.3.4-4.3-1.3-18-2.6-20.4-.8-1.7-1.5-3.7-1.5-4.5 0-2.9-4.3-9.8-6.6-10.6-3.7-1.5-17.3.3-17.9 2.4-.3.6-.6 3.9-.8 7.4-.3 4.7-.9 6.7-2.5 8.2-1.9 1.8-2 2.7-1.5 13.2.3 6.2.4 13.1.4 15.3-.1 2.2-.3 9.7-.5 16.7-.4 12.1-.6 13-3.7 18.8-1.8 3.4-4.2 6.8-5.4 7.6-2.6 1.7-15.8 2.9-20.9 2-2.7-.5-4-1.4-4.8-3.4-1.3-2.8-6.3-8.2-7.8-8.2-1.6 0-2.3-11.1-1.6-26.4.3-8.3.8-16.7 1.1-18.6 1.6-11.2 2-17.9 1.3-21-.4-1.9-1-5.2-1.3-7.3-.8-4.8-3.3-6.3-11.7-7-6.3-.6-6.8-.5-8.7 1.9zM2765 3386.8c-1.9.2-3.9.8-4.4 1.3-.6.5-2 .9-3.3.9-1.3 0-2.6.6-2.8 1.2-.4 1.1-1.6 18.5-1.6 22.8v13c-.1 6.3 0 11.9 0 12.5.6 7.2.8 34.6.2 34.9-.8.5-.7 3.5.4 16 .5 6.1 1 7.3 3.8 10.1 1.8 1.7 4.3 4.4 5.5 5.9 2.1 2.5 2.8 2.8 6.5 2.2 2.3-.4 5.1-1.6 6.3-2.6 1.1-1.1 2.5-2 3.1-2 .6 0 1.7-1.9 2.6-4.3 1.2-3.5 1.5-9.3 1.3-33.7-.3-41.1.8-45.4 11.7-47.9 5.7-1.3 19.7-.8 23.8.8 2.3.8 2.8 1.9 3.8 7.4.6 3.5 1.1 7.3 1.1 8.5 0 1.1.5 2.4 1.1 2.7.6.4.8 1.3.5 2.1-.3.8 0 1.4.7 1.4.8 0 .7.3-.2.9-1.2.8-1.2 1.2-.2 2.5 1 1.2 1.1 5.6.6 19.8-.4 10.1-.6 20-.6 22 .1 2.1-.2 4.6-.8 5.5-1.3 2.6 4.5 12.1 9.7 15.7l4.2 3 6.2-2c9.1-2.9 9.1-3 9.3-44.1.2-32.8.3-33.2 2.6-38 4.3-8.6 14.1-11 29.4-7.1 4.2 1.1 5.3 1.9 6.7 4.8 2.1 4.4 3.7 21.3 3.3 34.5-.4 11-.6 28.1-.6 36.2.1 3.9.5 5.3 1.5 5.3.8 0 2.7 2 4.3 4.5 1.5 2.5 3.2 4.4 3.8 4.3.5-.1 2.2.2 3.8.6 1.8.6 3.4.3 5-.7 1.7-1.1 2.8-1.2 4.1-.5 2.1 1.2 3.6.1 1.6-1.2-1.2-.7-.9-1.3 1.2-3 4.5-3.4 5-7.3 5.2-34.3.2-40.6-1.1-50.1-8-57.5-1-1.1-2.7-4.3-3.7-7.1-1.4-4.1-2.3-5.2-4.5-5.6-6.5-1.4-10.2-2.9-10.7-4.5-.3-.9-1.7-2.8-3.1-4.1-2.5-2.3-3.1-2.4-21.3-2.7l-18.8-.4-2.2 3.6c-1.4 2.2-3.3 3.8-4.9 4.2-1.5.3-3.5.9-4.4 1.5-3.8 2-8.4 1-15.3-3.6-8.7-5.7-14.3-6.9-28.8-6-6.2.4-11.4.8-11.7 1-.4.2-4.9.1-10-.3-5.2-.4-11.1-.6-13-.4zM3266.5 3387.6c-1.6.9-3.2 1.8-3.4 2-2.7 2.4-4.7 102.8-2.1 105.9.5.6 1.4 3.1 2 5.6 1.1 4.4 1.4 4.6 6.6 6.2 3 .9 6.1 1.7 6.8 1.7 1.9 0 10.4-8.3 11.8-11.6 1.5-3.4 2.5-92.8 1.1-100.9-.7-4.6-1.1-5.2-5.3-7.2-6.2-3.1-13.7-3.8-17.5-1.7zM646.5 3388.5c-5.8 1.5-10.2 4.1-14.9 8.8-5.2 5.2-12.1 10.7-13.4 10.7-.5 0-1.6 1.4-2.3 3.2-.7 1.8-2.5 4.6-3.9 6.2-1.4 1.7-3.4 5.1-4.4 7.6-1 2.5-2.4 5.8-3.2 7.5-2.8 6.4-3.8 19.7-2.5 33.3 1.3 14 2.8 18.5 8 23.2 1.7 1.4 3.6 4 4.1 5.7.9 2.6 1.7 3.1 5.3 3.6 2.9.4 4.8 1.4 6.2 3.1 1.2 1.4 2.8 2.6 3.8 2.6.9 0 2.7 1 3.9 2.2 2 2 3.1 2.2 14.6 2.1l12.4-.1 4.3-4.5c3.8-3.8 5.1-4.5 9.1-4.9 5.4-.4 8.8 1 12.4 5.1 2 2.4 3.5 3 8.3 3.4 5.3.5 5.9.3 8.2-2.1 1.4-1.5 2.5-3 2.5-3.3 0-.3 1.3-1.9 2.9-3.6 2.3-2.5 3-4.2 3.7-10.4.4-4.1.8-7.9.7-8.6-.4-7.2-1.5-17.7-2-19.5-.7-2.5-1.4-21.9-1.2-31.3 0-1.1-.6-4.9-1.5-8.5-.8-3.6-1.6-8.8-1.7-11.5 0-2.8-.4-6.1-.8-7.4-.7-2.6-4.7-5.3-9.6-6.5-1.6-.4-6.5-2.3-10.7-4.2-7.8-3.5-7.8-3.5-21-3.3-7.3.2-15.1.8-17.3 1.4zm26.5 30.3c1.6 1.3 2.4 3.6 3.2 9.7.6 4.4 1.4 8.2 1.8 8.5 1.2.8 2.2 11.1 1.2 12.3-.5.7-1.7 4.1-2.7 7.5-1.3 4.6-2.9 7.3-5.4 9.7-7 6.6-13.1 9.8-20.6 11-3.5.5-4.8.1-10.2-3.4-6.6-4.3-7-5.1-7.8-15.5-.7-8.5 1.1-19 3.9-23.4 3.2-4.9 14.4-15.8 17.6-17.1 4.5-1.7 16.5-1.3 19 .7zM1793.6 3387.8c-.4.6-2.5 1.6-4.6 2.2-2.2.6-4 1.7-4 2.4 0 2-5.8 5.8-7.9 5.1-1.1-.3-2.6-2.3-3.5-4.4-1.4-3.6-1.9-3.9-6.5-4.6-7-1-11.8.7-12.6 4.5-.4 1.6-1.5 4.8-2.7 7.1-1.9 4-1.9 5.7-.1 12.9.9 3.5 1.9 30.6 2.2 57 .1 15.7.6 30.1 1.1 32 .8 3.1 1.7 3.8 5.7 5.3 2.7.9 6.5 1.7 8.6 1.7 3.1 0 3.9-.4 4.7-2.5.5-1.4 1.3-2.5 1.8-2.5s2.3-1.8 4.1-4.1c2.7-3.3 3.3-5 3.4-9.2.1-2.9.6-5.5 1.1-5.9.7-.5.7-1.1-.2-2-.6-.6-1.2-2.3-1.1-3.8l.1-2.5.8 2.5c.6 1.7.8.2.8-5s-.2-6.7-.8-5c-.8 2.4-.8 2.4-.9-.7-.1-1.7.5-3.4 1.2-3.6.9-.4.9-.7 0-1.4-1.3-.9-2-20.9-1-28.3.3-1.9.8-6 1.1-9 .4-3 1-6.1 1.4-6.7 2-3.3 24.1-3.6 30-.4 2.3 1.2 5.2 6 5.2 8.4 0 .7.8 2.2 1.8 3.3 2.3 2.6 2.4 3 2.8 27.4.8 44.7.9 46.9 2 48 .6.6 4.2 1.4 8 1.7l7 .5 5-4.9c4.9-4.8 5.1-5.3 5.8-11.9.3-3.8.6-17 .6-29.4.1-27.3-1.4-39-5.5-44.4-1.7-2.2-2.9-5.4-3.2-8-.6-4.8-5.3-11.6-8-11.6-.9 0-3-1.5-4.7-3.3-5.4-5.7-9.4-6.9-24.7-7.5-9.4-.3-13.8-.1-14.3.6zM3173.8 3387.7c-2 .3-3 1.2-3.4 3.1-.3 1.5-1.5 5.6-2.5 9.2-1.4 5-1.9 9.7-1.8 20.5 0 7.7-.1 17.1-.2 21-.2 6.5.8 40.7 1.4 48.5.2 1.9.9 4.8 1.5 6.3.7 1.6 1.2 3.8 1.2 5.1 0 4.5 2.2 5.9 9.1 6 7.3.1 9-.9 15.9-9.3 1.7-2 2-3.9 2-12 0-5.3.1-19.6.3-31.8l.2-22.2 3.5-3.6c1.9-2 4.5-3.8 5.7-4.1 1.3-.4 2.3-1 2.3-1.4 0-.4 2.1-1.7 4.8-2.8 4.3-1.8 6.5-2.4 13-3.7 7-1.3 9.1-2.8 12.2-8.7 1.4-2.6 2-5.8 2-9.9 0-5-.4-6.4-2.5-8.4-2-2.1-3.4-2.5-8.6-2.5-6.2 0-17.9 1.9-18.9 3-2.4 2.8-7.1 4.7-11.9 4.8-6.1.1-8.7-.9-9.6-3.8-1-3.1-7.7-4.5-15.7-3.3zM3325.5 3387.5c-.5.2-3.1.6-5.7 1-4.3.6-4.8.9-5.9 4.3-.7 2-1.9 4.7-2.7 5.9-1.6 2.6-1.1 5.6 1.9 12 2.9 6 3.1 6 29.9 6.7 15.4.4 17.6.7 18.8 2.3 2.1 2.9-.2 9.3-3.5 9.3-.8 0-2.3 2-3.4 4.5s-2.6 4.5-3.3 4.5c-2 0-7.1 6.1-9.6 11.5-1.3 2.7-3 5.4-3.7 5.8-3 1.8-8.1 7.4-8.8 9.4-.3 1.2-1.4 2.4-2.3 2.8-.9.3-2.6 1.6-3.7 3-1.1 1.3-3.7 4.3-5.7 6.7-2.1 2.3-3.8 4.7-3.8 5.4 0 .6-.7 2.5-1.5 4-1.9 3.8-1.9 10.8 0 12.4.8.7 1.5 2 1.5 3 0 2.8 3.1 4.7 9.5 5.8 6.4 1.1 69.5 1.1 73 0 1.1-.3 3.4-.9 5-1.3 5.7-1.3 8.4-2.7 9.1-4.9.4-1.1 1.1-2.4 1.7-2.7 1.4-1 1.1-11.4-.5-14.9-1.8-4.1-7.8-5.2-29.8-5.5-19.1-.2-23-1.1-23-5.1 0-1.3.5-2.6 1-2.9.6-.4 2.3-2.5 3.7-4.8 1.4-2.3 4.6-6.1 7-8.5 2.3-2.4 4.3-4.9 4.3-5.7 0-.8 1.3-2.2 2.9-3.1 1.6-1 3.4-2.8 4-4.2.6-1.3 2.9-3.9 5-5.8s4.6-5.3 5.6-7.4c1-2.3 3.2-4.8 5.1-6 1.9-1 3.4-2.6 3.4-3.5 0-.8 1-3.2 2.3-5.3 1.2-2 3-6.2 4.1-9.2l1.8-5.4-2.8-2.3c-1.6-1.3-3.2-2.3-3.5-2.3-.3 0-1.1-1.6-1.9-3.5-1.3-3.4-2.1-3.9-4.8-3.6-.8.1-2-.3-2.8-1-2.1-1.7-30.9-2.6-32.8-.9-1 .8-3.2 1-6.3.6-6.1-.7-27.5-1.6-28.8-1.1z"/><path d="M1784.2 3458.5c0 1.6.2 2.2.5 1.2.2-.9.2-2.3 0-3-.3-.6-.5.1-.5 1.8z"/></svg>