<?xml version="1.0" standalone="no"?>
<!DOCTYPE svg PUBLIC "-//W3C//DTD SVG 20010904//EN"
 "http://www.w3.org/TR/2001/REC-SVG-20010904/DTD/svg10.dtd">
<svg version="1.0" xmlns="http://www.w3.org/2000/svg"
 width="3984.000000pt" height="3976.000000pt" viewBox="0 0 3984.000000 3976.000000"
 preserveAspectRatio="xMidYMid meet">

<g transform="translate(0.000000,3976.000000) scale(0.100000,-0.100000)"
fill="#ffffff" stroke="none">
<path d="M16098 35752 c-37 -10 -73 -23 -80 -30 -6 -6 -20 -12 -30 -12 -10 0
-27 -14 -37 -30 -10 -17 -38 -46 -63 -65 -24 -19 -55 -55 -67 -81 -13 -25 -37
-60 -55 -77 -45 -46 -73 -88 -77 -117 -3 -16 -10 -24 -20 -22 -20 3 -44 -31
-54 -76 -4 -18 -13 -36 -20 -38 -7 -3 -16 -16 -19 -29 -3 -13 -19 -33 -36 -45
-24 -17 -31 -31 -36 -72 -5 -35 -15 -60 -31 -75 -27 -27 -63 -99 -63 -124 0
-10 -4 -20 -8 -23 -4 -3 -14 -28 -22 -56 -8 -29 -21 -57 -30 -63 -24 -18 -29
-29 -46 -114 -9 -43 -22 -85 -28 -93 -47 -57 -96 -219 -96 -316 0 -53 -10 -84
-26 -84 -7 0 -18 -9 -24 -20 -33 -62 -53 -871 -30 -1219 6 -91 13 -167 15
-171 2 -3 6 -26 10 -50 3 -25 10 -60 15 -79 7 -24 5 -39 -6 -55 -8 -13 -21
-47 -30 -76 -9 -30 -31 -73 -50 -96 -19 -22 -34 -45 -34 -49 0 -5 -6 -16 -13
-24 -8 -9 -20 -32 -27 -51 -8 -19 -29 -49 -47 -66 -18 -17 -33 -38 -33 -47 0
-9 -11 -28 -25 -43 -14 -15 -25 -33 -25 -39 0 -7 -6 -15 -14 -18 -15 -6 -66
-107 -66 -132 0 -8 -10 -19 -23 -24 -15 -6 -28 -24 -37 -53 -18 -59 -70 -168
-80 -168 -11 0 -27 -46 -45 -135 -10 -44 -28 -96 -41 -115 -33 -51 -41 -76
-59 -196 -9 -59 -20 -115 -26 -125 -5 -10 -11 -32 -13 -50 -2 -17 -13 -43 -24
-59 -23 -31 -29 -68 -37 -240 -3 -63 -10 -133 -15 -155 -32 -140 -49 -181 -99
-228 l-29 -28 -309 -5 c-169 -2 -326 -6 -348 -8 -66 -6 -168 -27 -200 -41 -16
-7 -46 -18 -66 -24 -88 -28 -169 -181 -155 -296 10 -85 37 -172 61 -197 12
-13 27 -34 34 -46 32 -60 233 -91 566 -87 134 2 286 -2 365 -10 74 -7 138 -11
142 -9 3 2 16 -8 27 -22 21 -27 37 -74 43 -129 2 -16 9 -39 15 -50 6 -11 14
-38 18 -60 3 -21 15 -56 25 -76 21 -41 29 -71 35 -141 5 -59 39 -138 59 -138
12 0 16 -10 16 -35 0 -45 53 -201 78 -228 11 -12 22 -34 26 -49 11 -49 45
-118 70 -143 13 -13 34 -50 45 -81 23 -60 49 -100 94 -142 15 -15 27 -32 27
-38 0 -6 7 -17 15 -24 8 -7 13 -16 10 -20 -3 -4 2 -13 10 -20 16 -13 75 -97
75 -106 0 -3 20 -33 45 -65 25 -33 45 -63 45 -68 0 -4 9 -16 21 -27 11 -10 41
-50 66 -88 26 -38 67 -90 92 -115 76 -77 141 -155 147 -178 7 -24 -19 -68 -50
-86 -15 -8 -128 -12 -376 -14 -195 -2 -377 -7 -405 -12 -48 -9 -160 -21 -255
-26 -25 -2 -182 -6 -350 -9 -447 -10 -592 -25 -770 -82 -58 -18 -135 -38 -172
-44 -80 -12 -106 -22 -134 -48 -11 -11 -54 -28 -95 -38 -41 -10 -78 -25 -82
-31 -4 -7 -14 -13 -21 -13 -7 0 -32 -13 -57 -29 -25 -16 -72 -34 -109 -41 -45
-9 -71 -19 -85 -36 -11 -12 -45 -35 -75 -49 -99 -48 -130 -66 -130 -79 0 -7
-19 -18 -42 -25 -70 -21 -93 -35 -92 -59 0 -16 -5 -22 -21 -22 -12 0 -34 -9
-48 -20 -14 -11 -30 -20 -36 -20 -5 0 -33 -22 -60 -50 -28 -27 -57 -50 -66
-50 -9 0 -21 -14 -27 -30 -6 -18 -19 -32 -33 -36 -13 -3 -25 -14 -28 -25 -3
-10 -14 -19 -25 -19 -23 0 -52 -30 -52 -53 0 -9 -7 -17 -16 -17 -23 0 -74 -39
-74 -56 0 -8 -7 -17 -16 -21 -8 -3 -20 -17 -25 -30 -6 -16 -15 -23 -24 -19
-17 6 -39 -24 -49 -67 -5 -23 -11 -27 -27 -22 -15 5 -22 2 -26 -14 -3 -12 -11
-21 -18 -21 -7 0 -20 -16 -29 -35 -9 -19 -32 -51 -52 -72 -19 -20 -38 -49 -41
-64 -3 -15 -13 -29 -24 -32 -13 -3 -19 -14 -19 -32 0 -22 -3 -25 -20 -20 -14
4 -20 2 -20 -8 0 -8 -9 -22 -20 -32 -11 -10 -17 -21 -15 -25 9 -14 -12 -55
-46 -91 -55 -58 -79 -90 -79 -104 0 -8 -8 -22 -18 -32 -10 -10 -27 -38 -37
-63 -10 -25 -24 -52 -31 -60 -15 -19 -104 -207 -104 -220 0 -21 -35 -80 -50
-85 -18 -6 -35 -48 -45 -112 -4 -23 -13 -47 -21 -54 -8 -6 -14 -18 -14 -26 0
-8 -11 -24 -24 -36 -16 -16 -27 -42 -36 -92 -20 -114 -21 -115 -88 -151 l-62
-34 -319 0 c-344 -1 -468 -9 -629 -38 -81 -15 -108 -24 -130 -44 -20 -20 -45
-29 -101 -37 -85 -13 -89 -15 -101 -44 -4 -12 -30 -33 -57 -47 -58 -30 -64
-35 -114 -82 -21 -20 -47 -39 -58 -43 -11 -3 -23 -15 -26 -26 -4 -10 -15 -24
-26 -29 -10 -6 -19 -16 -19 -23 0 -7 -16 -25 -35 -40 -36 -29 -49 -53 -87
-164 -12 -35 -31 -73 -42 -85 -43 -47 -44 -240 0 -317 14 -25 39 -81 56 -124
23 -61 36 -81 60 -93 17 -9 41 -25 52 -36 12 -11 32 -25 46 -33 35 -18 158
-47 169 -40 5 3 12 1 16 -5 3 -5 25 -10 48 -10 23 0 60 -5 82 -10 41 -10 281
-14 323 -6 13 3 91 6 175 7 83 0 161 5 174 10 28 11 153 -5 185 -23 39 -23 88
-77 88 -97 0 -11 -6 -25 -12 -30 -119 -97 -216 -180 -243 -207 -19 -19 -38
-34 -43 -34 -5 0 -37 -25 -71 -55 -34 -30 -67 -55 -74 -55 -12 0 -47 -53 -47
-72 0 -5 -20 -30 -45 -55 -25 -25 -52 -57 -60 -72 -7 -15 -29 -45 -47 -65 -18
-21 -40 -50 -48 -65 -33 -61 -55 -88 -74 -97 -12 -5 -23 -20 -24 -33 -4 -25
-65 -115 -95 -140 -9 -7 -24 -40 -33 -73 -13 -46 -23 -62 -45 -73 -23 -12 -29
-24 -34 -62 -4 -27 -8 -58 -10 -71 -5 -32 -45 -112 -55 -112 -18 0 -38 -67
-55 -180 -10 -63 -24 -124 -32 -136 -43 -66 -59 -204 -63 -539 -3 -332 -4
-359 -11 -365 -14 -11 -20 -248 -20 -732 0 -280 3 -513 6 -519 4 -5 7 -67 7
-137 0 -79 3 -118 8 -102 5 15 8 -27 8 -110 0 -82 -3 -123 -8 -105 -8 30 -8
30 -9 -7 0 -21 4 -38 9 -38 6 0 10 -8 10 -17 0 -15 -2 -16 -10 -3 -7 10 -10
-27 -10 -115 -1 -293 -15 -618 -29 -678 -9 -38 -49 -106 -83 -140 -16 -15 -29
-17 -92 -12 -40 4 -489 9 -997 11 -1091 5 -1071 5 -1085 -9 -4 -4 -18 -7 -31
-7 -13 0 -31 -4 -41 -9 -9 -6 -45 -21 -80 -34 -35 -13 -74 -33 -86 -43 -39
-32 -96 -114 -96 -138 0 -12 -4 -26 -9 -31 -11 -12 -31 -128 -31 -181 0 -47
32 -194 42 -194 4 0 5 -7 2 -15 -4 -9 13 -32 47 -62 29 -27 69 -65 89 -85 29
-29 49 -40 91 -48 60 -12 25729 -16 25841 -4 35 3 77 14 95 23 67 35 155 104
177 139 13 21 31 43 39 51 31 25 49 77 56 161 8 92 -8 160 -47 204 -10 12 -25
37 -32 56 -13 34 -54 80 -71 80 -5 0 -23 16 -40 34 -17 19 -45 38 -63 42 -17
3 -33 10 -36 14 -3 4 -36 19 -75 33 l-70 25 -1190 -6 c-654 -4 -1217 -6 -1250
-6 -70 0 -129 29 -148 73 -8 19 -11 428 -12 1476 -1 798 -5 1502 -9 1565 -9
141 -24 240 -38 257 -6 7 -12 21 -13 31 -1 16 -6 29 -26 79 -4 13 -13 61 -19
108 -11 91 -13 97 -43 164 -10 25 -29 86 -42 136 -24 98 -37 129 -59 142 -15
9 -76 134 -76 157 0 26 -33 86 -47 86 -7 0 -15 12 -19 28 -12 56 -70 171 -99
197 -13 11 -30 40 -39 65 -10 26 -26 50 -38 55 -12 6 -31 27 -42 47 -29 51
-53 78 -71 78 -15 0 -45 48 -45 73 0 25 -282 304 -360 356 -110 73 -142 109
-146 166 -4 67 21 90 107 99 35 4 87 3 114 -2 53 -10 549 -9 625 1 25 3 72 9
105 11 181 17 285 40 285 64 0 5 14 15 30 22 25 10 90 87 90 106 0 3 11 15 25
27 38 33 56 112 56 253 0 130 -20 238 -50 271 -9 10 -20 26 -24 36 -3 9 -11
17 -17 17 -5 0 -10 5 -10 11 0 26 -51 115 -71 124 -13 6 -30 24 -39 40 -10 18
-24 29 -34 27 -9 -2 -16 4 -16 13 0 8 -4 15 -9 15 -5 0 -27 17 -48 38 -22 20
-57 46 -79 57 -21 11 -50 32 -64 47 -33 35 -59 44 -147 53 -60 6 -74 11 -87
31 -24 35 -44 42 -168 61 -89 13 -200 17 -525 18 -453 2 -433 -1 -461 65 -7
19 -22 44 -31 55 -27 30 -50 97 -61 175 -14 97 -53 210 -80 230 -4 3 -19 42
-34 88 -16 46 -35 86 -45 92 -10 5 -23 28 -30 52 -21 68 -61 140 -82 145 -10
3 -20 12 -20 19 -1 8 -2 17 -3 22 -18 68 -33 98 -71 140 -25 27 -45 55 -45 62
0 26 -35 70 -56 70 -18 0 -24 9 -35 61 -10 47 -19 63 -36 70 -12 4 -28 21 -35
36 -9 17 -20 27 -31 25 -10 -2 -17 3 -17 12 0 24 -33 86 -45 86 -22 0 -66 56
-59 75 6 14 4 17 -9 12 -10 -4 -21 1 -29 12 -7 10 -22 20 -33 22 -12 3 -21 14
-23 27 -2 12 -8 22 -13 22 -5 0 -9 9 -9 20 0 12 -7 20 -18 20 -29 0 -62 29
-62 56 0 17 -6 24 -18 24 -11 0 -27 9 -36 19 -10 11 -24 17 -31 15 -9 -4 -15
8 -20 35 -6 35 -10 41 -31 41 -14 0 -27 7 -30 15 -4 9 -11 15 -18 14 -26 -3
-34 2 -46 30 -8 20 -21 32 -40 36 -16 3 -34 13 -41 21 -7 8 -27 21 -46 29 -18
8 -38 25 -44 39 -9 19 -24 28 -65 37 -38 9 -54 17 -54 28 0 9 -16 25 -36 36
-19 10 -45 27 -56 37 -12 10 -30 18 -40 18 -26 0 -74 26 -81 43 -3 8 -34 22
-69 31 -36 10 -73 28 -86 42 -13 13 -28 24 -35 24 -7 0 -34 12 -62 26 -27 14
-70 28 -94 31 -23 3 -51 14 -60 24 -23 25 -94 49 -166 55 -33 3 -87 14 -120
24 -104 33 -365 81 -485 91 -63 5 -170 9 -238 9 -67 0 -224 9 -350 20 -125 11
-272 24 -327 29 -145 12 -413 7 -451 -9 -27 -12 -36 -11 -81 10 -92 41 -120
116 -59 150 17 9 39 32 50 52 12 20 49 67 83 105 35 37 81 92 103 122 22 29
51 62 65 73 14 11 25 26 25 34 0 8 5 14 10 14 6 0 14 10 19 23 5 12 15 36 22
53 7 17 22 35 33 40 12 5 31 37 48 79 16 39 40 79 53 91 13 11 35 52 49 90 14
38 30 70 36 72 5 2 10 10 10 17 0 8 6 18 13 22 13 8 47 73 47 90 0 8 49 86 69
109 5 6 19 45 31 85 12 41 40 118 62 173 22 54 44 128 49 163 8 58 31 120 48
133 18 14 40 82 45 145 6 62 12 94 32 145 7 20 77 64 129 81 30 10 124 14 370
14 245 1 373 6 496 20 l167 18 23 41 c13 22 39 63 58 90 46 64 59 119 50 206
-7 59 -14 77 -48 123 -22 30 -43 67 -47 81 -4 16 -15 28 -28 30 -11 3 -40 8
-64 13 -24 4 -43 12 -42 18 1 5 -12 13 -27 17 -15 4 -59 18 -98 32 l-70 26
-368 -5 c-336 -5 -370 -4 -395 12 -39 25 -42 31 -42 104 0 36 -7 88 -15 115
-8 27 -15 61 -15 76 0 15 -4 29 -9 33 -6 3 -10 13 -10 23 -2 42 -21 165 -40
252 -37 174 -43 195 -67 223 -13 16 -25 38 -26 50 0 12 -2 27 -3 32 -1 6 -5
46 -10 90 -8 79 -16 107 -60 200 -13 28 -35 89 -49 137 -15 48 -35 96 -45 105
-20 20 -66 105 -76 141 -3 12 -12 22 -19 22 -7 0 -28 30 -46 68 -19 37 -39 72
-46 77 -21 18 -80 109 -87 135 -3 14 -19 40 -34 59 -15 18 -51 78 -80 134 -47
93 -51 105 -47 158 2 32 12 84 23 116 57 168 65 257 63 673 -2 335 -5 385 -27
482 -7 31 -11 59 -8 62 3 2 -4 17 -16 33 -19 26 -25 58 -62 308 -16 111 -21
135 -29 135 -11 0 -50 81 -50 103 0 9 -4 18 -9 21 -5 3 -12 18 -15 33 -10 41
-46 113 -57 113 -5 0 -9 9 -9 19 0 11 -4 22 -9 25 -5 4 -12 25 -16 49 -13 83
-37 147 -72 190 -13 16 -28 49 -34 73 -6 24 -15 44 -20 44 -5 0 -14 11 -19 25
-5 14 -16 25 -25 25 -10 0 -15 10 -15 28 0 32 -45 149 -66 173 -8 8 -14 21
-14 27 0 7 -6 12 -13 12 -6 0 -23 20 -35 44 -15 27 -33 47 -47 50 -24 6 -65
65 -65 95 0 9 -10 27 -22 38 -13 11 -42 41 -65 67 -66 73 -101 98 -151 109
-66 13 -230 11 -247 -3 -8 -7 -22 -10 -30 -6 -22 8 -126 -56 -148 -91 -4 -7
-17 -13 -28 -13 -29 0 -89 -30 -89 -44 0 -14 -46 -57 -53 -50 -3 3 -33 -17
-68 -43 -86 -64 -109 -79 -141 -87 -16 -3 -28 -12 -28 -19 0 -13 -35 -47 -48
-47 -4 0 -13 -9 -19 -19 -7 -11 -23 -21 -35 -23 -13 -2 -27 -12 -32 -24 -5
-11 -23 -26 -40 -34 -57 -24 -122 -70 -136 -95 -8 -14 -32 -34 -54 -44 -23
-10 -57 -35 -75 -55 -19 -20 -39 -36 -43 -36 -5 0 -31 -22 -59 -50 -27 -27
-63 -57 -79 -65 -17 -9 -30 -24 -30 -34 0 -12 -10 -21 -25 -25 -14 -4 -25 -11
-25 -16 0 -6 -6 -10 -12 -10 -7 -1 -22 -8 -33 -18 -27 -23 -115 -132 -115
-142 0 -5 -16 -18 -35 -30 -19 -12 -35 -28 -35 -36 0 -8 -6 -14 -14 -14 -8 0
-16 -7 -20 -15 -3 -8 -12 -15 -21 -15 -8 0 -15 -4 -15 -9 0 -4 -24 -13 -52
-18 -74 -15 -182 0 -222 30 -36 27 -132 58 -265 87 -52 11 -98 24 -101 30 -17
28 -83 41 -275 55 -49 4 -97 14 -123 27 -45 21 -232 50 -275 42 -14 -2 -28 0
-32 6 -3 5 -19 7 -35 3 -17 -3 -30 -1 -30 4 0 10 -127 16 -345 16 -160 1 -233
-4 -333 -23 -34 -6 -66 -9 -70 -6 -11 7 -204 -29 -282 -52 -36 -10 -92 -20
-125 -21 -95 -3 -184 -20 -229 -43 -22 -11 -83 -31 -135 -44 -52 -13 -133 -43
-180 -66 -78 -39 -94 -43 -174 -47 -147 -5 -173 2 -237 67 -46 47 -115 114
-188 185 -33 31 -51 45 -79 62 -17 10 -38 31 -47 46 -10 16 -21 29 -26 29 -5
0 -30 23 -56 50 -26 28 -53 50 -59 50 -7 0 -20 9 -30 20 -10 11 -25 20 -32 20
-8 0 -54 39 -102 88 -122 121 -191 182 -206 182 -34 0 -115 69 -115 99 0 6
-11 11 -23 11 -27 0 -83 26 -94 43 -5 7 -45 36 -90 66 -46 29 -83 59 -83 66 0
7 -26 20 -57 30 -34 11 -70 31 -90 52 -42 42 -83 59 -162 68 -35 4 -75 13 -89
21 -15 8 -29 14 -32 13 -3 0 -35 -8 -72 -17z m315 -1241 c30 -9 66 -30 96 -57
27 -24 52 -44 56 -44 3 0 13 -6 20 -12 7 -7 34 -31 60 -53 26 -22 63 -56 83
-75 20 -19 53 -43 72 -53 19 -10 58 -40 85 -67 28 -26 61 -50 75 -54 14 -3 39
-24 55 -45 17 -21 47 -51 68 -67 20 -15 47 -43 60 -61 12 -18 28 -33 35 -33 6
0 12 -6 12 -13 0 -7 16 -26 35 -42 19 -17 35 -36 35 -42 0 -7 7 -13 15 -13 8
0 19 -9 25 -20 5 -10 39 -49 75 -86 36 -37 95 -101 133 -143 114 -126 200
-211 216 -211 8 0 18 -4 21 -10 13 -21 62 -10 96 21 19 16 57 41 86 55 29 13
56 30 60 38 13 23 98 65 165 82 79 20 99 31 92 48 -5 13 31 25 116 41 14 3 34
9 45 14 11 5 47 19 80 31 33 12 65 26 71 31 15 12 42 19 124 31 64 9 230 45
260 55 29 11 46 13 180 21 206 13 725 14 910 2 105 -7 203 -20 268 -36 57 -13
112 -24 123 -24 11 0 86 -22 167 -49 81 -27 184 -59 230 -71 46 -12 89 -28 96
-35 18 -19 64 -40 128 -60 32 -10 63 -24 69 -31 6 -8 16 -14 22 -14 6 0 23
-11 37 -25 14 -14 49 -33 78 -43 28 -10 62 -30 76 -44 15 -14 48 -30 80 -38
54 -13 57 -12 93 13 45 31 112 100 139 142 10 16 28 39 39 51 11 12 31 33 44
48 13 14 28 26 35 26 6 0 25 23 41 50 17 27 39 53 50 56 30 9 55 35 55 55 0
10 12 26 28 36 42 26 82 65 98 96 8 15 21 27 30 27 8 0 20 13 25 29 6 17 20
32 32 35 12 3 46 28 76 56 30 28 69 58 85 67 17 8 49 34 72 57 62 63 103 96
119 96 8 0 19 8 24 18 5 9 31 28 58 42 26 13 65 41 85 62 21 21 50 41 65 44
15 4 40 20 55 35 15 15 52 35 82 44 46 15 60 15 92 5 63 -21 82 -57 104 -195
6 -38 20 -97 31 -130 72 -216 87 -323 95 -665 8 -330 -12 -627 -51 -775 -15
-55 -30 -106 -34 -115 -43 -84 11 -271 111 -381 21 -24 46 -57 54 -74 8 -16
25 -48 39 -70 13 -22 27 -47 31 -55 4 -8 13 -19 21 -23 7 -4 13 -18 13 -31 0
-13 12 -41 28 -63 15 -21 33 -48 40 -59 23 -36 54 -109 59 -142 4 -21 16 -41
33 -54 21 -15 29 -32 34 -68 5 -36 17 -63 47 -100 49 -62 75 -118 84 -183 4
-26 19 -64 32 -84 14 -20 31 -68 39 -106 8 -39 26 -95 39 -124 14 -29 25 -59
25 -67 0 -7 11 -44 23 -82 13 -38 25 -94 25 -124 1 -30 7 -80 13 -110 23 -109
-6 -251 -53 -266 -9 -3 -255 -5 -545 -6 -743 -2 -791 -7 -891 -106 -50 -48
-61 -65 -72 -113 -11 -50 -10 -66 5 -130 26 -103 46 -133 112 -164 107 -49
428 -85 756 -85 82 0 201 -4 265 -10 64 -5 169 -11 233 -14 72 -2 128 -9 145
-18 28 -13 29 -16 26 -76 -2 -35 -8 -75 -14 -90 -6 -15 -12 -34 -14 -42 -2 -8
-7 -23 -12 -35 -5 -11 -15 -40 -21 -65 -34 -127 -44 -156 -57 -171 -23 -26
-150 -39 -188 -20 -11 5 -52 17 -91 25 -38 8 -105 24 -149 36 -43 12 -115 25
-160 29 -70 7 -250 54 -311 81 -57 25 -110 33 -229 34 -179 1 -219 -7 -265
-52 -20 -21 -49 -47 -65 -58 -28 -21 -30 -26 -34 -112 -5 -107 7 -151 48 -175
17 -10 30 -21 30 -25 0 -14 67 -82 81 -82 8 0 34 -11 59 -24 25 -13 77 -33
115 -45 39 -13 84 -29 102 -37 17 -8 50 -14 73 -14 23 0 66 -11 98 -26 73 -34
100 -42 192 -58 143 -26 310 -103 323 -149 5 -18 -85 -148 -129 -189 -11 -9
-40 -38 -66 -65 -27 -26 -70 -70 -98 -97 -27 -27 -50 -52 -50 -56 0 -4 -16
-18 -35 -31 -19 -13 -35 -27 -35 -31 0 -24 -323 -318 -349 -318 -5 0 -21 -13
-34 -30 -14 -16 -28 -30 -32 -30 -3 0 -31 -19 -63 -42 -83 -62 -154 -108 -169
-108 -7 0 -27 -13 -45 -29 -18 -16 -62 -41 -98 -55 -103 -43 -134 -58 -151
-72 -8 -7 -51 -25 -95 -39 -43 -15 -92 -32 -109 -40 -86 -38 -126 -53 -175
-65 -59 -14 -100 -32 -122 -53 -7 -8 -46 -21 -85 -30 -92 -21 -143 -42 -143
-60 0 -19 112 -55 209 -68 106 -14 105 -14 206 -43 121 -35 228 -69 240 -77 6
-3 50 -21 99 -39 52 -19 112 -50 145 -75 31 -23 72 -50 91 -60 19 -10 54 -34
76 -54 23 -20 76 -65 118 -100 42 -36 76 -68 76 -73 0 -4 7 -8 15 -8 8 0 15
-3 15 -7 0 -14 117 -143 129 -143 4 0 24 -27 44 -59 21 -32 47 -67 58 -76 10
-10 19 -23 19 -29 0 -6 12 -26 28 -43 66 -75 90 -111 107 -158 10 -27 28 -60
41 -72 13 -12 24 -29 24 -37 0 -24 31 -96 41 -96 5 0 9 -5 9 -12 0 -7 11 -24
26 -39 14 -14 37 -59 51 -100 14 -40 36 -85 50 -100 14 -14 36 -57 49 -95 14
-38 39 -93 57 -124 19 -33 38 -83 46 -125 8 -38 18 -76 24 -82 5 -7 6 -13 2
-13 -4 0 -3 -6 3 -13 6 -7 18 -38 26 -68 8 -30 23 -83 34 -119 26 -81 66 -217
87 -291 8 -30 22 -94 29 -141 10 -57 24 -102 45 -140 36 -63 61 -171 96 -413
1 -11 12 -63 24 -116 22 -105 38 -289 44 -523 3 -111 8 -150 18 -156 22 -14
19 -887 -4 -1080 -10 -80 -23 -212 -28 -295 -7 -93 -18 -171 -29 -205 -10 -30
-25 -95 -34 -145 -29 -160 -69 -308 -88 -327 -26 -26 -34 -50 -48 -153 -7 -49
-15 -92 -19 -95 -31 -25 -58 -100 -95 -263 -8 -32 -23 -68 -35 -81 -21 -23
-63 -129 -60 -156 3 -31 -2 -41 -27 -63 -14 -12 -35 -42 -47 -66 -11 -24 -36
-60 -56 -79 -19 -20 -43 -58 -52 -84 -16 -48 -43 -88 -72 -104 -14 -9 -67
-111 -67 -131 0 -6 -11 -18 -25 -27 -14 -9 -25 -23 -25 -30 0 -7 -10 -26 -22
-41 -24 -31 -50 -75 -70 -117 -7 -16 -18 -28 -24 -28 -6 0 -20 -12 -29 -27
-10 -16 -27 -37 -37 -48 -10 -11 -34 -37 -53 -57 -19 -21 -35 -42 -35 -48 0
-5 -7 -10 -15 -10 -14 0 -65 -48 -65 -63 0 -22 -394 -387 -418 -387 -8 0 -39
-22 -128 -90 -36 -27 -146 -120 -180 -151 -33 -29 -120 -55 -137 -40 -29 23
-25 193 4 211 14 9 58 138 64 189 11 81 27 145 44 171 24 36 39 85 51 165 11
76 16 107 24 133 3 9 8 28 10 42 3 14 19 66 36 115 22 62 34 124 41 200 7 76
15 119 29 142 11 18 21 43 22 55 2 13 7 29 12 37 5 7 10 35 12 61 5 72 50 249
79 308 17 36 31 91 41 165 15 108 24 132 70 203 11 18 26 61 33 96 25 126 34
163 46 188 7 14 22 66 34 115 11 50 28 122 37 160 17 72 36 167 54 265 5 30
10 84 10 120 0 54 -4 70 -22 90 -13 14 -35 44 -50 66 -22 35 -35 44 -77 54
-56 13 -166 5 -216 -16 -59 -24 -100 -90 -163 -260 -33 -88 -65 -188 -71 -223
-7 -35 -27 -101 -46 -146 -18 -45 -36 -102 -39 -126 -14 -88 -30 -145 -54
-188 -32 -58 -40 -86 -58 -216 -8 -60 -22 -117 -29 -125 -8 -9 -32 -90 -55
-180 -22 -91 -44 -178 -49 -195 -5 -16 -13 -48 -17 -70 -4 -22 -13 -52 -20
-66 -7 -14 -20 -70 -29 -124 -8 -53 -31 -143 -49 -199 -19 -55 -37 -117 -40
-136 -3 -19 -12 -53 -19 -76 -8 -22 -20 -67 -27 -100 -6 -32 -22 -75 -35 -94
-18 -27 -26 -59 -35 -135 -6 -55 -17 -109 -24 -120 -23 -35 -46 -117 -56 -203
-11 -82 -57 -279 -80 -337 -6 -16 -11 -32 -11 -35 0 -3 -4 -21 -9 -40 -6 -19
-10 -53 -10 -75 0 -22 -4 -56 -9 -75 -6 -19 -12 -65 -14 -101 -3 -37 -8 -72
-12 -79 -10 -17 -141 -99 -192 -121 -24 -10 -67 -21 -96 -25 -28 -4 -104 -24
-168 -46 -128 -42 -141 -46 -214 -53 -82 -9 -119 -16 -131 -26 -6 -5 -25 -4
-45 1 -28 8 -38 19 -57 60 -23 50 -23 57 -17 238 12 342 16 3943 4 3987 -35
132 -105 281 -138 292 -24 9 -61 40 -55 46 7 6 -38 37 -96 65 -45 21 -191 42
-302 42 -63 0 -223 -48 -249 -74 -11 -12 -33 -34 -50 -51 -17 -16 -40 -40 -51
-52 -38 -41 -88 -206 -97 -323 -9 -105 -7 -1256 5 -2990 7 -1120 8 -1135 25
-1157 11 -12 11 -17 2 -20 -7 -3 -27 -15 -45 -28 -64 -47 -73 -49 -151 -36
-40 6 -127 20 -195 31 -68 10 -129 23 -135 28 -7 5 -57 19 -112 31 -197 43
-294 80 -339 127 -23 25 -31 47 -54 154 -6 25 -18 70 -27 100 -37 121 -46 159
-60 252 -8 54 -15 100 -15 102 0 3 -6 11 -13 18 -15 16 -54 161 -63 238 -4 30
-12 66 -19 80 -7 14 -16 48 -20 75 -5 28 -25 104 -47 170 -21 66 -44 143 -50
170 -6 28 -23 77 -39 111 -16 34 -29 73 -29 88 0 28 -43 204 -59 241 -31 73
-42 108 -51 169 -18 114 -38 198 -63 266 -14 36 -30 103 -35 150 -11 88 -57
250 -71 250 -8 0 -20 49 -41 162 -6 31 -18 62 -26 69 -18 15 -57 89 -51 95 2
3 -4 37 -15 77 -11 40 -23 86 -27 102 -5 17 -20 59 -34 95 -14 36 -33 108 -42
160 -24 138 -81 302 -127 362 -16 22 -117 49 -183 49 -61 0 -122 -13 -152 -32
-35 -21 -66 -104 -68 -179 -3 -131 56 -461 105 -585 4 -11 13 -51 19 -90 14
-82 42 -187 83 -305 16 -47 31 -96 33 -110 8 -51 46 -186 70 -246 14 -34 25
-78 25 -97 0 -19 9 -52 19 -74 10 -21 24 -56 29 -78 6 -22 18 -62 27 -90 9
-27 25 -86 35 -130 10 -44 25 -105 34 -135 8 -30 27 -98 41 -150 14 -52 28
-104 30 -115 1 -11 15 -56 29 -100 35 -105 53 -178 61 -245 8 -62 29 -122 57
-162 10 -15 26 -57 34 -95 28 -119 47 -177 64 -198 10 -11 21 -44 24 -74 6
-48 5 -55 -15 -69 -11 -8 -47 -16 -78 -19 -56 -4 -58 -3 -107 41 -27 25 -54
46 -61 46 -7 0 -38 22 -70 48 -32 26 -74 58 -93 70 -19 12 -50 37 -69 57 -19
20 -49 42 -66 51 -17 8 -45 27 -63 43 -17 16 -39 31 -49 33 -10 2 -23 14 -29
27 -16 31 -85 101 -101 101 -7 0 -23 16 -35 34 -13 19 -31 37 -40 40 -10 2
-18 12 -18 23 -1 22 -55 82 -92 102 -15 7 -32 26 -38 41 -7 16 -22 31 -35 34
-13 3 -32 22 -44 41 -11 19 -25 35 -31 35 -5 0 -10 9 -10 20 0 11 -5 20 -10
20 -6 0 -13 8 -17 18 -3 9 -21 36 -40 59 -18 23 -33 46 -33 51 0 8 -24 39 -65
83 -8 9 -15 21 -15 27 0 7 -4 12 -9 12 -5 0 -14 14 -21 30 -7 17 -16 30 -20
30 -5 0 -22 28 -38 62 -17 35 -37 72 -46 83 -31 39 -64 93 -71 116 -4 13 -16
36 -26 51 -11 14 -19 30 -19 35 0 4 -9 14 -20 21 -12 7 -20 23 -20 40 0 15 -7
37 -15 49 -8 11 -17 39 -21 62 -4 22 -10 38 -14 36 -9 -6 -40 50 -40 70 0 15
-41 142 -70 215 -12 30 -24 64 -27 75 -3 11 -16 44 -29 73 -13 29 -24 64 -24
78 0 13 -7 27 -15 30 -8 4 -15 19 -15 34 0 16 -4 31 -9 34 -4 3 -13 34 -20 68
-11 56 -20 102 -37 177 -2 13 -14 41 -24 62 -11 21 -27 87 -35 146 -39 281
-48 333 -66 403 -10 42 -21 112 -23 155 -3 44 -9 125 -13 180 -15 191 -7 852
12 1010 2 17 9 84 15 150 6 66 16 140 21 165 10 45 13 62 24 134 3 21 7 41 9
45 3 4 7 34 11 66 11 106 49 296 66 326 5 10 16 61 24 114 14 94 31 167 61
255 27 77 64 224 64 251 0 14 4 29 8 35 5 5 14 34 21 64 7 30 19 64 26 75 7
11 16 36 19 55 13 61 55 187 75 222 10 18 29 67 41 108 13 41 26 77 29 80 10
8 57 110 82 175 13 33 36 80 51 105 16 25 34 64 40 88 6 23 14 42 19 42 4 0
10 9 14 19 3 11 16 35 29 54 13 19 31 57 41 86 9 29 26 57 37 64 18 11 58 84
58 106 0 5 6 14 13 18 20 12 72 84 96 130 11 23 30 47 41 53 11 6 34 41 52 78
18 37 52 86 75 108 24 23 43 45 43 49 0 3 18 28 40 54 22 26 40 53 40 59 0 7
4 12 8 12 5 0 18 17 30 38 12 20 44 58 71 84 27 27 59 60 71 75 12 16 38 46
58 68 21 22 57 63 80 92 24 29 51 54 61 58 9 3 30 25 45 50 16 25 32 45 36 45
14 0 90 72 84 81 -3 5 0 9 6 9 7 0 10 6 7 14 -3 7 4 21 15 30 22 19 21 45 -2
57 -37 20 -105 49 -116 49 -6 0 -15 7 -18 16 -3 8 -27 24 -53 36 -50 22 -111
60 -203 127 -30 22 -80 57 -110 77 -30 21 -68 51 -85 67 -16 16 -48 41 -70 55
-22 13 -62 47 -89 73 -27 27 -56 49 -66 49 -9 0 -30 16 -47 35 -17 19 -35 35
-40 35 -4 1 -28 27 -53 60 -25 33 -53 59 -63 60 -10 0 -26 15 -35 33 -20 38
-127 147 -144 147 -6 0 -9 3 -6 6 4 3 -11 22 -33 42 -21 20 -39 43 -39 49 0 7
-17 24 -38 38 -22 14 -45 38 -53 52 -8 15 -26 40 -41 57 -16 17 -28 34 -28 39
0 4 16 24 35 45 20 20 43 45 52 54 20 22 119 52 258 79 61 12 116 26 123 31 6
6 12 8 12 5 0 -3 26 1 58 8 32 8 100 23 152 34 52 10 124 31 160 46 36 15 74
31 85 35 69 28 96 44 114 69 12 16 21 31 21 34 0 2 20 24 43 48 36 36 45 53
51 94 5 41 3 55 -14 77 -11 15 -20 33 -20 40 0 8 -13 29 -30 48 -16 19 -42 50
-57 68 -66 77 -290 68 -598 -23 -49 -15 -99 -29 -110 -30 -11 -2 -56 -9 -100
-15 -89 -13 -150 -24 -240 -45 -33 -8 -89 -21 -125 -29 -142 -33 -243 -14
-268 52 -12 29 -69 242 -83 307 -8 42 2 99 24 125 29 35 51 37 351 39 164 1
301 3 305 5 3 2 74 7 156 11 300 14 599 48 662 75 13 5 37 39 59 82 34 67 36
77 31 138 -2 36 -12 79 -21 95 -9 17 -16 35 -16 42 0 17 -89 92 -135 113 -22
10 -58 21 -80 24 -22 4 -321 9 -664 11 -696 6 -660 2 -709 76 -21 30 -23 43
-19 109 5 100 46 306 98 494 6 22 12 47 14 58 5 26 65 200 76 220 5 10 9 27 9
38 0 22 39 102 53 108 4 2 7 10 7 18 0 8 3 14 8 14 4 0 20 37 36 83 16 46 39
91 51 102 13 11 32 45 42 75 10 30 31 71 46 91 15 20 34 57 43 82 8 24 30 60
49 78 18 19 45 63 59 99 15 36 32 70 39 75 8 6 26 31 41 58 15 26 32 47 37 47
5 0 9 10 9 23 0 29 11 44 34 48 19 4 41 39 76 122 23 52 24 39 -20 267 -5 25
-9 70 -10 100 0 30 -10 91 -21 135 -53 202 -59 244 -59 425 1 128 6 205 20
285 27 151 47 275 59 372 10 76 21 115 76 268 75 209 76 210 141 210 27 -1 71
-7 97 -14z m-1118 -8057 c34 -16 53 -43 37 -53 -5 -3 -17 -31 -27 -61 -11 -30
-29 -64 -41 -75 -26 -23 -84 -132 -84 -156 0 -9 -16 -29 -35 -43 -20 -16 -35
-36 -35 -48 0 -11 -11 -41 -25 -67 -25 -47 -71 -149 -95 -211 -8 -19 -22 -46
-31 -60 -10 -14 -26 -54 -37 -90 -58 -189 -78 -246 -92 -260 -25 -26 -38 -62
-50 -137 -8 -50 -16 -73 -26 -73 -19 0 -33 -30 -38 -86 -2 -27 -12 -76 -21
-109 -10 -33 -25 -91 -35 -130 -10 -38 -30 -110 -43 -160 -13 -49 -30 -137
-36 -195 -6 -58 -18 -130 -27 -160 -32 -114 -43 -174 -33 -187 15 -17 -6 -50
-44 -69 -18 -9 -35 -21 -38 -25 -6 -10 -391 -12 -699 -4 -107 3 -298 5 -425 5
-126 -1 -288 -1 -360 -1 -147 0 -391 -15 -510 -30 -44 -6 -125 -14 -180 -19
-95 -9 -195 -22 -385 -54 -47 -8 -116 -24 -155 -36 -38 -12 -86 -24 -105 -26
-19 -3 -61 -10 -93 -16 -63 -12 -162 3 -171 27 -2 7 7 34 20 61 13 27 30 82
38 121 7 40 21 85 31 99 9 14 22 47 30 72 7 26 18 63 25 82 7 19 15 40 17 45
2 6 21 44 44 85 42 79 69 144 69 171 0 9 7 22 16 30 20 16 72 118 95 184 10
27 24 54 31 60 15 11 58 121 58 148 0 8 6 22 13 29 17 20 32 44 68 118 18 36
48 86 66 112 18 26 33 51 33 56 0 11 57 72 67 72 10 0 29 30 60 92 12 26 31
52 41 57 11 6 26 25 35 43 21 44 76 108 94 108 7 0 17 8 20 18 11 28 152 162
172 162 21 0 37 17 42 44 2 10 13 24 23 30 24 14 61 43 100 79 17 16 47 35 66
43 19 8 49 28 65 43 17 16 45 34 63 42 17 8 32 17 32 21 0 3 15 9 33 13 17 3
55 17 82 29 67 31 98 42 175 61 36 9 92 29 125 45 33 16 75 32 94 35 19 3 37
8 41 10 7 4 137 22 230 32 30 3 80 13 109 23 30 9 72 16 93 14 21 -2 38 0 38
4 0 10 30 11 420 17 190 4 352 8 360 9 8 2 140 4 293 5 235 1 284 -1 312 -15z
m9570 1 c28 -3 93 -7 145 -10 65 -4 116 -13 160 -29 36 -13 121 -32 190 -41
134 -18 203 -31 235 -46 11 -5 92 -33 180 -63 234 -79 263 -91 315 -135 26
-22 79 -56 119 -77 44 -22 78 -48 88 -65 10 -16 22 -29 29 -29 13 0 51 -35 79
-73 11 -15 25 -27 30 -27 13 0 75 -59 75 -71 0 -5 6 -9 13 -9 6 0 28 -19 47
-41 19 -23 59 -66 88 -96 28 -30 52 -61 52 -68 0 -8 12 -23 28 -32 45 -29 81
-86 106 -166 3 -9 15 -21 26 -25 14 -5 36 -40 64 -102 30 -69 49 -98 68 -108
18 -8 28 -23 32 -47 4 -19 16 -39 26 -45 12 -6 20 -21 20 -35 0 -13 4 -26 9
-29 5 -3 12 -18 16 -33 3 -16 17 -39 30 -53 12 -14 26 -36 30 -50 4 -14 18
-41 31 -60 12 -19 25 -55 29 -79 4 -24 18 -59 30 -77 13 -19 33 -56 45 -82 12
-26 26 -55 31 -65 5 -9 19 -43 31 -75 11 -31 26 -64 33 -72 7 -8 19 -40 26
-70 7 -30 26 -75 41 -99 15 -25 28 -55 28 -66 0 -12 8 -46 18 -76 22 -64 34
-150 23 -168 -13 -21 -84 -25 -137 -8 -76 24 -191 46 -274 52 -181 13 -219 17
-295 30 -44 7 -127 14 -185 15 -58 1 -121 3 -140 5 -19 1 -109 5 -200 9 -91 4
-201 9 -245 12 -44 3 -343 7 -665 9 -419 2 -594 6 -615 15 -16 6 -42 14 -57
17 -50 10 -55 26 -61 198 -7 172 -21 254 -67 398 -24 76 -50 218 -50 274 0 7
-5 12 -12 10 -6 -1 -13 7 -15 18 -2 11 -8 29 -13 40 -17 37 -80 235 -80 251 0
9 -12 39 -26 68 -14 28 -34 78 -44 111 -26 85 -46 139 -77 198 -14 29 -34 80
-44 115 -10 35 -24 71 -30 79 -7 8 -29 63 -49 122 -21 62 -50 125 -67 147 -17
21 -41 66 -53 100 -12 34 -38 79 -59 102 -30 32 -40 53 -49 105 -14 73 -9 95
22 107 22 9 835 5 921 -5z m-10770 -3390 c170 -3 241 -8 254 -17 37 -27 40
-64 42 -601 2 -518 5 -611 18 -603 4 3 7 -10 8 -28 1 -33 24 -186 48 -316 8
-41 17 -106 20 -144 3 -38 8 -73 10 -76 2 -4 7 -29 10 -56 12 -98 18 -130 41
-206 12 -43 28 -114 35 -158 6 -44 15 -83 20 -86 5 -3 9 -13 9 -22 0 -9 6 -28
13 -43 20 -37 67 -176 67 -197 0 -9 20 -58 45 -107 25 -50 45 -98 45 -107 0
-33 40 -123 77 -173 21 -28 38 -65 40 -84 4 -38 21 -76 62 -142 16 -25 32 -57
36 -70 4 -13 19 -46 32 -74 14 -27 26 -59 27 -70 2 -21 -26 -52 -59 -65 -11
-4 -360 -8 -775 -8 l-755 0 -85 -26 c-47 -14 -123 -37 -170 -50 -160 -44 -205
-60 -242 -83 -21 -13 -48 -23 -60 -23 -27 0 -138 -38 -158 -55 -18 -14 -55
-28 -135 -50 -33 -9 -71 -25 -85 -35 -14 -10 -63 -37 -110 -60 -111 -56 -110
-55 -99 -92 7 -25 5 -34 -9 -44 -9 -7 -14 -16 -10 -20 28 -27 169 -30 1587
-32 995 -1 1463 -4 1485 -12 36 -12 213 -190 189 -190 -4 0 8 -15 25 -33 l32
-33 -21 -25 c-11 -13 -25 -31 -29 -39 -8 -13 -197 -15 -1597 -17 -873 -1
-2084 -4 -2691 -7 -723 -3 -1116 -1 -1140 6 -21 6 -53 27 -74 50 -32 33 -38
47 -39 86 -1 26 -1 51 0 55 1 5 4 333 7 730 3 397 7 828 9 957 2 129 4 290 5
358 0 67 5 133 10 147 5 13 12 50 15 82 3 32 7 67 9 78 3 17 7 43 22 150 3 22
52 144 64 160 8 11 21 58 26 93 3 26 42 95 73 131 12 13 26 41 31 61 5 20 24
49 40 64 17 15 35 37 41 49 21 46 38 71 71 101 18 17 43 49 54 71 12 22 33 46
47 53 14 6 39 34 57 62 17 27 39 52 48 55 24 7 72 50 72 64 0 6 6 11 13 11 6
0 35 20 62 45 28 24 53 45 57 45 3 0 33 27 67 59 36 37 74 64 95 70 20 5 54
23 75 40 21 17 43 31 49 31 5 0 20 8 33 19 13 10 50 24 83 31 39 8 68 21 88
40 16 16 44 32 61 36 17 3 38 10 47 14 8 5 40 18 70 30 30 12 78 33 105 46 28
13 84 30 125 39 80 17 95 21 206 59 88 30 166 45 269 52 44 2 170 11 280 19
263 18 551 27 925 26 168 0 323 4 345 8 22 5 48 7 57 4 10 -2 124 -6 253 -8z
m11475 -20 c477 -5 637 -10 850 -25 74 -5 184 -12 245 -16 60 -3 112 -7 115
-9 3 -2 46 -9 96 -16 49 -6 127 -24 174 -39 47 -15 120 -37 162 -49 42 -11
124 -43 183 -71 58 -27 109 -50 114 -50 13 0 70 -31 77 -42 4 -6 30 -21 58
-34 28 -14 71 -35 96 -49 25 -13 51 -25 58 -25 6 0 12 -6 12 -14 0 -8 14 -17
31 -21 20 -5 38 -18 51 -41 14 -23 27 -34 43 -34 13 0 27 -4 30 -10 3 -5 15
-10 26 -10 10 0 19 -4 19 -9 0 -13 60 -70 103 -98 44 -28 280 -263 340 -338
21 -27 45 -54 53 -58 8 -4 21 -22 30 -38 8 -17 31 -51 50 -76 19 -24 34 -51
34 -58 0 -17 32 -88 43 -96 8 -6 20 -27 55 -93 8 -16 20 -66 26 -111 6 -45 16
-88 22 -96 19 -24 52 -180 59 -284 15 -201 21 -518 10 -535 -3 -5 -1 -19 6
-31 6 -13 7 -24 2 -28 -11 -7 -11 -91 0 -108 5 -8 4 -13 -2 -13 -16 0 -14
-173 1 -188 9 -9 9 -12 0 -12 -17 0 -17 -291 1 -309 9 -11 9 -12 0 -7 -10 6
-12 -109 -10 -556 2 -531 1 -565 -17 -600 -14 -29 -26 -39 -55 -45 -20 -5
-1035 -7 -2256 -6 -2583 3 -2891 4 -2903 12 -5 3 -17 21 -26 38 l-16 33 42 27
c51 33 57 40 65 76 3 15 9 27 14 27 5 0 8 3 8 8 -4 25 4 45 27 65 60 53 -6 50
1479 53 1412 3 1515 5 1551 41 16 17 18 33 4 33 -5 0 -10 15 -10 34 0 40 -12
52 -69 65 -24 5 -53 18 -64 29 -32 28 -181 102 -207 102 -6 0 -37 12 -68 26
-106 49 -117 53 -197 75 -44 11 -105 36 -135 54 -34 20 -85 39 -134 49 -43 9
-80 16 -82 16 -2 0 -4 6 -4 14 0 16 -9 20 -84 36 -51 11 -1448 16 -1466 5 -11
-7 -80 58 -80 76 0 15 29 70 73 143 16 25 36 72 44 103 8 32 27 78 43 103 16
25 40 78 54 119 14 41 34 84 44 95 21 23 37 64 48 116 3 19 18 56 31 82 14 26
26 53 27 60 2 7 9 27 15 43 7 17 19 61 27 99 16 75 46 172 69 222 13 28 21 69
41 214 4 25 10 52 15 60 4 9 10 36 14 60 4 25 10 50 15 55 11 14 42 143 45
190 2 22 8 87 14 145 6 58 11 128 12 155 1 28 10 66 20 87 10 20 21 53 23 75
10 73 17 390 15 688 -1 411 -4 387 50 432 24 21 33 22 131 17 58 -2 305 -7
550 -9z m-16483 -3777 c-3 -7 -5 -2 -5 12 0 14 2 19 5 13 2 -7 2 -19 0 -25z
m0 -425 c-3 -10 -5 -4 -5 12 0 17 2 24 5 18 2 -7 2 -21 0 -30z"/>
<path d="M21240 31798 c-189 -39 -289 -73 -321 -109 -8 -10 -28 -21 -45 -25
-44 -11 -69 -30 -90 -70 -10 -20 -33 -52 -50 -71 -69 -76 -83 -96 -114 -163
-41 -87 -63 -341 -39 -447 35 -155 80 -257 126 -286 8 -5 18 -14 23 -20 47
-55 60 -73 60 -82 0 -24 59 -74 110 -94 31 -12 68 -33 84 -46 49 -42 96 -50
296 -50 168 0 192 2 258 24 39 13 72 27 72 31 0 4 15 14 33 21 37 15 107 63
147 99 15 14 43 36 62 49 33 23 53 49 86 116 8 17 28 44 42 61 19 22 31 51 38
95 11 63 27 238 24 251 -1 3 -3 28 -6 55 -15 157 -36 222 -102 316 -19 26 -34
51 -34 57 0 5 -18 24 -40 41 -22 18 -40 38 -40 44 0 15 -42 55 -58 55 -6 0
-27 14 -47 31 -34 30 -168 87 -270 115 -56 15 -138 16 -205 2z"/>
<path d="M17845 31789 c-167 -30 -216 -46 -271 -92 -16 -13 -45 -29 -65 -36
-42 -14 -73 -40 -94 -81 -8 -16 -31 -37 -50 -46 -19 -9 -35 -20 -35 -24 0 -5
-12 -22 -27 -38 -45 -48 -48 -53 -72 -131 -19 -60 -25 -108 -31 -260 -6 -141
-5 -192 5 -211 6 -14 20 -56 29 -95 18 -74 44 -116 108 -173 21 -19 38 -39 38
-46 1 -24 89 -96 150 -120 35 -15 73 -35 84 -45 56 -51 78 -55 296 -54 215 1
270 10 311 53 9 9 31 22 48 28 17 7 46 17 64 24 50 19 203 182 223 239 10 26
25 50 34 52 10 3 26 32 41 78 22 67 24 90 24 259 l0 185 -48 98 c-27 53 -52
97 -56 97 -4 0 -15 18 -25 40 -10 22 -24 40 -31 40 -7 0 -31 26 -52 57 -21 32
-47 60 -58 63 -11 3 -47 21 -80 41 -88 52 -181 86 -255 93 -136 14 -156 14
-205 5z"/>
    <path d="M19438 30530 c-99 -12 -218 -55 -301 -107 -27 -17 -47 -41 -65 -81
-23 -50 -26 -70 -26 -157 0 -76 4 -108 17 -132 10 -18 22 -33 28 -33 5 0 26
-18 47 -41 41 -45 106 -83 128 -75 17 6 81 -55 95 -92 6 -15 11 -55 11 -89 0
-51 -4 -67 -26 -95 -14 -19 -26 -38 -26 -42 0 -14 -81 -116 -100 -126 -11 -6
-41 -14 -66 -19 -40 -8 -53 -6 -88 14 -35 19 -50 21 -97 16 -68 -8 -85 -21
-99 -72 -13 -47 -2 -165 16 -184 8 -7 14 -17 14 -20 0 -4 10 -18 23 -32 113
-127 140 -138 337 -138 161 1 193 8 205 44 3 10 21 26 40 36 19 9 35 20 35 25
0 6 7 10 15 10 8 0 23 13 33 28 19 31 48 32 57 2 3 -10 19 -22 36 -25 17 -4
33 -13 35 -20 3 -8 19 -18 35 -24 16 -5 29 -14 29 -20 0 -5 10 -13 23 -17 12
-4 24 -10 27 -15 8 -12 125 -29 198 -29 58 0 180 31 192 49 3 4 20 16 38 26
17 11 32 22 32 26 0 3 11 17 24 31 43 47 65 93 75 157 10 62 9 66 -19 116 -30
52 -30 52 -91 59 -34 3 -65 4 -69 1 -5 -3 -48 -7 -97 -10 -104 -5 -121 3 -154
72 -13 26 -34 61 -47 77 -21 27 -23 36 -19 113 5 81 7 87 44 130 26 31 56 52
97 69 32 13 69 35 82 49 13 14 27 25 33 25 5 0 19 17 31 37 17 28 22 56 24
113 1 41 -2 86 -6 99 -5 13 -11 42 -14 64 -8 68 -31 95 -120 137 -128 62 -176
71 -379 75 -99 2 -210 0 -247 -5z"/>
<path d="M12070 22239 c-47 -3 -121 -15 -165 -27 -44 -11 -118 -26 -165 -33
-53 -7 -111 -24 -155 -44 -124 -57 -139 -63 -173 -70 -18 -4 -55 -22 -83 -41
-28 -19 -55 -34 -61 -34 -19 0 -69 -32 -123 -79 -31 -28 -69 -53 -85 -56 -19
-4 -30 -14 -34 -31 -4 -13 -25 -44 -49 -68 -23 -25 -53 -66 -66 -93 -14 -26
-33 -58 -43 -69 -41 -46 -110 -303 -89 -328 6 -7 20 -46 30 -87 23 -87 31
-109 40 -109 10 0 42 -31 71 -70 14 -18 48 -50 77 -71 50 -37 136 -67 329
-113 27 -7 55 -15 60 -19 6 -3 93 -9 195 -12 152 -4 212 -2 344 15 88 11 166
22 173 25 7 2 14 5 17 5 3 0 22 7 42 14 21 8 56 17 78 21 22 3 67 19 100 34
33 16 81 36 107 45 60 20 143 63 159 82 6 8 28 21 48 30 67 30 81 37 81 45 0
24 125 129 154 129 16 0 51 48 60 83 4 16 22 43 40 60 38 36 48 54 71 122 13
37 16 75 12 188 -3 78 -9 151 -13 162 -12 32 -85 135 -95 135 -5 0 -9 5 -9 12
0 16 -49 58 -66 58 -18 0 -81 35 -124 70 -38 29 -102 51 -210 70 -36 7 -69 15
-75 19 -37 28 -239 43 -405 30z"/>
<path d="M26610 22239 c-62 -6 -270 -47 -355 -70 -22 -6 -51 -19 -65 -29 -31
-21 -133 -70 -148 -70 -13 0 -62 -57 -62 -72 0 -6 -15 -26 -33 -43 -49 -48
-70 -131 -70 -275 0 -124 26 -250 62 -300 10 -14 28 -45 40 -69 26 -51 55 -77
131 -122 30 -17 64 -46 75 -62 14 -21 44 -40 100 -64 44 -19 88 -43 99 -55 15
-16 133 -76 271 -138 11 -5 45 -12 75 -16 30 -3 70 -12 88 -20 18 -7 68 -18
110 -23 43 -5 97 -14 122 -20 57 -13 186 -15 370 -6 124 6 152 11 194 31 27
14 72 27 100 30 102 12 188 32 209 51 12 10 34 25 49 33 16 7 34 23 42 34 7
12 36 46 65 76 28 30 54 66 56 80 3 14 11 48 17 75 24 106 -1 300 -49 383 -14
24 -23 46 -20 48 6 6 -52 64 -64 64 -5 0 -9 7 -9 15 0 9 -8 18 -17 22 -22 8
-83 68 -83 82 0 11 -57 61 -70 61 -5 0 -30 22 -56 50 -35 37 -60 54 -100 67
-30 9 -54 23 -54 30 0 14 -24 26 -125 64 -33 12 -87 37 -120 55 -51 27 -79 35
-188 48 -71 8 -134 19 -140 24 -40 31 -279 48 -447 31z"/>
<path d="M9072 19125 c0 -16 2 -22 5 -12 2 9 2 23 0 30 -3 6 -5 -1 -5 -18z"/>
<path d="M9071 19044 c0 -11 3 -14 6 -6 3 7 2 16 -1 19 -3 4 -6 -2 -5 -13z"/>
<path d="M22025 16880 c-183 -5 -204 -7 -250 -28 -27 -13 -61 -29 -75 -35 -14
-7 -31 -18 -38 -24 -7 -7 -28 -13 -46 -13 -18 0 -59 -5 -90 -12 -44 -8 -60
-16 -66 -33 -6 -15 -23 -26 -57 -35 -71 -20 -171 -70 -176 -89 -3 -12 -26 -24
-65 -35 -42 -12 -63 -23 -67 -36 -4 -11 -12 -20 -18 -20 -7 0 -27 -13 -45 -30
-18 -16 -42 -35 -53 -40 -10 -6 -19 -16 -19 -23 0 -7 -23 -26 -50 -43 -27 -17
-60 -46 -73 -65 -12 -19 -45 -45 -72 -59 -33 -18 -51 -34 -55 -50 -4 -16 -17
-29 -36 -35 -35 -11 -84 -64 -84 -89 0 -9 -15 -24 -34 -33 -32 -15 -56 -48
-56 -76 0 -7 -9 -20 -20 -30 -11 -9 -20 -23 -20 -32 0 -8 -13 -24 -29 -36 -16
-12 -37 -37 -47 -55 -10 -19 -24 -34 -30 -34 -21 0 -194 -263 -194 -294 0 -8
-9 -16 -20 -19 -21 -5 -22 -8 -67 -129 -15 -43 -33 -78 -39 -78 -6 0 -23 -29
-38 -65 -16 -35 -34 -69 -41 -75 -8 -6 -17 -26 -20 -43 -4 -18 -20 -52 -35
-77 -15 -25 -33 -62 -40 -83 -6 -21 -22 -50 -34 -65 -13 -15 -26 -40 -30 -56
-11 -46 -69 -160 -88 -174 -10 -7 -18 -26 -18 -43 0 -48 -42 -178 -59 -184
-22 -7 -38 -48 -50 -122 -6 -36 -23 -85 -40 -115 -42 -72 -47 -85 -61 -148
-18 -87 -42 -160 -51 -160 -17 0 -36 -67 -49 -168 -7 -56 -17 -102 -21 -102
-4 0 -13 -16 -19 -35 -7 -20 -20 -44 -29 -53 -12 -11 -26 -59 -41 -132 -12
-63 -29 -122 -37 -132 -16 -18 -46 -130 -59 -218 -10 -70 -7 -60 -57 -170 -31
-68 -41 -109 -58 -230 -10 -77 -17 -98 -36 -116 -29 -27 -38 -56 -58 -194 -19
-133 -35 -201 -52 -221 -18 -22 -31 -97 -53 -297 -10 -95 -23 -178 -28 -185
-27 -34 -53 -199 -62 -397 -5 -113 -14 -234 -20 -270 -13 -82 -29 -401 -35
-680 -5 -227 5 -403 29 -560 8 -52 17 -142 20 -200 6 -129 35 -282 71 -375 16
-40 31 -106 36 -154 8 -70 13 -88 36 -115 16 -18 42 -74 62 -131 18 -55 43
-111 56 -125 12 -14 31 -47 41 -75 20 -54 51 -106 84 -142 11 -12 20 -26 20
-30 0 -5 8 -16 18 -25 43 -42 61 -66 80 -103 22 -45 44 -66 87 -86 17 -8 34
-23 39 -34 13 -28 133 -126 170 -139 45 -16 129 -67 143 -87 12 -16 98 -41
193 -55 25 -4 82 -21 127 -40 111 -44 263 -59 454 -44 194 14 228 20 247 40
18 18 30 22 135 45 53 12 79 24 116 55 26 22 52 40 57 40 22 0 84 52 84 70 0
13 7 20 19 20 10 0 24 7 31 15 7 8 18 15 24 15 14 0 86 71 86 85 0 6 18 29 40
52 23 23 54 71 71 107 17 35 37 70 45 77 8 6 14 17 14 23 0 6 11 28 25 48 14
20 32 70 40 110 19 95 42 156 72 191 l23 29 0 323 c0 303 1 324 19 346 l19 24
476 0 c446 0 476 -1 488 -18 10 -13 14 -70 16 -210 1 -105 5 -200 9 -212 4
-11 7 -24 8 -30 1 -12 25 -67 62 -143 14 -30 27 -78 29 -108 5 -63 28 -129 58
-164 12 -14 30 -42 39 -64 20 -44 124 -163 149 -172 9 -2 28 -25 42 -49 14
-24 35 -47 46 -50 11 -3 20 -10 20 -15 0 -21 85 -74 131 -81 27 -4 55 -14 63
-21 51 -48 110 -76 166 -77 19 -1 67 -8 105 -16 39 -9 95 -20 125 -25 30 -5
84 -15 120 -23 81 -16 228 -12 317 8 37 9 97 21 133 26 148 24 216 40 226 53
5 8 22 18 37 21 29 8 34 19 15 31 -7 5 17 13 56 21 72 13 98 26 90 47 -3 8 10
20 32 31 21 10 47 26 58 37 11 10 30 21 43 24 12 3 29 21 38 40 9 20 27 40 41
46 13 6 24 14 24 18 0 3 10 17 23 30 12 14 21 28 20 31 -1 4 4 13 12 19 8 7
15 19 15 26 0 8 18 32 40 54 22 22 40 49 40 59 0 11 7 26 15 34 8 8 22 34 31
57 9 23 27 52 40 65 12 12 26 40 30 61 3 22 21 71 39 110 19 38 39 99 45 135
7 35 16 73 21 84 4 11 13 38 20 60 6 22 20 50 30 63 23 30 36 100 44 237 6
103 19 177 36 200 14 21 35 217 45 428 4 75 11 137 16 137 4 0 8 5 8 11 0 5
-4 8 -8 5 -7 -4 -8 102 -1 114 5 9 4 730 -1 730 -4 0 -6 17 -6 38 1 72 -15
388 -23 462 -5 41 -18 111 -30 155 -17 61 -24 127 -31 275 -5 107 -12 229 -16
270 -7 77 -36 187 -59 224 -25 41 -34 94 -45 276 -10 180 -33 320 -73 445 -9
28 -21 88 -26 135 -22 192 -43 326 -55 340 -26 31 -36 79 -46 225 -14 201 -28
298 -43 310 -16 13 -40 74 -39 102 0 14 -4 20 -11 16 -5 -3 -8 -2 -5 3 3 5 0
53 -8 106 -12 87 -49 202 -77 236 -5 7 -14 43 -18 80 -12 108 -31 175 -55 199
-13 13 -28 42 -34 66 -5 23 -20 70 -31 104 -12 35 -18 70 -15 79 7 19 -10 54
-27 54 -16 0 -47 52 -47 77 0 28 -31 116 -45 128 -6 6 -32 54 -56 108 -26 58
-51 99 -62 103 -10 3 -20 19 -24 35 -3 16 -9 29 -14 29 -4 0 -11 10 -15 22 -7
24 -29 50 -36 43 -2 -3 -12 13 -22 35 -10 22 -22 40 -27 40 -5 0 -9 5 -9 12 0
19 -43 76 -61 81 -9 2 -29 30 -44 62 -20 40 -38 61 -61 72 -19 10 -35 26 -39
40 -4 17 -19 30 -45 40 -25 10 -40 22 -40 33 0 10 -11 25 -25 34 -14 9 -25 23
-25 31 0 10 -10 15 -28 15 -19 0 -41 14 -77 50 -28 27 -59 50 -70 50 -11 0
-26 9 -33 20 -7 12 -17 18 -21 15 -5 -2 -20 10 -34 28 -17 22 -39 36 -71 45
-33 8 -50 19 -58 36 -12 27 -59 50 -128 61 -53 9 -108 35 -132 64 -22 25 -70
38 -183 46 -64 5 -96 12 -110 25 -29 26 -136 59 -208 65 -91 8 -590 11 -822 5z
m298 -2267 c34 -48 40 -56 70 -76 24 -17 35 -152 41 -492 2 -137 5 -259 7
-270 2 -24 15 -132 31 -265 10 -83 20 -401 22 -705 0 -89 -11 -245 -45 -605
-6 -63 -14 -194 -19 -290 -8 -185 -12 -206 -38 -214 -10 -3 -137 -4 -283 -2
-233 3 -269 6 -292 21 -33 21 -56 68 -58 115 -2 60 11 223 21 270 19 93 27
212 28 439 1 266 6 324 32 398 27 72 48 207 56 353 3 69 13 154 22 190 8 36
17 90 19 120 3 30 9 59 14 65 5 5 9 21 9 35 0 14 4 30 9 35 9 10 25 140 37
285 6 85 35 233 59 299 19 54 25 82 34 147 9 69 30 99 115 164 53 41 71 38
109 -17z"/>
<path d="M11226 16529 c-27 -4 -61 -12 -75 -18 -48 -19 -155 -41 -205 -41
-108 0 -246 -39 -246 -70 0 -4 -30 -13 -67 -20 -56 -11 -74 -19 -99 -47 -17
-18 -36 -33 -42 -33 -7 0 -12 -4 -12 -9 0 -5 -12 -12 -27 -16 -53 -13 -123
-48 -123 -60 0 -8 -17 -19 -37 -26 -21 -6 -58 -33 -83 -59 -25 -25 -62 -59
-82 -74 -21 -16 -38 -33 -38 -40 0 -6 -16 -22 -35 -35 -20 -13 -50 -43 -68
-65 -17 -23 -42 -49 -54 -59 -13 -10 -23 -26 -23 -36 0 -18 -35 -61 -50 -61
-8 0 -62 -87 -95 -151 -5 -10 -15 -19 -22 -19 -20 0 -43 -55 -43 -104 0 -26
-6 -51 -15 -60 -8 -8 -15 -19 -15 -24 0 -6 -6 -12 -14 -15 -17 -7 -44 -59 -52
-103 -3 -19 -10 -34 -15 -34 -5 0 -9 -12 -9 -27 0 -50 -11 -74 -30 -68 -14 4
-20 -5 -33 -52 -8 -32 -19 -87 -22 -123 -4 -36 -13 -72 -20 -80 -7 -8 -15 -24
-18 -35 -3 -11 -15 -45 -27 -75 -12 -30 -30 -114 -41 -186 -10 -72 -30 -166
-44 -209 -36 -105 -46 -214 -47 -508 l-2 -249 -28 -44 c-15 -24 -31 -44 -35
-44 -5 0 -21 18 -37 40 -17 22 -35 40 -42 40 -7 0 -16 10 -20 22 -3 12 -15 30
-25 41 -10 11 -26 43 -35 71 -28 82 -54 137 -65 131 -5 -4 -9 -5 -9 -3 0 21
-68 194 -89 228 -16 25 -37 62 -46 83 -10 21 -32 52 -48 69 -17 16 -40 58 -53
95 -13 36 -32 74 -43 85 -12 10 -21 28 -21 40 0 17 -3 18 -14 9 -12 -10 -16
-5 -21 33 -8 49 -37 96 -60 96 -18 0 -35 31 -35 62 0 28 -53 84 -69 74 -6 -4
-11 -1 -11 7 0 8 -9 22 -20 32 -12 11 -20 31 -20 51 0 26 -6 36 -27 46 -16 7
-35 28 -44 46 -31 62 -71 111 -92 114 -15 2 -26 14 -33 36 -7 22 -22 39 -42
49 -18 9 -32 20 -32 25 0 13 -26 38 -39 38 -6 0 -11 8 -11 19 0 23 -23 43 -41
36 -14 -5 -39 35 -39 63 0 7 -13 18 -29 23 -16 6 -32 17 -35 25 -3 8 -14 14
-25 14 -12 0 -25 11 -33 27 -7 15 -25 30 -41 34 -16 4 -42 24 -59 43 -17 21
-40 36 -52 36 -12 0 -36 14 -54 30 -18 17 -39 30 -47 30 -7 0 -15 10 -17 23
-4 26 -51 46 -116 46 -34 1 -49 7 -70 29 -58 60 -85 70 -242 83 -58 6 -127 14
-154 18 -62 11 -104 9 -281 -13 -138 -17 -215 -36 -246 -63 -8 -7 -25 -13 -36
-13 -11 0 -31 -9 -45 -19 -13 -11 -41 -23 -62 -27 -24 -4 -56 -23 -87 -50 -28
-24 -56 -44 -64 -44 -36 0 -245 -172 -245 -201 0 -5 -6 -9 -13 -9 -19 0 -57
-43 -57 -63 0 -9 -6 -17 -14 -17 -17 0 -106 -95 -106 -114 0 -8 -4 -16 -9 -18
-12 -4 -111 -128 -111 -138 0 -5 -18 -27 -39 -50 -22 -24 -37 -48 -35 -55 3
-7 -11 -33 -30 -57 -31 -42 -84 -143 -100 -195 -4 -11 -14 -23 -24 -25 -17 -5
-41 -94 -58 -212 -4 -27 -15 -57 -25 -67 -11 -11 -19 -29 -19 -41 0 -13 -6
-35 -14 -50 -14 -27 -22 -75 -32 -193 -3 -38 -7 -81 -9 -95 -38 -231 -47 -703
-19 -1015 15 -168 18 -327 9 -466 -9 -128 4 -652 16 -624 7 17 8 16 8 -8 1
-16 -3 -26 -9 -22 -6 4 -10 -13 -10 -44 0 -27 4 -52 8 -55 5 -3 10 -96 11
-207 1 -111 3 -204 5 -208 2 -3 7 -55 10 -116 11 -200 22 -300 33 -318 3 -5 8
-20 9 -31 2 -12 8 -41 14 -66 5 -25 14 -168 20 -318 10 -273 14 -301 65 -512
31 -124 31 -126 39 -255 11 -182 36 -306 71 -361 15 -23 20 -56 31 -201 3 -51
10 -93 15 -93 5 0 8 -3 7 -7 0 -5 6 -25 15 -45 10 -21 17 -47 17 -58 0 -11 10
-42 23 -68 13 -26 29 -78 36 -117 13 -72 27 -114 61 -176 10 -20 22 -58 25
-84 6 -56 66 -183 101 -216 13 -12 24 -31 24 -41 0 -10 14 -45 30 -78 16 -33
30 -65 30 -72 1 -25 69 -121 100 -139 21 -13 30 -26 30 -45 0 -35 17 -64 38
-64 22 0 42 -19 42 -40 0 -20 83 -100 104 -100 9 0 16 -8 16 -20 0 -13 14 -27
40 -40 22 -11 40 -26 40 -33 0 -18 66 -67 89 -67 12 0 21 -4 21 -10 0 -5 8
-10 18 -10 10 0 29 -11 42 -25 38 -41 78 -55 185 -66 68 -7 102 -15 108 -25
20 -36 78 -48 232 -50 188 -2 295 10 360 41 37 18 79 27 165 35 134 12 201 27
194 44 -3 8 14 17 46 26 27 7 50 17 50 21 0 5 19 13 43 19 71 18 97 32 97 50
0 9 16 25 35 36 19 10 35 22 35 25 0 4 25 32 55 62 30 30 55 61 55 69 0 18 56
125 75 145 8 8 18 26 21 41 3 15 11 43 17 62 7 23 10 145 9 345 -2 362 -2 360
-33 490 -5 22 -11 56 -13 75 -2 19 -6 42 -9 50 -3 8 -8 27 -11 43 -4 15 -12
27 -20 27 -10 0 -15 35 -20 148 -6 151 -15 214 -60 425 -28 135 -40 267 -50
590 -1 15 -4 27 -7 27 -4 0 -9 21 -12 48 -3 26 -8 58 -11 72 -4 14 -8 143 -11
286 -2 144 -5 266 -7 270 -3 14 25 84 34 84 4 0 8 -4 8 -10 0 -16 27 -12 34 5
3 8 14 15 24 15 23 0 38 -34 48 -105 8 -64 32 -152 52 -190 9 -16 15 -33 14
-37 -1 -4 7 -12 18 -18 11 -6 20 -19 20 -30 0 -10 5 -22 10 -25 6 -4 10 -12 8
-18 -1 -7 2 -46 6 -88 6 -64 12 -81 37 -108 16 -18 29 -36 29 -40 0 -16 43
-146 51 -156 5 -5 9 -16 9 -26 0 -9 11 -32 24 -51 13 -19 33 -66 45 -103 12
-38 32 -86 44 -108 12 -22 30 -54 39 -71 9 -17 26 -59 38 -93 13 -37 30 -67
44 -77 15 -9 26 -30 31 -53 4 -21 13 -45 21 -53 39 -42 74 -89 74 -98 0 -17
34 -86 55 -110 11 -13 28 -33 38 -44 9 -12 17 -25 17 -30 0 -8 32 -57 55 -84
6 -7 24 -28 40 -49 17 -20 47 -52 68 -72 20 -20 37 -44 37 -54 0 -22 40 -54
85 -69 19 -6 37 -20 40 -31 6 -19 48 -46 82 -52 10 -2 25 -7 33 -10 8 -3 48
-13 88 -22 40 -10 74 -21 77 -25 9 -15 108 -9 164 9 68 22 156 47 194 56 15 3
31 14 35 25 4 10 26 32 49 49 23 17 57 53 75 81 18 27 38 50 44 50 10 0 70 91
83 125 2 6 14 21 26 35 13 14 31 50 41 80 9 30 23 62 31 70 37 41 63 96 84
179 13 50 28 91 35 91 24 0 37 32 45 112 8 78 15 105 45 175 8 17 14 38 14 47
0 9 4 16 10 16 12 0 30 65 45 170 7 47 31 140 54 207 28 83 41 138 41 175 0
63 18 168 31 184 5 6 6 14 2 17 -3 4 -1 7 5 7 7 0 12 8 12 18 0 10 4 22 8 27
25 31 49 154 61 315 10 133 16 160 35 160 21 0 54 -43 68 -87 7 -24 16 -43 20
-43 5 0 8 -6 8 -12 0 -7 15 -40 33 -73 l32 -60 0 -625 c0 -344 -1 -746 -3
-895 -1 -148 0 -295 2 -325 3 -30 8 -128 11 -218 l6 -162 45 -90 c24 -50 44
-95 44 -100 0 -20 77 -175 93 -189 10 -7 17 -19 17 -26 0 -6 12 -30 28 -52 39
-57 51 -75 61 -98 5 -11 29 -39 53 -61 24 -23 64 -64 88 -92 24 -29 47 -52 52
-52 8 0 61 -38 209 -151 19 -15 69 -37 110 -48 41 -12 92 -30 114 -40 99 -46
104 -47 300 -57 146 -6 297 11 355 42 29 15 145 54 161 54 23 0 158 71 187 98
76 71 121 102 148 102 15 0 84 66 84 80 0 4 13 13 30 20 20 8 34 25 46 56 9
24 28 51 41 59 14 9 31 32 39 51 8 19 18 34 22 34 4 0 16 14 26 31 10 17 29
41 42 52 14 12 27 37 30 58 4 21 17 48 30 60 13 12 24 28 24 35 0 7 6 14 12
16 12 4 33 84 43 160 2 21 13 57 23 80 30 69 33 79 46 166 21 136 10 386 -21
502 -18 67 -21 89 -28 165 -4 33 -8 76 -11 95 -3 19 -7 103 -9 185 -4 165 -11
251 -25 305 -5 19 -14 82 -21 140 -6 58 -19 125 -29 150 -10 25 -18 52 -18 60
0 8 -5 110 -11 225 -12 231 -29 402 -51 520 -6 28 -12 65 -15 84 -3 18 -10 41
-15 51 -5 9 -7 20 -3 23 3 4 1 12 -5 19 -5 7 -11 65 -11 128 -1 63 -6 153 -12
200 -6 47 -12 103 -14 125 -15 183 -31 281 -47 291 -13 8 -9 54 4 54 7 0 5 5
-4 13 -12 9 -18 37 -23 107 -3 52 -8 102 -10 110 -3 8 -14 89 -25 179 -19 156
-36 231 -51 231 -13 0 -29 90 -29 167 0 43 -5 132 -10 198 -5 66 -12 152 -15
190 -7 102 -14 142 -37 215 -22 72 -34 175 -43 355 -9 183 -49 397 -77 416 -5
3 -15 57 -23 120 -21 178 -32 220 -67 269 -10 14 -25 66 -34 115 -16 89 -42
181 -70 241 -7 18 -23 71 -35 120 -11 48 -29 99 -40 112 -10 14 -19 30 -19 37
0 6 -8 20 -19 29 -10 9 -21 31 -25 47 -8 43 -37 102 -57 116 -9 7 -29 44 -45
83 -16 38 -34 70 -40 70 -6 0 -22 21 -35 47 -25 49 -66 95 -112 127 -15 10
-27 28 -27 40 0 41 -37 83 -99 112 -33 16 -61 35 -61 42 0 16 -59 52 -86 52
-12 0 -35 17 -55 40 -36 42 -96 80 -129 80 -10 0 -23 6 -27 13 -23 37 -80 54
-267 82 -60 9 -135 25 -169 36 -62 20 -118 22 -201 8z m-5899 -4771 c-2 -13
-4 -5 -4 17 -1 22 1 32 4 23 2 -10 2 -28 0 -40z"/>
<path d="M16391 16481 c-16 -10 -156 -16 -304 -13 -138 4 -242 -16 -325 -60
-18 -10 -40 -18 -50 -18 -34 -1 -245 -80 -277 -104 -19 -15 -38 -26 -44 -26
-6 0 -29 -7 -51 -16 -27 -11 -40 -22 -40 -35 0 -11 -7 -19 -17 -19 -31 0 -83
-39 -100 -75 -9 -19 -22 -35 -28 -35 -20 0 -125 -138 -148 -192 -7 -18 -20
-62 -27 -97 -9 -43 -19 -65 -30 -68 -28 -8 -41 -64 -50 -225 -6 -108 -14 -166
-24 -187 -9 -16 -16 -41 -16 -55 0 -13 -9 -46 -21 -73 -22 -52 -35 -114 -44
-207 -20 -216 -34 -295 -74 -426 -6 -19 -16 -127 -22 -240 -7 -152 -15 -221
-30 -268 -10 -34 -19 -73 -19 -85 0 -13 -5 -28 -10 -33 -25 -25 -50 -198 -50
-349 -1 -260 -16 -462 -40 -550 -35 -127 -38 -145 -44 -235 -20 -296 -36
-1215 -22 -1238 3 -6 0 -12 -6 -15 -11 -3 -11 -11 0 -39 8 -24 12 -113 12
-299 0 -229 7 -394 25 -609 5 -56 28 -185 46 -254 6 -21 13 -70 15 -110 10
-145 24 -269 33 -280 8 -9 35 -97 32 -103 0 -2 10 -27 23 -56 15 -36 26 -83
30 -143 10 -117 23 -165 52 -189 20 -16 26 -34 34 -102 11 -87 29 -140 64
-188 26 -36 50 -87 47 -99 -1 -4 2 -13 7 -20 5 -6 15 -29 22 -51 20 -64 110
-228 140 -256 15 -15 31 -40 34 -56 4 -16 25 -51 46 -77 22 -27 40 -51 40 -55
0 -6 13 -23 93 -116 58 -68 170 -175 183 -175 11 0 35 -18 88 -67 16 -15 58
-42 94 -61 36 -18 78 -42 93 -53 36 -25 97 -46 173 -60 78 -13 77 -13 101 -26
59 -32 150 -45 284 -40 122 5 139 8 195 36 33 16 77 33 96 36 45 9 108 46 144
84 16 17 41 33 55 36 14 3 49 27 76 54 91 88 165 167 165 178 0 5 16 28 36 49
34 35 94 150 94 178 0 7 16 27 35 46 23 23 34 45 35 63 0 20 6 30 20 34 11 3
20 14 20 24 0 32 1 33 21 56 21 22 28 43 57 180 11 47 25 88 34 95 18 14 41
93 58 200 5 36 23 106 40 155 35 106 60 235 60 312 0 67 14 157 40 266 41 173
42 186 60 720 6 182 12 348 15 370 2 22 4 112 4 200 0 88 1 246 1 350 3 541 1
621 -15 810 -2 28 -6 140 -9 250 -14 474 -18 610 -21 615 -2 3 -6 43 -10 88
-3 45 -12 99 -19 119 -30 84 -44 348 -52 953 -5 399 -9 517 -19 549 -2 9 -10
68 -16 131 -6 63 -12 124 -13 136 -1 11 -6 25 -10 32 -4 7 -4 17 -1 22 3 6 1
10 -4 10 -6 0 -11 11 -11 24 0 14 -4 28 -10 31 -5 3 -10 45 -10 93 0 164 -18
321 -42 371 -12 25 -28 53 -34 61 -7 8 -20 48 -28 89 -9 41 -21 82 -28 91
-101 136 -186 230 -208 230 -5 0 -29 17 -51 38 -40 36 -45 37 -138 44 -53 4
-114 10 -136 13 -79 10 -360 15 -374 6z"/>
<path d="M28705 16359 c-22 -4 -60 -13 -85 -19 -25 -6 -67 -16 -95 -21 -27 -6
-61 -19 -75 -29 -14 -10 -55 -23 -90 -30 -94 -16 -127 -28 -133 -49 -3 -12
-21 -22 -52 -30 -26 -6 -59 -20 -73 -30 -59 -40 -140 -91 -164 -102 -14 -6
-31 -22 -38 -35 -7 -13 -30 -35 -52 -49 -21 -14 -38 -30 -38 -35 0 -6 -7 -10
-15 -10 -8 0 -15 -4 -15 -9 0 -5 -26 -26 -57 -47 -59 -39 -103 -80 -103 -95 0
-5 -8 -17 -17 -27 -38 -38 -103 -125 -103 -138 0 -8 -9 -19 -20 -26 -10 -7
-33 -46 -51 -88 -44 -105 -50 -117 -70 -139 -10 -11 -23 -41 -29 -68 -20 -96
-44 -164 -61 -174 -23 -12 -36 -55 -48 -154 -10 -82 -41 -181 -72 -225 -17
-25 -27 -65 -54 -219 -9 -53 -24 -98 -39 -121 -19 -29 -27 -61 -36 -141 -12
-103 -55 -269 -70 -269 -14 0 -28 -57 -35 -132 -11 -138 -28 -223 -58 -283
-28 -55 -30 -70 -38 -230 -7 -117 -15 -190 -29 -235 -16 -55 -30 -108 -32
-130 -1 -3 -11 -21 -23 -40 -17 -28 -22 -53 -24 -125 -4 -158 -20 -328 -30
-334 -15 -10 -50 -148 -55 -221 -3 -36 -8 -177 -12 -315 -9 -322 -8 -318 -16
-330 -4 -6 -7 -38 -7 -70 0 -33 -3 -98 -7 -145 -14 -168 -7 -800 9 -819 7 -8
12 -72 14 -175 3 -266 30 -435 75 -479 11 -11 18 -32 18 -54 0 -91 44 -253 68
-253 9 0 32 -73 32 -99 0 -19 6 -38 36 -108 8 -17 14 -35 14 -41 0 -5 6 -15
14 -21 8 -7 31 -51 51 -99 20 -48 42 -93 50 -102 7 -8 34 -55 60 -105 80 -156
114 -209 160 -251 25 -22 45 -43 45 -47 0 -18 72 -109 148 -185 28 -29 52 -57
52 -62 0 -4 22 -22 50 -40 33 -21 53 -43 61 -65 8 -21 24 -38 46 -49 18 -9 38
-26 44 -38 6 -13 28 -31 49 -41 22 -10 68 -39 104 -65 36 -26 84 -58 106 -71
22 -14 42 -32 45 -41 3 -9 24 -24 48 -34 62 -26 101 -47 113 -63 7 -7 34 -21
60 -31 27 -9 84 -36 126 -60 42 -23 83 -42 90 -42 6 0 57 -22 113 -49 60 -29
132 -55 180 -65 110 -23 157 -37 176 -53 30 -25 127 -51 235 -63 60 -6 122
-17 139 -25 60 -26 103 -35 265 -54 137 -16 214 -18 455 -15 328 6 458 20 515
59 19 13 58 26 85 30 85 11 149 27 175 43 35 23 145 67 209 83 34 8 59 22 68
35 8 13 42 32 80 46 39 13 82 37 102 57 20 18 65 49 101 68 36 19 73 43 82 53
9 10 40 28 67 41 28 12 51 28 51 35 0 13 51 60 124 114 26 19 57 46 69 58 78
85 175 179 192 187 11 6 29 27 40 48 11 21 35 46 53 57 17 11 32 26 32 35 0
18 61 85 78 85 7 0 22 20 33 44 11 25 29 53 42 63 26 22 97 124 97 141 0 7 11
17 24 23 15 7 31 29 41 55 9 24 29 54 45 68 16 13 35 39 43 57 8 19 38 65 66
103 28 38 51 75 51 82 0 8 17 36 38 64 21 28 52 82 68 121 19 47 36 74 51 80
15 5 26 22 33 51 6 24 18 54 26 68 7 14 19 37 25 53 6 15 14 27 18 27 11 0 37
63 57 135 9 33 22 67 29 75 18 22 65 120 65 136 0 15 2 20 39 89 38 74 53 110
68 164 7 30 27 78 43 105 16 29 32 75 36 106 4 32 22 86 45 130 39 78 69 167
69 207 0 26 32 125 65 198 12 28 25 73 28 100 7 63 51 217 78 273 12 23 25 77
30 120 16 136 29 212 38 230 41 76 62 170 82 357 6 61 17 124 25 140 23 53 44
163 49 268 3 56 7 145 10 197 3 52 5 167 6 255 0 137 15 333 34 440 2 17 7 57
10 90 3 33 8 74 10 90 24 170 29 1060 7 1155 -7 30 -16 67 -19 83 -3 15 -8 27
-12 27 -4 0 -7 8 -8 18 -1 9 -6 35 -11 57 -6 22 -13 83 -16 135 -11 160 -18
211 -31 217 -7 2 -27 39 -45 81 -59 139 -69 161 -84 169 -8 4 -26 37 -40 73
-16 41 -41 80 -66 104 -22 21 -40 44 -40 51 0 7 -19 28 -43 46 -24 19 -65 59
-91 89 -26 30 -71 67 -99 83 -27 15 -62 39 -76 53 -32 32 -82 58 -141 74 -25
6 -74 26 -110 43 l-65 32 -208 4 c-230 3 -271 -3 -348 -50 -25 -16 -50 -29
-56 -29 -49 0 -188 -70 -201 -102 -2 -4 -24 -17 -48 -27 -25 -11 -51 -26 -58
-33 -77 -73 -190 -188 -226 -229 -25 -28 -68 -75 -97 -104 -29 -30 -56 -68
-61 -87 -5 -21 -18 -38 -35 -46 -15 -7 -30 -25 -34 -40 -11 -47 -54 -136 -76
-160 -24 -26 -47 -85 -47 -124 0 -33 -19 -77 -41 -98 -20 -18 -44 -93 -58
-179 -14 -84 -50 -201 -62 -201 -19 0 -38 -69 -45 -161 -4 -65 -11 -102 -23
-119 -10 -14 -20 -36 -24 -50 -3 -14 -12 -52 -20 -85 -8 -33 -18 -103 -22
-155 -3 -52 -12 -117 -20 -145 -7 -27 -16 -67 -20 -89 -3 -21 -10 -46 -15 -55
-36 -71 -51 -154 -60 -329 -6 -124 -16 -209 -29 -260 -47 -180 -60 -254 -66
-387 -3 -77 -11 -169 -17 -205 -5 -36 -12 -78 -14 -95 -7 -50 -24 -108 -45
-151 -17 -35 -21 -74 -29 -311 -10 -294 -16 -363 -36 -402 -8 -14 -14 -40 -14
-56 0 -17 -4 -35 -8 -40 -12 -14 -28 -67 -53 -175 -18 -79 -66 -206 -97 -257
-40 -66 -131 -191 -136 -186 -3 4 -6 1 -6 -5 0 -7 -12 -22 -26 -35 -14 -12
-34 -39 -45 -59 -10 -20 -29 -40 -41 -44 -32 -10 -121 -64 -138 -85 -23 -27
-85 -39 -205 -39 -200 0 -212 5 -330 119 -96 93 -112 117 -120 178 -8 64 -20
93 -38 93 -28 0 -38 41 -38 155 0 87 -5 123 -17 148 -13 26 -16 60 -16 177 2
153 5 200 15 194 3 -2 6 34 7 79 1 108 7 185 15 193 3 3 3 12 0 20 -5 14 18
88 42 134 7 14 16 41 21 60 4 19 9 42 11 50 2 8 6 76 9 150 5 130 19 214 34
205 4 -3 11 17 15 43 4 26 11 52 17 59 15 18 31 85 42 173 13 108 29 165 66
232 5 9 16 81 25 160 9 78 22 150 29 158 28 34 75 199 90 315 6 48 24 101 44
133 15 24 38 130 48 227 4 33 15 83 26 110 44 109 67 198 73 277 7 102 23 198
42 261 8 26 21 84 28 130 17 101 15 361 -3 379 -7 7 -12 18 -12 24 0 7 -5 25
-12 41 -6 15 -12 31 -12 35 -1 3 -4 10 -8 14 -5 4 -8 30 -8 58 -1 58 -14 126
-28 135 -4 3 -17 22 -28 41 -10 19 -24 42 -30 50 -6 8 -15 26 -19 40 -14 47
-37 90 -49 90 -7 0 -20 15 -29 33 -35 67 -55 91 -112 130 -14 11 -30 29 -35
42 -10 27 -56 54 -100 60 -35 4 -70 22 -70 36 0 6 -6 16 -13 23 -12 12 -27 16
-152 37 -59 10 -150 41 -190 66 -46 28 -212 40 -300 22z"/>
<path d="M5311 11694 c0 -11 3 -14 6 -6 3 7 2 16 -1 19 -3 4 -6 -2 -5 -13z"/>
<path d="M14472 11395 c0 -16 2 -22 5 -12 2 9 2 23 0 30 -3 6 -5 -1 -5 -18z"/>
<path d="M16808 6497 c-15 -7 -51 -38 -81 -70 -29 -31 -58 -57 -64 -57 -5 0
-22 -18 -37 -40 -14 -22 -30 -40 -34 -40 -7 0 -21 -27 -41 -82 -15 -40 -2 -98
24 -110 12 -5 29 -23 39 -39 9 -16 30 -36 45 -43 25 -13 31 -13 58 4 17 10 33
17 35 14 3 -2 22 11 44 30 21 18 54 41 72 50 18 9 32 24 32 35 0 10 21 38 48
63 59 55 72 84 71 156 -1 78 -10 105 -39 119 -39 18 -141 24 -172 10z"/>
<path d="M5519 6355 c-3 -3 -163 -6 -354 -6 -192 0 -358 -5 -370 -9 -12 -5
-46 -11 -76 -15 -30 -3 -61 -8 -71 -11 -23 -7 -38 -56 -38 -126 0 -51 4 -62
26 -83 15 -14 37 -25 48 -25 12 0 26 -4 32 -9 16 -15 112 -31 187 -31 73 0 73
0 116 -44 l43 -44 -7 -73 c-4 -41 -8 -295 -10 -565 l-4 -491 35 -38 c19 -21
34 -45 34 -52 0 -22 57 -50 109 -52 44 -1 51 2 75 33 14 19 26 38 26 41 0 4
10 19 23 34 22 27 23 28 19 307 -3 281 -2 695 2 769 1 22 3 52 4 66 2 29 51
85 85 98 12 5 64 12 115 15 51 4 107 10 125 12 18 3 39 6 47 7 35 4 83 54 89
93 14 80 -18 164 -61 164 -10 0 -18 4 -18 9 0 6 -19 12 -42 15 -90 11 -184 17
-189 11z"/>
<path d="M8111 6351 c-1 -9 -8 -11 -22 -8 -17 5 -20 2 -16 -13 5 -19 -16 -30
-59 -30 -15 0 -24 -9 -30 -27 -9 -31 -6 -1444 3 -1511 9 -66 46 -87 149 -86
87 0 104 8 118 54 14 43 17 1478 4 1532 -12 47 -33 67 -51 49 -12 -12 -37 -3
-37 14 0 7 -7 18 -16 26 -13 10 -17 10 -24 0 -6 -11 -9 -11 -13 0 -5 12 -6 12
-6 0z"/>
<path d="M18871 6330 c-13 -18 -33 -30 -46 -30 -35 0 -48 -25 -52 -100 -4 -73
9 -100 48 -100 11 0 34 -7 51 -16 29 -15 53 -15 122 0 70 16 81 38 74 138 -4
55 -8 63 -39 89 -24 20 -41 26 -60 22 -16 -3 -30 1 -38 11 -19 23 -33 20 -60
-14z"/>
<path d="M32720 6350 c0 -5 -11 -10 -25 -10 -81 0 -124 -173 -60 -240 14 -15
31 -27 38 -28 6 0 32 -6 56 -13 40 -11 46 -11 60 8 9 11 29 28 44 38 35 23 59
66 47 86 -5 7 -7 24 -3 37 4 18 -6 33 -53 77 -54 49 -104 71 -104 45z"/>
<path d="M7565 6340 c-3 -5 -10 -8 -15 -5 -5 3 -12 1 -15 -5 -5 -8 -12 -7 -22
2 -13 10 -20 7 -43 -21 -15 -19 -32 -31 -38 -27 -7 4 -18 -8 -29 -31 -15 -35
-17 -98 -16 -757 l0 -719 22 -18 c11 -9 21 -22 21 -28 0 -5 11 -21 24 -35 21
-23 31 -26 94 -26 64 0 72 2 91 27 12 14 24 38 28 52 3 14 10 31 15 38 9 11
21 814 15 1008 -4 145 -1 310 6 338 6 21 4 27 -8 27 -10 0 -15 10 -15 28 0 43
-61 156 -87 160 -11 2 -24 -2 -28 -8z"/>
<path d="M11670 6320 c-14 -11 -30 -18 -37 -15 -7 2 -15 0 -18 -5 -4 -6 -17
-10 -29 -10 -13 0 -28 -6 -34 -13 -7 -8 -10 -248 -9 -747 l2 -735 32 -15 c17
-8 34 -25 38 -38 12 -46 40 -62 109 -62 73 0 79 5 103 81 17 55 21 141 26 629
2 113 7 216 11 230 16 46 51 54 66 15 6 -15 21 -27 42 -33 33 -8 44 -21 153
-179 31 -45 73 -94 93 -109 21 -16 39 -31 42 -34 13 -15 66 -44 76 -42 7 1 14
-4 18 -13 9 -24 55 -18 91 13 18 15 45 35 59 45 15 10 33 33 40 52 8 18 26 41
41 51 15 10 35 36 45 59 10 23 34 59 55 81 20 21 53 64 74 96 41 63 53 63 86
-2 18 -34 21 -129 25 -748 0 -81 1 -83 28 -93 15 -5 37 -26 50 -49 26 -45 48
-54 112 -42 65 11 96 60 109 173 8 68 8 385 0 684 -1 22 -1 123 -1 225 2 415
0 452 -28 494 -20 29 -31 36 -52 34 -18 -2 -33 4 -43 17 -15 20 -15 20 -30 0
-11 -13 -25 -19 -44 -17 -16 2 -32 -1 -36 -7 -3 -6 -17 -11 -31 -11 -13 0 -24
-6 -24 -13 0 -33 -39 -88 -119 -167 -47 -47 -102 -112 -121 -143 -19 -31 -38
-57 -42 -57 -16 0 -46 -39 -59 -74 -7 -20 -19 -36 -26 -36 -7 0 -24 -17 -38
-37 -53 -81 -68 -94 -104 -87 -18 4 -35 13 -38 20 -3 8 -14 14 -24 14 -17 0
-39 26 -93 114 -11 17 -26 35 -33 39 -25 15 -55 52 -65 79 -5 14 -26 38 -47
52 -37 26 -61 62 -61 92 0 8 -16 22 -35 31 -25 12 -35 23 -35 40 0 16 -8 27
-25 33 -14 5 -25 17 -25 26 0 8 -23 38 -52 65 -43 41 -57 49 -79 44 -17 -4
-30 -1 -39 10 -16 19 -20 19 -50 -5z"/>
<path d="M23160 6308 c-19 -10 -47 -18 -62 -18 -32 0 -36 -5 -43 -56 -11 -71
-35 -130 -67 -163 -26 -27 -33 -44 -40 -98 -4 -36 -16 -82 -26 -102 -11 -20
-25 -54 -32 -76 -7 -22 -23 -58 -35 -80 -12 -22 -28 -66 -34 -98 -8 -36 -21
-66 -36 -80 -21 -20 -71 -157 -57 -157 3 0 -1 -6 -10 -12 -9 -7 -19 -30 -23
-52 -3 -21 -15 -51 -26 -66 -11 -15 -29 -60 -40 -101 -11 -41 -25 -87 -33
-104 -52 -113 -56 -126 -56 -190 0 -77 7 -93 63 -146 63 -59 94 -55 167 19 43
43 59 67 64 97 10 51 32 101 67 146 15 19 31 47 34 62 11 42 37 50 154 47 58
-1 162 -2 231 -3 133 -2 190 -18 190 -55 0 -9 7 -25 15 -36 8 -10 17 -38 21
-62 3 -25 10 -47 15 -50 5 -3 9 -14 9 -24 0 -11 14 -36 32 -56 18 -20 41 -55
53 -78 l21 -41 73 4 c72 3 111 20 111 47 0 7 14 24 30 37 38 32 39 70 5 138
-14 27 -37 94 -51 147 -13 53 -34 109 -44 124 -11 15 -20 34 -20 43 0 9 -6 23
-14 30 -8 8 -21 48 -31 90 -9 42 -26 87 -39 103 -26 32 -52 93 -61 142 -12 63
-29 104 -57 132 -19 21 -29 46 -39 100 -12 73 -30 108 -56 108 -16 0 -33 41
-31 73 3 44 -47 172 -81 204 -10 10 -21 31 -25 48 -11 44 -24 55 -65 55 -20 0
-47 6 -62 13 -22 12 -30 11 -59 -5z m45 -627 c-2 -5 4 -16 15 -26 11 -10 20
-23 20 -29 0 -6 16 -22 35 -35 23 -15 38 -36 45 -60 10 -41 7 -118 -6 -131 -5
-4 -38 -11 -74 -15 -57 -6 -69 -4 -90 13 -22 18 -24 26 -22 92 4 106 19 172
43 192 20 17 45 16 34 -1z"/>
<path d="M25590 6209 c-71 -9 -88 -16 -95 -42 -4 -12 -22 -71 -41 -132 -31
-98 -38 -112 -69 -132 -19 -13 -40 -23 -46 -23 -6 0 -23 -7 -38 -16 -21 -12
-27 -22 -23 -39 2 -13 0 -31 -6 -41 -21 -38 18 -101 80 -128 18 -7 51 -32 73
-55 l39 -41 2 -268 c1 -147 4 -276 7 -287 2 -11 8 -39 12 -62 9 -57 100 -154
162 -173 25 -8 45 -21 49 -32 11 -35 50 -51 134 -52 64 -1 83 3 106 19 35 27
58 98 44 139 -6 16 -10 38 -10 48 0 24 -25 50 -71 76 -111 62 -122 74 -129
137 -11 103 -6 451 7 467 7 8 45 25 85 38 40 14 81 33 91 44 26 30 48 113 41
160 -9 59 -26 73 -98 81 -47 5 -69 12 -85 29 -30 32 -49 106 -46 175 l3 60
-36 16 c-21 9 -48 22 -62 29 -17 8 -43 10 -80 5z"/>
<path d="M30981 6196 c-14 -14 -30 -26 -37 -26 -20 0 -52 -80 -59 -150 -8 -87
-15 -110 -29 -110 -26 0 -105 -62 -120 -95 -9 -19 -21 -37 -26 -40 -6 -3 -10
-17 -10 -30 0 -18 9 -29 35 -41 19 -9 35 -20 35 -24 0 -4 8 -10 18 -12 9 -3
37 -30 61 -62 l44 -57 3 -257 c4 -343 6 -355 54 -402 22 -21 42 -50 46 -64 4
-18 15 -27 37 -32 52 -11 100 -36 144 -76 37 -33 49 -38 90 -38 57 0 116 27
122 55 2 11 12 33 23 48 14 20 18 36 13 55 -3 15 -9 39 -12 54 -6 29 -48 66
-100 87 -18 8 -33 17 -33 21 0 5 -13 22 -29 38 -67 66 -71 88 -69 304 3 221 4
222 85 259 23 10 45 23 48 29 3 5 14 10 23 10 9 1 33 14 52 30 19 17 38 30 43
30 5 0 15 7 24 15 14 14 14 20 -2 61 -9 25 -14 48 -11 51 9 9 -14 33 -32 33
-8 0 -23 6 -31 13 -9 8 -37 20 -62 26 -72 20 -123 97 -134 205 -7 65 -9 67
-45 86 -20 10 -59 22 -86 25 -44 6 -51 4 -73 -19z"/>
<path d="M26570 5895 c-41 -6 -91 -19 -110 -29 -42 -22 -116 -88 -147 -131
-13 -16 -40 -50 -60 -74 -43 -49 -47 -61 -69 -180 -8 -46 -23 -96 -34 -111
-14 -20 -21 -47 -22 -94 -2 -55 1 -69 20 -88 15 -17 25 -49 35 -108 17 -98 20
-113 28 -120 16 -15 79 -105 79 -114 1 -20 44 -62 77 -75 17 -7 40 -22 50 -33
9 -11 41 -31 70 -44 43 -21 72 -26 167 -30 64 -2 154 0 201 5 81 10 88 13 143
57 31 26 63 49 70 51 7 3 19 18 27 33 8 16 29 43 46 62 40 44 64 91 78 157 6
30 17 61 24 69 13 16 23 87 33 230 7 101 -4 158 -38 188 -10 10 -18 24 -18 33
0 9 -11 47 -25 84 -18 50 -37 80 -70 113 -25 24 -51 44 -57 44 -6 0 -20 7 -30
17 -41 37 -98 62 -155 68 -24 2 -47 7 -52 9 -4 3 -45 8 -92 11 -46 4 -86 8
-89 9 -3 2 -39 -2 -80 -9z m298 -326 c12 -8 27 -30 33 -49 7 -19 20 -51 30
-70 11 -19 19 -40 19 -46 0 -6 7 -25 16 -42 8 -18 13 -40 9 -51 -3 -10 -6 -40
-7 -65 0 -32 -6 -49 -17 -55 -9 -5 -22 -31 -30 -58 -7 -26 -18 -65 -24 -85
-12 -45 -32 -65 -72 -73 -46 -10 -191 -6 -220 5 -15 6 -31 8 -36 4 -5 -3 -22
7 -37 23 -24 24 -31 45 -46 135 -38 219 -9 359 87 422 41 27 45 28 157 23 74
-2 123 -9 138 -18z"/>
<path d="M29935 5894 c-121 -22 -129 -26 -170 -63 -22 -21 -52 -45 -67 -54
-16 -10 -28 -26 -28 -37 0 -26 -19 -59 -47 -82 -37 -31 -74 -105 -79 -161 -8
-77 -12 -94 -30 -111 -23 -23 -24 -56 -3 -157 10 -50 15 -98 12 -106 -4 -10
-2 -14 5 -9 7 4 13 -10 17 -41 4 -27 16 -63 26 -81 10 -18 19 -37 19 -42 0 -5
23 -44 51 -85 39 -59 60 -80 95 -96 24 -12 44 -25 44 -29 0 -14 87 -58 127
-64 63 -11 325 -9 371 2 24 6 51 17 61 26 10 9 20 16 23 16 10 0 103 98 141
149 21 28 49 84 63 124 15 39 33 84 40 99 14 27 23 65 28 119 2 14 5 30 8 35
3 5 4 55 2 111 -3 101 -16 144 -50 166 -7 4 -15 26 -19 49 -4 22 -13 54 -20
71 -15 35 -113 147 -130 147 -7 0 -24 11 -38 24 -55 51 -124 73 -242 79 -61 3
-117 8 -125 10 -8 2 -46 -2 -85 -9z m239 -316 c54 -15 62 -22 88 -74 12 -24
25 -44 28 -44 15 0 29 -51 35 -128 6 -69 5 -87 -12 -124 -25 -52 -37 -88 -53
-150 -7 -26 -18 -52 -24 -57 -6 -5 -45 -16 -88 -25 -85 -18 -145 -11 -224 23
-50 23 -73 62 -82 141 -2 25 -9 51 -15 58 -15 19 -10 93 13 180 11 42 20 86
20 99 0 13 7 26 15 29 8 3 17 14 20 25 4 11 23 28 43 39 44 23 170 27 236 8z"/>
<path d="M8995 5884 c-89 -11 -135 -26 -135 -44 0 -5 -16 -17 -36 -26 -56 -27
-226 -209 -237 -254 -3 -14 -11 -65 -17 -115 -6 -49 -16 -93 -22 -96 -15 -10
-22 -199 -8 -199 6 0 8 -5 5 -10 -4 -6 -2 -16 3 -23 6 -7 13 -34 17 -62 11
-72 20 -92 70 -147 25 -28 45 -58 45 -67 0 -25 41 -57 81 -65 20 -3 46 -17 59
-31 13 -14 28 -25 33 -25 5 0 22 -9 37 -20 33 -23 124 -33 295 -30 135 1 164
9 240 59 33 22 66 41 73 41 8 0 29 7 48 16 28 13 34 22 34 48 0 17 6 40 14 51
21 32 6 133 -25 161 -14 13 -32 15 -85 12 -59 -4 -69 -7 -93 -35 -14 -17 -52
-45 -85 -63 -53 -29 -66 -32 -155 -33 -81 -1 -102 3 -136 21 -22 12 -54 25
-71 28 -55 10 -74 37 -74 103 0 47 4 61 23 78 21 21 33 22 347 25 359 3 347 1
413 72 l39 41 -7 100 c-4 55 -8 111 -10 125 -2 14 -4 28 -4 32 -1 4 -17 24
-36 45 -19 21 -51 66 -71 99 -25 43 -53 73 -92 101 -59 41 -132 78 -173 88
-46 11 -215 10 -304 -1z m247 -269 c67 -18 118 -41 130 -59 13 -19 9 -143 -4
-153 -23 -18 -85 -24 -269 -24 -218 1 -229 5 -229 79 1 26 9 63 18 82 16 32
24 37 102 59 47 13 86 27 88 31 4 11 93 3 164 -15z"/>
<path d="M10001 5877 c-102 -42 -96 -4 -94 -584 l3 -506 50 -48 c57 -55 80
-64 141 -55 66 9 92 42 103 131 9 70 11 425 2 514 -5 50 -3 84 5 103 12 30 57
61 101 72 14 3 40 20 57 36 22 22 49 35 98 46 72 17 143 43 143 53 0 3 12 20
26 36 49 56 56 72 45 94 -6 11 -11 30 -11 43 0 38 -62 71 -141 76 -74 5 -111
-8 -169 -58 -19 -16 -43 -30 -53 -30 -10 0 -28 -5 -39 -11 -18 -10 -25 -8 -39
10 -9 11 -22 21 -28 21 -6 0 -15 9 -21 21 -11 20 -50 41 -100 52 -15 4 -47 -3
-79 -16z"/>
<path d="M13939 5890 c-59 -7 -159 -55 -159 -75 0 -7 -15 -16 -34 -19 -43 -8
-80 -37 -95 -75 -7 -16 -21 -31 -32 -34 -10 -3 -28 -25 -39 -49 -12 -23 -34
-65 -50 -93 -49 -84 -62 -146 -63 -285 -1 -168 30 -270 102 -334 11 -11 21
-26 21 -34 0 -36 91 -122 133 -126 4 -1 26 -19 48 -41 35 -35 46 -40 107 -46
37 -5 137 -8 222 -8 l156 -1 69 35 c97 49 159 87 164 99 2 6 22 28 43 49 32
32 38 44 38 80 -1 28 -8 51 -23 69 -22 26 -91 58 -128 58 -28 0 -69 -22 -69
-36 0 -12 -136 -84 -158 -84 -5 0 -17 -8 -26 -19 -20 -22 -85 -18 -157 10 -26
10 -49 16 -51 14 -2 -2 -26 8 -53 23 -39 21 -51 33 -53 54 -2 18 -15 34 -38
48 -28 18 -34 28 -34 55 0 23 6 37 18 43 9 5 178 12 374 14 392 5 387 5 403
65 3 15 15 38 26 51 23 30 24 50 3 74 -16 17 -17 30 -12 151 2 55 -29 131 -69
167 -21 19 -47 47 -56 61 -9 15 -28 30 -43 33 -16 4 -42 20 -60 36 -54 47
-125 67 -254 73 -63 2 -140 1 -171 -3z m230 -259 c14 -9 41 -23 59 -31 52 -20
72 -54 72 -121 0 -52 -3 -60 -29 -78 -27 -19 -43 -21 -221 -21 -156 0 -198 3
-226 16 -35 17 -42 28 -24 39 6 3 10 17 10 30 0 36 37 100 64 113 13 6 44 16
67 22 24 7 53 20 65 29 32 25 128 26 163 2z"/>
<path d="M15273 5890 c-58 -12 -111 -42 -158 -89 -22 -22 -43 -40 -47 -41 -4
0 -36 -28 -71 -62 -68 -66 -107 -121 -107 -151 0 -9 -4 -25 -9 -35 -19 -34
-51 -133 -51 -158 0 -14 -9 -43 -20 -64 -26 -50 -21 -87 19 -165 17 -33 31
-66 31 -72 0 -28 70 -163 84 -163 8 0 28 -23 45 -50 17 -28 39 -53 49 -56 9
-2 64 -28 120 -57 l104 -52 141 -3 c136 -3 217 8 217 30 0 4 16 16 35 25 19 9
35 22 35 29 0 7 18 15 40 19 43 7 72 37 84 89 4 17 21 45 37 64 41 47 49 71
49 157 0 69 -2 77 -31 110 -17 19 -36 35 -43 34 -6 -1 -19 1 -29 6 -26 11 -82
-3 -102 -25 -10 -11 -26 -20 -36 -20 -19 0 -41 -35 -52 -81 -4 -14 -33 -51
-66 -82 -58 -55 -61 -57 -115 -57 -108 0 -156 16 -208 71 -66 70 -108 160
-108 233 0 51 4 61 30 88 17 16 30 40 30 52 0 29 30 68 73 95 18 11 39 31 46
45 12 21 24 26 76 31 69 8 145 -1 145 -17 0 -16 40 -47 95 -73 94 -46 187 -29
224 42 26 50 5 139 -40 171 -11 8 -23 22 -27 32 -10 24 -108 102 -164 128 -38
19 -68 24 -165 27 -65 2 -137 0 -160 -5z"/>
<path d="M16590 5889 c-63 -8 -91 -22 -136 -64 -21 -21 -55 -43 -74 -50 -32
-11 -43 -24 -85 -97 -8 -15 -24 -32 -34 -37 -11 -6 -26 -36 -37 -71 -10 -33
-21 -60 -25 -60 -4 0 -11 -10 -15 -22 -4 -13 -17 -37 -30 -53 -13 -17 -27 -51
-33 -76 -13 -58 -16 -203 -6 -293 8 -69 45 -163 69 -172 6 -2 23 -24 36 -49
17 -31 36 -49 64 -61 52 -23 117 -63 133 -83 9 -10 45 -17 125 -22 142 -9 208
2 208 35 0 7 31 25 69 41 l69 27 66 -46 c86 -60 131 -63 182 -12 19 19 44 38
54 41 11 4 23 18 27 32 3 15 3 193 0 397 -10 553 -21 582 -248 661 -94 33
-116 36 -219 38 -63 1 -135 0 -160 -4z m236 -320 c51 -24 65 -56 70 -168 5
-104 11 -158 18 -169 9 -14 -20 -48 -54 -62 -18 -7 -30 -20 -30 -31 0 -35 -23
-68 -51 -74 -28 -6 -79 -47 -79 -63 0 -14 -37 -22 -96 -22 -54 0 -97 23 -108
58 -3 9 -20 23 -37 31 -41 18 -50 47 -46 153 4 79 7 92 28 113 39 39 45 49 53
85 6 33 75 110 97 110 5 0 14 11 21 25 13 29 24 32 107 34 47 1 77 -5 107 -20z"/>
<path d="M18898 5890 c-24 -4 -51 -20 -74 -44 -52 -54 -52 -52 -46 -834 l2
-222 28 -29 c15 -16 39 -43 54 -60 26 -29 30 -30 90 -26 35 2 65 5 68 5 7 0
27 48 40 97 6 25 12 170 14 348 2 251 5 308 17 316 11 7 11 9 1 9 -7 0 -11 4
-8 8 3 5 8 63 12 130 5 93 3 126 -7 138 -7 8 -14 30 -15 47 -5 57 -16 96 -29
107 -17 14 -100 20 -147 10z"/>
<path d="M19838 5885 c-37 -5 -73 -16 -80 -22 -6 -7 -20 -13 -29 -13 -9 0 -22
-7 -29 -15 -7 -9 -37 -27 -66 -40 -35 -16 -56 -32 -60 -47 -3 -13 -29 -41 -58
-64 -28 -22 -52 -49 -54 -60 -2 -10 -17 -30 -34 -44 -27 -23 -31 -35 -43 -120
-17 -124 -19 -291 -5 -374 8 -42 23 -82 43 -112 18 -26 40 -60 49 -76 10 -15
36 -44 59 -65 23 -21 47 -43 53 -48 6 -6 39 -30 74 -53 58 -39 72 -44 155 -53
128 -15 284 -8 322 13 17 9 44 23 60 31 29 14 91 71 146 133 14 16 31 49 38
74 7 24 22 55 32 69 29 36 26 115 -5 156 -14 18 -28 44 -31 58 -7 28 -19 34
-73 36 -43 2 -105 -48 -126 -101 -9 -21 -23 -41 -32 -45 -8 -3 -26 -27 -39
-52 -13 -26 -31 -53 -39 -60 -10 -8 -57 -15 -124 -19 -88 -4 -114 -2 -140 12
-18 9 -32 24 -32 32 0 9 -18 33 -40 53 -50 45 -70 103 -70 197 0 86 31 169 78
208 15 14 36 40 47 59 23 43 67 57 179 57 72 0 76 -1 90 -28 21 -41 47 -60 98
-71 26 -6 58 -16 73 -23 18 -8 29 -9 33 -2 4 6 23 14 41 18 66 12 78 27 80 99
1 63 0 67 -39 108 -22 24 -40 48 -40 55 0 11 -79 54 -100 54 -5 0 -12 11 -16
24 -7 31 -34 43 -124 55 -122 17 -152 18 -222 6z"/>
<path d="M21179 5889 c-89 -7 -162 -34 -195 -70 -9 -10 -23 -19 -30 -19 -7 0
-28 -13 -46 -29 -18 -16 -53 -46 -77 -67 -24 -22 -50 -54 -58 -71 -7 -18 -20
-33 -28 -33 -21 0 -42 -38 -50 -92 -3 -27 -9 -48 -13 -48 -33 0 -71 -178 -67
-307 3 -80 8 -101 40 -170 56 -121 57 -122 77 -129 10 -3 18 -10 18 -15 0 -12
51 -69 62 -69 5 0 45 -21 90 -47 70 -40 90 -47 150 -51 103 -6 179 5 185 29 3
10 13 19 22 19 10 0 31 16 48 35 29 32 73 48 73 25 0 -5 17 -12 38 -16 52 -9
70 -20 87 -54 13 -24 22 -30 49 -30 19 0 40 8 50 19 10 11 25 16 39 14 18 -3
26 4 42 39 19 41 20 61 17 493 -2 330 -6 457 -15 478 -7 17 -29 37 -55 50 -24
12 -48 29 -52 38 -5 9 -31 22 -57 28 -26 7 -60 19 -75 27 -24 13 -60 19 -153
27 -16 2 -68 0 -116 -4z m185 -322 c36 -24 48 -80 50 -232 1 -123 0 -132 -24
-165 -31 -44 -121 -130 -136 -130 -6 0 -17 -7 -24 -15 -7 -9 -28 -23 -46 -31
-28 -14 -44 -14 -96 -5 -56 10 -68 16 -110 61 -27 27 -48 54 -48 59 0 5 -4 11
-10 13 -5 2 -14 24 -18 49 -9 49 1 84 46 147 12 16 27 50 34 76 11 43 26 63
98 131 11 11 28 28 37 37 21 23 44 27 139 24 57 -2 90 -8 108 -19z"/>
<path d="M24171 5874 c-11 -14 -18 -31 -15 -39 3 -7 1 -16 -5 -20 -6 -3 -11
-17 -11 -29 0 -13 -7 -29 -15 -36 -8 -7 -15 -20 -15 -30 0 -10 -9 -39 -21 -65
-19 -43 -21 -67 -22 -283 l-2 -237 33 -64 c18 -34 42 -91 54 -124 12 -34 29
-74 38 -89 17 -28 92 -88 109 -88 6 0 29 -20 53 -44 l43 -43 116 -6 117 -7 43
34 c24 18 55 37 69 41 14 4 36 16 51 26 30 21 44 14 67 -31 18 -36 54 -53 136
-65 40 -6 48 -4 69 19 14 15 37 65 51 111 27 86 28 132 15 430 -1 6 5 24 12
42 10 25 10 41 -1 86 -8 34 -10 76 -6 109 3 29 7 58 7 63 4 43 -13 180 -26
204 -8 17 -15 37 -15 45 0 29 -43 98 -66 106 -37 15 -173 -3 -179 -24 -3 -6
-6 -39 -8 -74 -3 -47 -9 -67 -25 -82 -19 -18 -20 -27 -15 -132 3 -62 4 -131 4
-153 -1 -22 -3 -97 -5 -167 -4 -121 -6 -130 -37 -188 -18 -34 -42 -68 -54 -76
-26 -17 -158 -29 -209 -20 -27 5 -40 14 -48 34 -13 28 -63 82 -78 82 -16 0
-23 111 -16 264 3 83 8 167 11 186 16 112 20 179 13 210 -4 19 -10 52 -13 73
-8 48 -33 63 -117 70 -63 6 -68 5 -87 -19z"/>
<path d="M27650 5892 c-19 -2 -39 -8 -44 -13 -6 -5 -20 -9 -33 -9 -13 0 -26
-6 -28 -12 -4 -11 -16 -185 -16 -228 0 -8 0 -67 0 -130 -1 -63 0 -119 0 -125
6 -72 8 -346 2 -349 -8 -5 -7 -35 4 -160 5 -61 10 -73 38 -101 18 -17 43 -44
55 -59 21 -25 28 -28 65 -22 23 4 51 16 63 26 11 11 25 20 31 20 6 0 17 19 26
43 12 35 15 93 13 337 -3 411 8 454 117 479 57 13 197 8 238 -8 23 -8 28 -19
38 -74 6 -35 11 -73 11 -85 0 -11 5 -24 11 -27 6 -4 8 -13 5 -21 -3 -8 0 -14
7 -14 8 0 7 -3 -2 -9 -12 -8 -12 -12 -2 -25 10 -12 11 -56 6 -198 -4 -101 -6
-200 -6 -220 1 -21 -2 -46 -8 -55 -13 -26 45 -121 97 -157 l42 -30 62 20 c91
29 91 30 93 441 2 328 3 332 26 380 43 86 141 110 294 71 42 -11 53 -19 67
-48 21 -44 37 -213 33 -345 -4 -110 -6 -281 -6 -362 1 -39 5 -53 15 -53 8 0
27 -20 43 -45 15 -25 32 -44 38 -43 5 1 22 -2 38 -6 18 -6 34 -3 50 7 17 11
28 12 41 5 21 -12 36 -1 16 12 -12 7 -9 13 12 30 45 34 50 73 52 343 2 406
-11 501 -80 575 -10 11 -27 43 -37 71 -14 41 -23 52 -45 56 -65 14 -102 29
-107 45 -3 9 -17 28 -31 41 -25 23 -31 24 -213 27 l-188 4 -22 -36 c-14 -22
-33 -38 -49 -42 -15 -3 -35 -9 -44 -15 -38 -20 -84 -10 -153 36 -87 57 -143
69 -288 60 -62 -4 -114 -8 -117 -10 -4 -2 -49 -1 -100 3 -52 4 -111 6 -130 4z"/>
<path d="M32665 5884 c-16 -9 -32 -18 -34 -20 -27 -24 -47 -1028 -21 -1059 5
-6 14 -31 20 -56 11 -44 14 -46 66 -62 30 -9 61 -17 68 -17 19 0 104 83 118
116 15 34 25 928 11 1009 -7 46 -11 52 -53 72 -62 31 -137 38 -175 17z"/>
<path d="M6465 5875 c-58 -15 -102 -41 -149 -88 -52 -52 -121 -107 -134 -107
-5 0 -16 -14 -23 -32 -7 -18 -25 -46 -39 -62 -14 -17 -34 -51 -44 -76 -10 -25
-24 -58 -32 -75 -28 -64 -38 -197 -25 -333 13 -140 28 -185 80 -232 17 -14 36
-40 41 -57 9 -26 17 -31 53 -36 29 -4 48 -14 62 -31 12 -14 28 -26 38 -26 9 0
27 -10 39 -22 20 -20 31 -22 146 -21 l124 1 43 45 c38 38 51 45 91 49 54 4 88
-10 124 -51 20 -24 35 -30 83 -34 53 -5 59 -3 82 21 14 15 25 30 25 33 0 3 13
19 29 36 23 25 30 42 37 104 4 41 8 79 7 86 -4 72 -15 177 -20 195 -7 25 -14
219 -12 313 0 11 -6 49 -15 85 -8 36 -16 88 -17 115 0 28 -4 61 -8 74 -7 26
-47 53 -96 65 -16 4 -65 23 -107 42 -78 35 -78 35 -210 33 -73 -2 -151 -8
-173 -14z m265 -303 c16 -13 24 -36 32 -97 6 -44 14 -82 18 -85 12 -8 22 -111
12 -123 -5 -7 -17 -41 -27 -75 -13 -46 -29 -73 -54 -97 -70 -66 -131 -98 -206
-110 -35 -5 -48 -1 -102 34 -66 43 -70 51 -78 155 -7 85 11 190 39 234 32 49
144 158 176 171 45 17 165 13 190 -7z"/>
<path d="M17936 5882 c-4 -6 -25 -16 -46 -22 -22 -6 -40 -17 -40 -24 0 -20
-58 -58 -79 -51 -11 3 -26 23 -35 44 -14 36 -19 39 -65 46 -70 10 -118 -7
-126 -45 -4 -16 -15 -48 -27 -71 -19 -40 -19 -57 -1 -129 9 -35 19 -306 22
-570 1 -157 6 -301 11 -320 8 -31 17 -38 57 -53 27 -9 65 -17 86 -17 31 0 39
4 47 25 5 14 13 25 18 25 5 0 23 18 41 41 27 33 33 50 34 92 1 29 6 55 11 59
7 5 7 11 -2 20 -6 6 -12 23 -11 38 l1 25 8 -25 c6 -17 8 -2 8 50 0 52 -2 67
-8 50 -8 -24 -8 -24 -9 7 -1 17 5 34 12 36 9 4 9 7 0 14 -13 9 -20 209 -10
283 3 19 8 60 11 90 4 30 10 61 14 67 20 33 241 36 300 4 23 -12 52 -60 52
-84 0 -7 8 -22 18 -33 23 -26 24 -30 28 -274 8 -447 9 -469 20 -480 6 -6 42
-14 80 -17 l70 -5 50 49 c49 48 51 53 58 119 3 38 6 170 6 294 1 273 -14 390
-55 444 -17 22 -29 54 -32 80 -6 48 -53 116 -80 116 -9 0 -30 15 -47 33 -54
57 -94 69 -247 75 -94 3 -138 1 -143 -6z"/>
<path d="M31738 5883 c-20 -3 -30 -12 -34 -31 -3 -15 -15 -56 -25 -92 -14 -50
-19 -97 -18 -205 0 -77 -1 -171 -2 -210 -2 -65 8 -407 14 -485 2 -19 9 -48 15
-63 7 -16 12 -38 12 -51 0 -45 22 -59 91 -60 73 -1 90 9 159 93 17 20 20 39
20 120 0 53 1 196 3 318 l2 222 35 36 c19 20 45 38 57 41 13 4 23 10 23 14 0
4 21 17 48 28 43 18 65 24 130 37 70 13 91 28 122 87 14 26 20 58 20 99 0 50
-4 64 -25 84 -20 21 -34 25 -86 25 -62 0 -179 -19 -189 -30 -24 -28 -71 -47
-119 -48 -61 -1 -87 9 -96 38 -10 31 -77 45 -157 33z"/>
<path d="M33255 5885 c-5 -2 -31 -6 -57 -10 -43 -6 -48 -9 -59 -43 -7 -20 -19
-47 -27 -59 -16 -26 -11 -56 19 -120 29 -60 31 -60 299 -67 154 -4 176 -7 188
-23 21 -29 -2 -93 -35 -93 -8 0 -23 -20 -34 -45 -11 -25 -26 -45 -33 -45 -20
0 -71 -61 -96 -115 -13 -27 -30 -54 -37 -58 -30 -18 -81 -74 -88 -94 -3 -12
-14 -24 -23 -28 -9 -3 -26 -16 -37 -30 -11 -13 -37 -43 -57 -67 -21 -23 -38
-47 -38 -54 0 -6 -7 -25 -15 -40 -19 -38 -19 -108 0 -124 8 -7 15 -20 15 -30
0 -28 31 -47 95 -58 64 -11 695 -11 730 0 11 3 34 9 50 13 57 13 84 27 91 49
4 11 11 24 17 27 14 10 11 114 -5 149 -18 41 -78 52 -298 55 -191 2 -230 11
-230 51 0 13 5 26 10 29 6 4 23 25 37 48 14 23 46 61 70 85 23 24 43 49 43 57
0 8 13 22 29 31 16 10 34 28 40 42 6 13 29 39 50 58 21 19 46 53 56 74 10 23
32 48 51 60 19 10 34 26 34 35 0 8 10 32 23 53 12 20 30 62 41 92 l18 54 -28
23 c-16 13 -32 23 -35 23 -3 0 -11 16 -19 35 -13 34 -21 39 -48 36 -8 -1 -20
3 -28 10 -21 17 -309 26 -328 9 -10 -8 -32 -10 -63 -6 -61 7 -275 16 -288 11z"/>
<path d="M17842 5175 c0 -16 2 -22 5 -12 2 9 2 23 0 30 -3 6 -5 -1 -5 -18z"/>
</g>
</svg>
